<svg version="1.1" xmlns="http://www.w3.org/2000/svg" width="32" height="32" viewBox="0 0 32 32">
	<title>arrow-right</title>
	<path d="M15.057 7.609l7.057 7.057h-15.448c-0.736 0-1.333 0.597-1.333 1.333s0.597 1.333 1.333 1.333h15.448l-7.057 7.057c-0.521 0.521-0.521 1.365 0 1.885s1.365 0.521 1.885 0l9.333-9.333c0.128-0.128 0.224-0.276 0.289-0.433 0.065-0.16 0.1-0.329 0.101-0.499 0.001-0.177-0.032-0.355-0.101-0.52-0.065-0.157-0.161-0.305-0.289-0.433l-9.333-9.333c-0.521-0.521-1.365-0.521-1.885 0s-0.521 1.365 0 1.885z"></path>
</svg>
