<svg version="1.1" xmlns="http://www.w3.org/2000/svg" width="32" height="32" viewBox="0 0 32 32">
	<title>arrow-left</title>
	<path d="M16.943 24.391l-7.057-7.057h15.448c0.736 0 1.333-0.597 1.333-1.333s-0.597-1.333-1.333-1.333h-15.448l7.057-7.057c0.521-0.521 0.521-1.365 0-1.885s-1.365-0.521-1.885 0l-9.333 9.333c-0.128 0.128-0.224 0.275-0.289 0.432-0.135 0.327-0.135 0.696 0 1.023 0.064 0.155 0.159 0.299 0.283 0.425 0.003 0.003 0.004 0.004 0.007 0.007l9.333 9.333c0.521 0.521 1.365 0.521 1.885 0s0.521-1.365 0-1.885z"></path>
</svg>
