<?xml version="1.0" encoding="UTF-8"?>
<svg width="16px" height="16px" viewBox="0 0 16 16" version="1.1" xmlns="http://www.w3.org/2000/svg" xmlns:xlink="http://www.w3.org/1999/xlink">
    <path d="M7.93142857,0 C12.3048163,0 15.8628571,3.55804082 15.8628571,7.93142857 C15.8628571,12.3048163 12.3048163,15.8628571 7.93142857,15.8628571 C3.55804082,15.8628571 0,12.3048163 0,7.93142857 C0,3.55804082 3.55804082,0 7.93142857,0 Z M7.93142857,14.1751837 C11.3742041,14.1751837 14.1753469,11.3743673 14.1753469,7.93142857 C14.1753469,4.4884898 11.3742041,1.68767347 7.93142857,1.68767347 C4.48865306,1.68767347 1.6875102,4.4884898 1.6875102,7.93142857 C1.6875102,11.3743673 4.48865306,14.1751837 7.93142857,14.1751837 Z M12.0649796,7.68653061 C12.4256327,7.68653061 12.7180408,7.97893878 12.7180408,8.33959184 C12.7180408,8.7002449 12.4256327,8.99265306 12.0649796,8.99265306 L7.8475102,8.99265306 C7.48685714,8.99265306 7.19444898,8.7002449 7.19444898,8.33959184 L7.19444898,3.40081633 C7.19444898,3.04016327 7.48685714,2.7477551 7.8475102,2.7477551 C8.20816327,2.7477551 8.50057143,3.04016327 8.50057143,3.40081633 L8.50057143,7.68653061 L12.0649796,7.68653061 Z"></path>
</svg>
