<?xml version="1.0" encoding="UTF-8"?>
<svg width="11px" height="11px" viewBox="0 0 11 11" version="1.1" xmlns="http://www.w3.org/2000/svg" xmlns:xlink="http://www.w3.org/1999/xlink">
    <path d="M11,10.3125 C11,10.6938477 10.6938477,11 10.3125,11 L0.6875,11 C0.306152344,11 0,10.6938477 0,10.3125 L0,4.8125 C0,4.43115234 0.306152344,4.125 0.6875,4.125 L1.83154297,4.125 L1.83154297,6.41845703 L9.16845703,6.41845703 L9.16845703,4.125 L10.3125,4.125 C10.6938477,4.125 11,4.43115234 11,4.8125 L11,10.3125 Z M9.625,8.9375 C9.625,8.55615234 9.31884766,8.25 8.9375,8.25 C8.55615234,8.25 8.25,8.55615234 8.25,8.9375 C8.25,9.31884766 8.55615234,9.625 8.9375,9.625 C9.31884766,9.625 9.625,9.31884766 9.625,8.9375 Z M2.75,5.5 L2.75,0.230957031 C2.75,0.102050781 2.85205078,0 2.98095703,0 L8.01904297,0 C8.14794922,0 8.25,0.102050781 8.25,0.230957031 L8.25,5.5 L2.75,5.5 Z"></path>
</svg>
