<?xml version="1.0" encoding="UTF-8"?>
<svg width="50px" height="33px" viewBox="0 0 50 33" version="1.1" xmlns="http://www.w3.org/2000/svg" xmlns:xlink="http://www.w3.org/1999/xlink">
		<!-- Generator: Sketch 45.2 (43514) - http://www.bohemiancoding.com/sketch -->
		<title>FS Logo 2017</title>
		<desc>Created with Sketch.</desc>
		<defs></defs>
		<g id="Symbols" stroke="none" stroke-width="1" fill="" fill-rule="evenodd">
				<g id="Nav-Bar" transform="translate(-1268.000000, -26.000000)" fill="">
						<g id="FS-Logo-2017" transform="translate(1268.000000, 26.000000)">
								<path d="M49.206746,0 L0.794047619,0 C0.355357143,0 0,0.3582 0,0.8 L0,5.2 C0,5.421 0.177777778,5.6 0.397222222,5.6 L7.14285714,5.6 L7.14285714,14 L31.4690476,14 C31.7585317,14 32.1428571,13.6624 32.1428571,13.293 L32.1428571,9.1144 C32.103373,8.7258 31.7906746,8.421 31.4,8.4 L22.2222222,8.4 L22.2222222,5.6 L38.8888889,5.6 L38.8888889,9.6 C38.8888889,9.821 39.0664683,10 39.2857143,10 L49.206746,10 C49.6446429,10 50,9.6418 50,9.2 L50,0.8 C50,0.3582 49.6446429,0 49.206746,0" id="Fill-1"></path>
								<path d="M42.5965884,18.5702756 C40.9608647,18.2169291 34.6975135,17.6978346 32.0022802,17.6978346 L25.5202157,17.6448819 C24.7997019,17.6448819 22.3889338,17.5125984 22.0658838,17.0080709 L7.09140322,17 C7.04297525,17.2277559 6.99179121,17.7505906 6.99179121,18.0001969 C6.99179121,19.9320866 9.14033959,22.4354331 13.6089029,23.715748 C16.2789378,24.4645669 22.972235,25.1612205 25.2022841,25.1612205 L33.4131879,25.2220472 C33.8746317,25.2220472 35.6310316,25.1958661 35.6310316,26.4938976 C35.6310316,27.7919291 33.8746317,27.771063 33.4131879,27.771063 L23.114566,27.771063 C22.7995873,27.771063 18.2890925,27.6854331 17.6707499,25.8444882 C17.6650409,25.8275591 17.6573633,25.8114173 17.6522449,25.7940945 C17.5884617,25.6629921 17.4569581,25.5712598 17.3016343,25.5712598 L7.03411647,25.5712598 C6.81638746,25.5712598 6.63999939,25.7472441 6.63999939,25.9649606 L6.63999939,31.8704724 C6.63999939,32.0879921 6.81638746,32.2641732 7.03411647,32.2641732 L16.9018082,32.2641732 C17.1152063,32.2641732 17.2874602,32.0929134 17.2931692,31.880315 C17.2931692,31.8769685 17.3947498,30.1570866 17.3947498,30.1570866 C19.4743966,31.0818898 22.8238013,32.0271654 25.9836281,32.0271654 L33.8313221,32.0271654 C37.9764417,32.0271654 49.9099998,31.101378 49.9099998,24.4645669 C49.9099998,20.078937 44.1799469,18.9124016 42.5965884,18.5702756 Z" id="Fill-3"></path>
						</g>
				</g>
		</g>
</svg>
