<?xml version="1.0" encoding="UTF-8"?>
<svg width="50px" height="33px" viewBox="0 0 50 33" version="1.1" xmlns="http://www.w3.org/2000/svg" xmlns:xlink="http://www.w3.org/1999/xlink">
    <path d="M49.206746,0 C49.6446429,0 50,0.3582 50,0.8 L50,9.2 C50,9.6418 49.6446429,10 49.206746,10 L39.2857143,10 C39.0664683,10 38.8888889,9.821 38.8888889,9.6 L38.8888889,5.6 L22.2222222,5.6 L22.2222222,8.4 L31.4,8.4 C31.7906746,8.421 32.103373,8.7258 32.1428571,9.1144 L32.1428571,13.293 C32.1428571,13.6624 31.7585317,14 31.4690476,14 L7.14285714,14 L7.14285714,5.6 L0.397222222,5.6 C0.177777778,5.6 0,5.421 0,5.2 L0,0.8 C0,0.3582 0.355357143,0 0.794047619,0 L49.206746,0 Z M42.5965884,18.5702756 C44.1799469,18.9124016 49.9099998,20.078937 49.9099998,24.4645669 C49.9099998,31.101378 37.9764417,32.0271654 33.8313221,32.0271654 L25.9836281,32.0271654 C22.8238013,32.0271654 19.4743966,31.0818898 17.3947498,30.1570866 C17.3947498,30.1570866 17.2931692,31.8769685 17.2931692,31.880315 C17.2874602,32.0929134 17.1152063,32.2641732 16.9018082,32.2641732 L7.03411647,32.2641732 C6.81638746,32.2641732 6.63999939,32.0879921 6.63999939,31.8704724 L6.63999939,25.9649606 C6.63999939,25.7472441 6.81638746,25.5712598 7.03411647,25.5712598 L17.3016343,25.5712598 C17.4569581,25.5712598 17.5884617,25.6629921 17.6522449,25.7940945 C17.6573633,25.8114173 17.6650409,25.8275591 17.6707499,25.8444882 C18.2890925,27.6854331 22.7995873,27.771063 23.114566,27.771063 L33.4131879,27.771063 C33.8746317,27.771063 35.6310316,27.7919291 35.6310316,26.4938976 C35.6310316,25.1958661 33.8746317,25.2220472 33.4131879,25.2220472 L25.2022841,25.1612205 C22.972235,25.1612205 16.2789378,24.4645669 13.6089029,23.715748 C9.14033959,22.4354331 6.99179121,19.9320866 6.99179121,18.0001969 C6.99179121,17.7505906 7.04297525,17.2277559 7.09140322,17 L22.0658838,17.0080709 C22.3889338,17.5125984 24.7997019,17.6448819 25.5202157,17.6448819 L32.0022802,17.6978346 C34.6975135,17.6978346 40.9608647,18.2169291 42.5965884,18.5702756 Z"></path>
</svg>
