<?xml version="1.0" encoding="UTF-8"?>
<svg width="10px" height="10px" viewBox="0 0 10 10" version="1.1" xmlns="http://www.w3.org/2000/svg" xmlns:xlink="http://www.w3.org/1999/xlink">
    <path d="M9.98961019,5.08666992 C9.9554305,5.16479492 9.87242269,5.21362305 9.78941488,5.21362305 L8.74937581,5.21362305 L8.74937581,9.79370117 C8.74937581,9.91088867 8.65660238,10.0036621 8.53941488,10.0036621 L6.45933675,10.0036621 C6.34214925,10.0036621 6.24937581,9.91088867 6.24937581,9.79370117 L6.24937581,6.25366211 L3.74937581,6.25366211 L3.74937581,9.79370117 C3.74937581,9.91088867 3.65660238,10.0036621 3.53941488,10.0036621 L1.45933675,10.0036621 C1.34214925,10.0036621 1.24937581,9.91088867 1.24937581,9.79370117 L1.24937581,5.21362305 L0.209336751,5.21362305 C0.126328938,5.21362305 0.0433211259,5.16479492 0.00914143838,5.08666992 C-0.0103898116,5.00366211 -0.000624186616,4.9206543 0.0579695634,4.85229492 L4.84800863,0.0622558594 C4.93101644,-0.0207519531 5.06773519,-0.0207519531 5.150743,0.0622558594 L9.94078206,4.85229492 C9.99937581,4.9206543 10.0091414,5.00366211 9.98961019,5.08666992 Z"></path>
</svg>
