<?xml version="1.0" encoding="UTF-8"?>
<svg width="18px" height="18px" viewBox="0 0 18 18" version="1.1" xmlns="http://www.w3.org/2000/svg" xmlns:xlink="http://www.w3.org/1999/xlink">
    <path d="M12.9606353,0 L4.93983529,0 C2.21601176,0 0,2.21611765 0,4.93994118 L0,12.9607412 C0,15.6846706 2.21601176,17.9006824 4.93983529,17.9006824 L12.9606353,17.9006824 C15.6846706,17.9006824 17.9006824,15.6845647 17.9006824,12.9607412 L17.9006824,4.93994118 C17.9007882,2.21611765 15.6846706,0 12.9606353,0 Z M16.3125529,12.9607412 C16.3125529,14.8089176 14.8089176,16.3124471 12.9607412,16.3124471 L4.93983529,16.3124471 C3.09176471,16.3125529 1.58823529,14.8089176 1.58823529,12.9607412 L1.58823529,4.93994118 C1.58823529,3.09187059 3.09176471,1.58823529 4.93983529,1.58823529 L12.9606353,1.58823529 C14.8088118,1.58823529 16.3124471,3.09187059 16.3124471,4.93994118 L16.3124471,12.9607412 L16.3125529,12.9607412 Z"></path>
    <path d="M8.95034118,4.338 C6.40694118,4.338 4.33778824,6.40715294 4.33778824,8.95055294 C4.33778824,11.4938471 6.40694118,13.5628941 8.95034118,13.5628941 C11.4937412,13.5628941 13.5628941,11.4938471 13.5628941,8.95055294 C13.5628941,6.40715294 11.4937412,4.338 8.95034118,4.338 Z M8.95034118,11.9745529 C7.2828,11.9745529 5.92602353,10.6179882 5.92602353,8.95044706 C5.92602353,7.2828 7.28269412,5.92612941 8.95034118,5.92612941 C10.6179882,5.92612941 11.9746588,7.2828 11.9746588,8.95044706 C11.9746588,10.6179882 10.6178824,11.9745529 8.95034118,11.9745529 Z"></path>
    <path d="M13.7563412,2.99128235 C13.4503412,2.99128235 13.1497412,3.11516471 12.9336353,3.33222353 C12.7164706,3.54822353 12.5916353,3.84892941 12.5916353,4.15598824 C12.5916353,4.46209412 12.7165765,4.76269412 12.9336353,4.97975294 C13.1496353,5.19575294 13.4503412,5.32069412 13.7563412,5.32069412 C14.0634,5.32069412 14.3630471,5.19575294 14.5801059,4.97975294 C14.7971647,4.76269412 14.9210471,4.46198824 14.9210471,4.15598824 C14.9210471,3.84892941 14.7971647,3.54822353 14.5801059,3.33222353 C14.3641059,3.11516471 14.0634,2.99128235 13.7563412,2.99128235 Z"></path>
</svg>
