<?xml version="1.0" encoding="UTF-8"?>
<svg width="18px" height="18px" viewBox="0 0 18 18" version="1.1" xmlns="http://www.w3.org/2000/svg" xmlns:xlink="http://www.w3.org/1999/xlink">
    <path d="M14.8864663,9.15966839 C14.7342591,8.71573057 14.5248808,8.34789637 14.2585803,8.0561658 C13.9922176,7.76443523 13.6782902,7.54880829 13.316829,7.40928497 C12.9553057,7.26976166 12.5589326,7.2 12.1277098,7.2 C11.7851192,7.2 11.4871399,7.2412228 11.2333679,7.32366839 C10.9798135,7.40611399 10.7609845,7.51392746 10.5770674,7.64710881 C10.3931503,7.78029016 10.237772,7.92298446 10.1109326,8.07519171 C9.98409326,8.22739896 9.87631088,8.36692228 9.78749223,8.49376166 L9.78749223,7.39025907 L7.2,7.39025907 C7.21268394,7.60588601 7.21902591,8.02445596 7.21902591,8.64596891 L7.21902591,11.0052746 C7.21902591,11.0052746 7.21268394,12.4068497 7.2,15.21 L9.78749223,15.21 L9.78749223,10.8339482 C9.78749223,10.7197927 9.79386528,10.6089326 9.80654922,10.5010259 C9.81923316,10.3931813 9.84456995,10.2948808 9.88262176,10.2061865 C9.98409326,9.97781347 10.1394715,9.76227979 10.3486943,9.55921244 C10.5579793,9.35636269 10.846601,9.25482902 11.2144352,9.25482902 C11.6837409,9.25482902 12.0198653,9.41651813 12.2228083,9.73995855 C12.4257824,10.0633368 12.5272539,10.4914819 12.5272539,11.0242383 L12.5272539,15.2099689 L15.1147772,15.21 L15.1147772,10.7197927 C15.1147772,10.1236477 15.0386425,9.60366839 14.8864663,9.15966839 Z M5.2304456,5.90213472 C5.49680829,5.63577202 5.62364767,5.31867358 5.61096373,4.95083938 C5.61096373,4.57032124 5.48095337,4.25005181 5.22093264,3.99003109 C4.96091192,3.73001036 4.60893264,3.6 4.16499482,3.6 C3.72105699,3.6 3.36590674,3.73001036 3.09954404,3.99003109 C2.83318135,4.25005181 2.7,4.57032124 2.7,4.95083938 C2.7,5.31867358 2.82683938,5.63577202 3.08051813,5.90213472 C3.33419689,6.16849741 3.68300518,6.30167876 4.12694301,6.30167876 L4.14596891,6.30167876 C4.60259067,6.30167876 4.9640829,6.16849741 5.2304456,5.90213472 Z M5.28752332,7.2 L2.7,7.2 L2.7,15.0196788 L5.28752332,15.0196788 L5.28752332,7.2 Z M17.7130881,0.123668394 C17.8018135,0.20611399 17.8463005,0.310756477 17.8463005,0.437595855 L17.8463005,17.560943 C17.8463005,17.6877824 17.8017824,17.7923316 17.7130881,17.8748705 C17.6243316,17.9573161 17.516487,17.9985078 17.3896477,17.9985078 L0.456621762,17.9985078 C0.329782383,17.9985078 0.221968912,17.9574093 0.133181347,17.8748705 C0.0443937824,17.7923316 0,17.6877824 0,17.560943 L0,0.437595855 C0,0.310756477 0.0443937824,0.20611399 0.133181347,0.123668394 C0.221968912,0.0412227979 0.329782383,0 0.456621762,0 L17.3896477,0 C17.516487,0 17.6243316,0.0412227979 17.7130881,0.123668394 Z"></path>
</svg>
