<?xml version="1.0" encoding="UTF-8"?>
<svg width="270px" height="163px" viewBox="0 0 270 163" version="1.1" xmlns="http://www.w3.org/2000/svg" xmlns:xlink="http://www.w3.org/1999/xlink">
    <path d="M228.069297,89.0441858 C237.051374,91.2117912 269.669785,97.5865727 269.669785,122.427555 C269.669785,158.018962 205.692699,162.987607 183.471041,162.987607 L141.396749,162.987607 C123.868226,162.987607 105.223681,157.55624 94.1891995,152.437097 L93.2640456,161.43996 C92.9519184,162.684367 92.0222735,162.987607 90.9197236,162.987607 L38.1320591,162.987607 C37.0452278,162.987607 36.5759143,162.365404 36.5759143,161.11875 L36.5759143,129.42454 C36.5759143,128.658578 37.0452278,127.573652 38.2780178,127.573652 L93.7176404,127.573652 C94.9706401,127.573652 95.7430987,128.177886 96.0552259,129.271797 C99.1562879,139.530299 124.310594,140.161487 126.019434,140.161487 L182.087802,140.161487 C183.798887,140.161487 193.122283,139.218074 193.122283,134.089946 C193.122283,128.177886 184.429878,126.490973 182.244988,126.490973 L137.211101,126.160778 C125.253712,126.160778 89.3725609,122.427555 75.0933045,118.400077 C49.6089075,111.095359 37.3551095,96.8138719 37.3551095,85.7916546 C37.3551095,84.3675491 37.4808585,83.0085841 37.7570574,81.7102671 L118.274638,81.7102671 C124.256701,83.8958422 133.865278,83.7633151 137.976823,83.7633151 L167.646868,84.0665552 C183.019692,84.0665552 218.739165,87.0270774 228.069297,89.0441858 Z M259.984637,0.0429823028 C263.71669,0.0429823028 265.737657,1.12790811 265.737657,5.47210379 L265.737657,47.7280547 C265.737657,49.2757025 265.737657,51.6140208 263.400071,51.6140208 L211.380374,51.6140208 C209.036052,51.6140208 207.953712,51.9239997 207.953712,50.0663731 L207.953712,27.8444869 L118.029652,27.8444869 L118.029652,45.5604493 L167.73871,45.5604493 C169.761922,45.5604493 170.837526,46.6453751 170.837526,48.9657237 L170.837526,69.9432022 C170.837526,71.0258818 169.119704,72.6993181 167.73871,72.6993181 L38.2014456,72.7599661 L38.2014456,28.7699309 L4.66012592,28.7699309 C3.11745425,28.7699309 0.000673655749,28.7699309 0.000673655749,26.9123043 L0.000673655749,3.14501655 C0.000673655749,0.808944415 2.3382591,0.0429823028 4.97000756,0.0429823028 L259.984637,0.0429823028 Z"></path>
</svg>
