<?xml version="1.0" encoding="UTF-8"?>
<svg width="7px" height="13px" viewBox="0 0 7 13" version="1.1" xmlns="http://www.w3.org/2000/svg" xmlns:xlink="http://www.w3.org/1999/xlink">
    <path d="M1,0 C1.55228475,-1.01453063e-16 2,0.44771525 2,1 L2,12 C2,12.5522847 1.55228475,13 1,13 C0.44771525,13 6.76353751e-17,12.5522847 0,12 L0,1 C-6.76353751e-17,0.44771525 0.44771525,1.01453063e-16 1,0 Z"></path>
    <path d="M6,0 C6.55228475,-1.01453063e-16 7,0.44771525 7,1 L7,12 C7,12.5522847 6.55228475,13 6,13 C5.44771525,13 5,12.5522847 5,12 L5,1 C5,0.44771525 5.44771525,1.01453063e-16 6,0 Z"></path>
</svg>
