<?xml version="1.0" encoding="UTF-8"?>
<svg width="14px" height="14px" viewBox="0 0 14 14" version="1.1" xmlns="http://www.w3.org/2000/svg" xmlns:xlink="http://www.w3.org/1999/xlink">
    <path d="M14,1.66939693 C14,1.70357266 14,1.73774839 13.9863297,1.78559441 C13.1866176,8.14911517 8.13544488,13.1866176 1.78559441,13.9863297 C1.73774839,14 1.70357266,14 1.66939693,14 C1.6352212,14 1.58737518,14 1.5600346,13.9863297 C1.47801285,13.952154 1.43016683,13.8838025 1.3959911,13.8222862 L0.0152916401,10.3568673 C-0.0325543807,10.2064941 0.0357970776,10.0492857 0.165664848,9.98093425 L3.98651136,8.06709342 C4.10270884,8.00557711 4.23257661,8.03975284 4.32826866,8.12177459 L6.18742832,10.0014397 C7.73217128,9.04451928 9.02401384,7.73217128 9.98093425,6.18742832 L8.12177459,4.32826866 C8.03975284,4.23257661 8.00557711,4.10270884 8.06709342,3.98651136 L9.98093425,0.165664848 C10.0492857,0.0357970776 10.2064941,-0.0325543807 10.3568673,0.0152916401 L13.8222862,1.3959911 C13.8838025,1.43016683 13.952154,1.49168314 13.9658243,1.5600346 C13.9863297,1.58737518 14,1.6352212 14,1.66939693 Z"></path>
</svg>
