<?xml version="1.0" encoding="UTF-8"?>
<svg width="11px" height="16px" viewBox="0 0 11 16" version="1.1" xmlns="http://www.w3.org/2000/svg" xmlns:xlink="http://www.w3.org/1999/xlink">
    <path d="M10.7397865,3.97477988 C10.6829513,3.76172921 10.567536,3.53471775 10.4821531,3.33596205 C9.46045476,0.880124261 7.22806497,0 5.42552204,0 C3.01249188,0 0.354821346,1.61833851 0,4.95411491 L0,5.63563199 C0,5.6640734 0.00980046404,5.9195634 0.0237215777,6.0473641 C0.22262645,7.63711268 1.47682599,9.3266661 2.41351276,10.9164147 C3.4212529,12.619669 4.46693271,14.2951874 5.50292343,15.9700003 C6.1417355,14.8770481 6.77824594,13.7697267 7.4025058,12.7050675 C7.57264037,12.3926204 7.77013457,12.080359 7.94045476,11.7821326 C8.0539768,11.5835625 8.27084919,11.3849925 8.36993039,11.2002347 C9.37763341,9.35492186 10.9996473,7.49535118 10.9996473,5.66403627 L10.9996473,4.9117127 C10.9996845,4.71317978 10.7536334,4.01759051 10.7397865,3.97477988 Z M5.46969838,7.3959919 C4.76038979,7.3959919 3.984,7.041254 3.60077958,6.0615848 C3.54368445,5.90563973 3.5482877,5.59311839 3.5482877,5.56449133 L3.5482877,5.1244292 C3.5482877,3.87553198 4.60851972,3.3075949 5.53087703,3.3075949 C6.66639443,3.3075949 7.54461253,4.21623483 7.54461253,5.35196048 C7.54461253,6.48764901 6.60521578,7.3959919 5.46969838,7.3959919 Z"></path>
</svg>
