<?xml version="1.0" encoding="UTF-8"?>
<svg width="18px" height="15px" viewBox="0 0 18 15" version="1.1" xmlns="http://www.w3.org/2000/svg" xmlns:xlink="http://www.w3.org/1999/xlink">
    <path d="M18,1.72991459 C17.3374989,2.02347389 16.6266448,2.22256246 15.8797612,2.31144495 C16.6423801,1.85476774 17.2261458,1.13041361 17.5028227,0.269941618 C16.7874686,0.692854073 15.9978497,0.99994281 15.1564954,1.16641367 C14.482759,0.447677202 13.5244339,0 12.461491,0 C10.4222523,0 8.76880845,1.65344388 8.76880845,3.69156486 C8.76880845,3.98062415 8.80142615,4.26294814 8.86442625,4.53291917 C5.79600947,4.37880127 3.07515208,2.90871064 1.2541197,0.674854044 C0.935795647,1.2192667 0.754707116,1.85362068 0.754707116,2.53076884 C0.754707116,3.81191799 1.40709053,4.94233161 2.39691568,5.60368563 C1.79176763,5.5834503 1.22261964,5.41697944 0.724354125,5.14027311 L0.724354125,5.18639083 C0.724354125,6.97480551 1.99762091,8.46739619 3.68591779,8.80710263 C3.37659375,8.89033806 3.05041675,8.93645578 2.71297502,8.93645578 C2.47453346,8.93645578 2.24394484,8.91283809 2.01785624,8.86783802 C2.48800407,10.3356934 3.851271,11.4031069 5.46647952,11.4323716 C4.2033304,12.4221968 2.61062191,13.0104624 0.880707321,13.0104624 C0.582648011,13.0104624 0.289059296,12.9924624 0,12.9598447 C1.6343262,14.0092876 3.57459408,14.6211709 5.65995042,14.6211709 C12.4525498,14.6211709 16.165497,8.99495587 16.165497,4.11562437 L16.1531146,3.63759418 C16.8785864,3.12015216 17.5062051,2.47003345 18,1.72991459 Z"></path>
</svg>
