<?xml version="1.0" encoding="UTF-8"?>
<svg width="30px" height="30px" viewBox="0 0 30 30" version="1.1" xmlns="http://www.w3.org/2000/svg" xmlns:xlink="http://www.w3.org/1999/xlink">
    <path d="M15,0 C6.729,0 0,6.729 0,15 C0,23.271 6.729,30 15,30 C23.271,30 30,23.271 30,15 C30,6.729 23.271,0 15,0 Z M22.7815,15.413 L11.7815,22.913 C11.697,22.9705 11.5985,23 11.5,23 C11.42,23 11.3395,22.981 11.2665,22.942 C11.1025,22.8555 11,22.6855 11,22.5 L11,7.5 C11,7.3145 11.1025,7.1445 11.2665,7.058 C11.4305,6.971 11.6285,6.983 11.782,7.087 L22.782,14.587 C22.918,14.68 23,14.8345 23,15 C23,15.1655 22.918,15.32 22.7815,15.413 Z"></path>
</svg>
