<?xml version="1.0" encoding="UTF-8"?>
<svg width="19px" height="18px" viewBox="0 0 19 18" version="1.1" xmlns="http://www.w3.org/2000/svg" xmlns:xlink="http://www.w3.org/1999/xlink">
    <path d="M0.986072539,0 L18.9860725,0 L18.9860725,18 L0.986072539,18 L0.986072539,0 Z M2.94678182,6.20434423 L3.64295566,7.09199945 C3.64295566,7.09199945 4.5131927,6.41320428 4.82648278,6.41320428 C5.02108442,6.41320428 5.43564476,6.6394825 5.69671983,7.4226682 C5.95779489,8.20589339 7.05703545,12.2657884 7.12390385,12.4526486 C7.4243574,13.2923545 7.82007769,14.8544997 9.03844115,15.0807779 C10.2568046,15.3070561 11.8057973,14.071314 12.6586162,13.1662406 C13.5114351,12.2612067 16.8705746,8.39733527 17.0098014,6.08249603 C17.1385616,3.94211498 16.4364237,3.4454799 16.1221462,3.24550667 C15.5477811,2.88000158 14.5905322,2.75819288 13.6854983,3.07144346 C12.7804644,3.38469404 11.4054954,4.41161562 11.0399903,6.23910158 C11.0399903,6.23910158 12.2757324,5.78658463 12.7282494,6.22168341 C13.1807663,6.65678218 13.0589576,7.61407058 12.6760344,8.32766259 C12.2931111,9.0412546 11.2140535,10.6947168 10.8137121,10.7469319 C10.4134102,10.7991469 10.1001201,10.0159217 10.0479051,9.80706162 C9.99569005,9.59820157 9.33431306,6.72641536 9.09065616,5.05557445 C8.84699927,3.38473354 7.78532034,3.1062403 7.28054889,3.1062403 C6.77581693,3.1062798 5.90557988,3.48920306 2.94678182,6.20434423 Z"></path>
</svg>
