<?xml version="1.0" encoding="UTF-8"?>
<svg width="21px" height="15px" viewBox="0 0 21 15" version="1.1" xmlns="http://www.w3.org/2000/svg" xmlns:xlink="http://www.w3.org/1999/xlink">
    <path d="M19.9445725,2.11175 C19.4074975,1.1564 18.824635,0.980675 17.6378725,0.91385 C16.4523475,0.8334125 13.47121,0.8 10.8885475,0.8 C8.30093504,0.8 5.31856004,0.8334125 4.13427254,0.9126125 C2.94998504,0.980675 2.36588504,1.1551625 1.82386004,2.11175 C1.27069754,3.0658625 0.986072539,4.7092625 0.986072539,7.6025375 C0.986072539,7.6050125 0.986072539,7.60625 0.986072539,7.60625 C0.986072539,7.608725 0.986072539,7.6099625 0.986072539,7.6099625 L0.986072539,7.6124375 C0.986072539,10.4933375 1.27069754,12.1491125 1.82386004,13.093325 C2.36588504,14.048675 2.94874754,14.221925 4.13303504,14.3023625 C5.31856004,14.3716625 8.30093504,14.4125 10.8885475,14.4125 C13.47121,14.4125 16.4523475,14.3716625 17.63911,14.3036 C18.8258725,14.2231625 19.408735,14.0499125 19.94581,13.0945625 C20.5039225,12.15035 20.7860725,10.494575 20.7860725,7.613675 C20.7860725,7.613675 20.7860725,7.6099625 20.7860725,7.6074875 C20.7860725,7.6074875 20.7860725,7.6050125 20.7860725,7.603775 C20.7860725,4.7092625 20.5039225,3.0658625 19.9445725,2.11175 Z M8.41107254,11.31875 L8.41107254,3.89375 L14.5985725,7.60625 L8.41107254,11.31875 Z"></path>
</svg>
