<?xml version="1.0" encoding="UTF-8"?>
<svg width="10px" height="16px" viewBox="0 0 10 16" version="1.1" xmlns="http://www.w3.org/2000/svg" xmlns:xlink="http://www.w3.org/1999/xlink">
    <!-- Generator: Sketch 40 (33762) - http://www.bohemiancoding.com/sketch -->
    <title>next</title>
    <desc>Created with Sketch.</desc>
    <defs></defs>
    <g id="Page-1" stroke="none" stroke-width="1" fill="none" fill-rule="evenodd">
        <g id="icons" transform="translate(-98.000000, 0.000000)" fill="#FF5C5A">
            <path d="M98.4042179,0 C98.3198594,0 98.2495606,0.0390482001 98.1862917,0.0937156803 L96.0843585,2.42879805 C95.9718805,2.55375229 95.9718805,2.78023185 96.0843585,2.90518609 L100.667838,7.99707138 L96.0843585,13.0889567 C95.9718805,13.2139109 95.9718805,13.4403905 96.0843585,13.5653447 L98.1862917,15.9004271 C98.2987698,16.033191 98.5026362,16.033191 98.6151142,15.9004271 L105.518453,8.23917023 C105.630931,8.10640635 105.630931,7.88773642 105.518453,7.75497254 L98.6151142,0.0937156803 C98.5518453,0.0390482001 98.4885764,0 98.4042179,0 L98.4042179,0 Z" id="next" transform="translate(102.000000, 8.000000) scale(-1, 1) translate(-102.000000, -8.000000) "></path>
        </g>
    </g>
</svg>