<?xml version="1.0" encoding="UTF-8"?>
<svg width="10px" height="16px" viewBox="0 0 10 16" version="1.1" xmlns="http://www.w3.org/2000/svg" xmlns:xlink="http://www.w3.org/1999/xlink">
    <!-- Generator: Sketch 40 (33762) - http://www.bohemiancoding.com/sketch -->
    <title>next</title>
    <desc>Created with Sketch.</desc>
    <defs></defs>
    <g id="Page-1" stroke="none" stroke-width="1" fill="none" fill-rule="evenodd">
        <g id="icons" transform="translate(-114.000000, 0.000000)" fill="#FFFFFF">
            <path d="M114.404218,0 C114.319859,0 114.249561,0.0390482001 114.186292,0.0937156803 L112.084359,2.42879805 C111.97188,2.55375229 111.97188,2.78023185 112.084359,2.90518609 L116.667838,7.99707138 L112.084359,13.0889567 C111.97188,13.2139109 111.97188,13.4403905 112.084359,13.5653447 L114.186292,15.9004271 C114.29877,16.033191 114.502636,16.033191 114.615114,15.9004271 L121.518453,8.23917023 C121.630931,8.10640635 121.630931,7.88773642 121.518453,7.75497254 L114.615114,0.0937156803 C114.551845,0.0390482001 114.488576,0 114.404218,0 L114.404218,0 Z" id="next" transform="translate(118.000000, 8.000000) scale(-1, 1) translate(-118.000000, -8.000000) "></path>
        </g>
    </g>
</svg>