<?xml version="1.0" encoding="UTF-8"?>
<svg width="14px" height="12px" viewBox="0 0 14 12" version="1.1" xmlns="http://www.w3.org/2000/svg" xmlns:xlink="http://www.w3.org/1999/xlink">
    <!-- Generator: Sketch 40 (33762) - http://www.bohemiancoding.com/sketch -->
    <title>Arrow Copy</title>
    <desc>Created with Sketch.</desc>
    <defs></defs>
    <g id="Page-1" stroke="none" stroke-width="1" fill="none" fill-rule="evenodd">
        <g id="icons" transform="translate(-145.000000, -2.000000)" fill="#FFFFFF">
            <path d="M156.151602,8.86472014 C156.111593,8.86962029 156.070915,8.87214299 156.029721,8.87214299 L146.005408,8.87214299 C145.450136,8.87214299 145,8.43328385 145,7.87382927 L145,7.80109147 C145,7.24973803 145.457095,6.80277775 146.005408,6.80277775 L155.8191,6.80277775 L152.632614,3.61629272 C152.283881,3.26755955 152.280518,2.70551489 152.630514,2.35551844 C152.978087,2.0079452 153.538515,2.00484526 153.891289,2.35761869 L158.743964,7.21029417 C158.95926,7.4255905 159.042922,7.72218878 158.993068,8 C159.042922,8.27781122 158.95926,8.5744095 158.743964,8.78970583 L153.891289,13.6423813 C153.538515,13.9951547 152.978087,13.9920548 152.630514,13.6444816 C152.280518,13.2944851 152.283881,12.7324405 152.632614,12.3837073 L156.151602,8.86472014 Z" id="Arrow-Copy"></path>
        </g>
    </g>
</svg>