<?xml version="1.0" encoding="UTF-8"?>
<svg width="14px" height="12px" viewBox="0 0 14 12" version="1.1" xmlns="http://www.w3.org/2000/svg" xmlns:xlink="http://www.w3.org/1999/xlink">
    <!-- Generator: Sketch 40 (33762) - http://www.bohemiancoding.com/sketch -->
    <title>Arrow Copy</title>
    <desc>Created with Sketch.</desc>
    <defs></defs>
    <g id="Page-1" stroke="none" stroke-width="1" fill="none" fill-rule="evenodd">
        <g id="icons" transform="translate(-176.000000, -2.000000)" fill="#833D49">
            <path d="M187.151602,8.86472014 C187.111593,8.86962029 187.070915,8.87214299 187.029721,8.87214299 L177.005408,8.87214299 C176.450136,8.87214299 176,8.43328385 176,7.87382927 L176,7.80109147 C176,7.24973803 176.457095,6.80277775 177.005408,6.80277775 L186.8191,6.80277775 L183.632614,3.61629272 C183.283881,3.26755955 183.280518,2.70551489 183.630514,2.35551844 C183.978087,2.0079452 184.538515,2.00484526 184.891289,2.35761869 L189.743964,7.21029417 C189.95926,7.4255905 190.042922,7.72218878 189.993068,8 C190.042922,8.27781122 189.95926,8.5744095 189.743964,8.78970583 L184.891289,13.6423813 C184.538515,13.9951547 183.978087,13.9920548 183.630514,13.6444816 C183.280518,13.2944851 183.283881,12.7324405 183.632614,12.3837073 L187.151602,8.86472014 Z" id="Arrow-Copy"></path>
        </g>
    </g>
</svg>