<?xml version="1.0" encoding="UTF-8"?>
<svg width="14px" height="12px" viewBox="0 0 14 12" version="1.1" xmlns="http://www.w3.org/2000/svg" xmlns:xlink="http://www.w3.org/1999/xlink">
    <!-- Generator: Sketch 40 (33762) - http://www.bohemiancoding.com/sketch -->
    <title>Arrow Copy</title>
    <desc>Created with Sketch.</desc>
    <defs></defs>
    <g id="Page-1" stroke="none" stroke-width="1" fill="none" fill-rule="evenodd">
        <g id="icons" transform="translate(-160.000000, -2.000000)" fill="#FF5C5A">
            <path d="M171.151602,8.86472014 C171.111593,8.86962029 171.070915,8.87214299 171.029721,8.87214299 L161.005408,8.87214299 C160.450136,8.87214299 160,8.43328385 160,7.87382927 L160,7.80109147 C160,7.24973803 160.457095,6.80277775 161.005408,6.80277775 L170.8191,6.80277775 L167.632614,3.61629272 C167.283881,3.26755955 167.280518,2.70551489 167.630514,2.35551844 C167.978087,2.0079452 168.538515,2.00484526 168.891289,2.35761869 L173.743964,7.21029417 C173.95926,7.4255905 174.042922,7.72218878 173.993068,8 C174.042922,8.27781122 173.95926,8.5744095 173.743964,8.78970583 L168.891289,13.6423813 C168.538515,13.9951547 167.978087,13.9920548 167.630514,13.6444816 C167.280518,13.2944851 167.283881,12.7324405 167.632614,12.3837073 L171.151602,8.86472014 Z" id="Arrow-Copy"></path>
        </g>
    </g>
</svg>