<?xml version="1.0" encoding="UTF-8" standalone="no"?>
<svg width="270px" height="163px" viewBox="0 0 270 163" version="1.1" xmlns="http://www.w3.org/2000/svg" xmlns:xlink="http://www.w3.org/1999/xlink">
    <!-- Generator: Sketch 39.1 (31720) - http://www.bohemiancoding.com/sketch -->
    <title>Group 3 + Fill 4</title>
    <desc>Created with Sketch.</desc>
    <defs>
        <polyline id="path-1" points="0 0.0418591912 269.671133 0.0418591912 269.671133 162.987383 0 162.987383"></polyline>
    </defs>
    <g id="Page-1" fill="" fill-rule="evenodd">
        <g id="FS-Mark-Fastspot-Red-320x320" transform="translate(-25.000000, -78.000000)">
            <g id="Group-3-+-Fill-4" transform="translate(25.000000, 78.000000)">
                <g id="Group-3" transform="translate(0.000000, 0.000000)">
                    <mask id="mask-2" fill="white">
                        <use xlink:href="#path-1"></use>
                    </mask>
                    <g id="Clip-2"></g>
                    <path d="M228.069297,89.0441858 C218.739165,87.0270774 183.019692,84.0665552 167.646868,84.0665552 L137.976823,83.7633151 C133.865278,83.7633151 124.256701,83.8958422 118.274638,81.7102671 L37.7570574,81.7102671 C37.4808585,83.0085841 37.3551095,84.3675491 37.3551095,85.7916546 C37.3551095,96.8138719 49.6089075,111.095359 75.0933045,118.400077 C89.3725609,122.427555 125.253712,126.160778 137.211101,126.160778 L182.244988,126.490973 C184.429878,126.490973 193.122283,128.177886 193.122283,134.089946 C193.122283,139.218074 183.798887,140.161487 182.087802,140.161487 L126.019434,140.161487 C124.310594,140.161487 99.1562879,139.530299 96.0552259,129.271797 C95.7430987,128.177886 94.9706401,127.573652 93.7176404,127.573652 L38.2780178,127.573652 C37.0452278,127.573652 36.5759143,128.658578 36.5759143,129.42454 L36.5759143,161.11875 C36.5759143,162.365404 37.0452278,162.987607 38.1320591,162.987607 L90.9197236,162.987607 C92.0222735,162.987607 92.9519184,162.684367 93.2640456,161.43996 L94.1891995,152.437097 C105.223681,157.55624 123.868226,162.987607 141.396749,162.987607 L183.471041,162.987607 C205.692699,162.987607 269.669785,158.018962 269.669785,122.427555 C269.669785,97.5865727 237.051374,91.2117912 228.069297,89.0441858" id="Fill-1" fill="" mask="url(#mask-2)"></path>
                </g>
                <path d="M259.984637,0.0429823028 L4.97000756,0.0429823028 C2.3382591,0.0429823028 0.000673655749,0.808944415 0.000673655749,3.14501655 L0.000673655749,26.9123043 C0.000673655749,28.7699309 3.11745425,28.7699309 4.66012592,28.7699309 L38.2014456,28.7699309 L38.2014456,72.7599661 L167.73871,72.6993181 C169.119704,72.6993181 170.837526,71.0258818 170.837526,69.9432022 L170.837526,48.9657237 C170.837526,46.6453751 169.761922,45.5604493 167.73871,45.5604493 L118.029652,45.5604493 L118.029652,27.8444869 L207.953712,27.8444869 L207.953712,50.0663731 C207.953712,51.9239997 209.036052,51.6140208 211.380374,51.6140208 L263.400071,51.6140208 C265.737657,51.6140208 265.737657,49.2757025 265.737657,47.7280547 L265.737657,5.47210379 C265.737657,1.12790811 263.71669,0.0429823028 259.984637,0.0429823028" id="Fill-4" fill=""></path>
            </g>
        </g>
    </g>
</svg>
