<?xml version="1.0" encoding="UTF-8"?>
<svg width="14px" height="10px" viewBox="0 0 14 10" version="1.1" xmlns="http://www.w3.org/2000/svg" xmlns:xlink="http://www.w3.org/1999/xlink">
    <!-- Generator: Sketch 40 (33762) - http://www.bohemiancoding.com/sketch -->
    <title>photo</title>
    <desc>Created with Sketch.</desc>
    <defs></defs>
    <g id="Page-1" stroke="none" stroke-width="1" fill="none" fill-rule="evenodd">
        <g id="icons" transform="translate(-33.000000, -3.000000)" fill="#FF5C5A">
            <path d="M46.125,3 L33.875,3 C33.3896484,3 33,3.37109375 33,3.83333333 L33,12.1666667 C33,12.6289062 33.3896484,13 33.875,13 L46.125,13 C46.6103516,13 47,12.6289062 47,12.1666667 L47,3.83333333 C47,3.37109375 46.6103516,3 46.125,3 L46.125,3 Z M36.7692308,5 C37.6694712,5 38.3846154,5.6640625 38.3846154,6.5 C38.3846154,7.3359375 37.6694712,8 36.7692308,8 C35.8689904,8 35.1538462,7.3359375 35.1538462,6.5 C35.1538462,5.6640625 35.8689904,5 36.7692308,5 L36.7692308,5 Z M45.9230769,12 L35.1538462,12 L36.9487179,9.5 L39.0450721,10.8867188 L42.3333333,7 L45.9230769,12 Z" id="photo"></path>
        </g>
    </g>
</svg>