<?xml version="1.0" encoding="UTF-8"?>
<svg width="16px" height="16px" viewBox="0 0 16 16" version="1.1" xmlns="http://www.w3.org/2000/svg" xmlns:xlink="http://www.w3.org/1999/xlink">
    <!-- Generator: Sketch 40 (33762) - http://www.bohemiancoding.com/sketch -->
    <title>search</title>
    <desc>Created with Sketch.</desc>
    <defs></defs>
    <g id="Page-1" stroke="none" stroke-width="1" fill="none" fill-rule="evenodd">
        <g id="icons" transform="translate(-16.000000, 0.000000)" fill="#FFFFFF">
            <path d="M26.0019531,0 C22.6894531,0 20.0019531,2.6875 20.0019531,6 C20.0019531,7.1875 20.3378906,8.28125 20.9316406,9.203125 L16.3925781,13.71875 C15.8691406,14.2421875 15.8691406,15.09375 16.3925781,15.609375 C16.6503906,15.8671875 16.9863281,16 17.3378906,16 C17.6660156,16 18.0175781,15.8671875 18.2832031,15.609375 L22.7988281,11.0703125 C23.7207031,11.6640625 24.8144531,12 26.0019531,12 C29.3144531,12 32.0019531,9.3125 32.0019531,6 C32.0019531,2.6875 29.3144531,0 26.0019531,0 L26.0019531,0 Z M26.0019531,10 C23.7988281,10 22.0019531,8.203125 22.0019531,6 C22.0019531,3.796875 23.7988281,2 26.0019531,2 C28.2050781,2 30.0019531,3.796875 30.0019531,6 C30.0019531,8.203125 28.2050781,10 26.0019531,10 L26.0019531,10 Z" id="search"></path>
        </g>
    </g>
</svg>