<?xml version="1.0" encoding="UTF-8"?>
<svg width="123px" height="95px" viewBox="0 0 123 95" version="1.1" xmlns="http://www.w3.org/2000/svg" xmlns:xlink="http://www.w3.org/1999/xlink">
    <!-- Generator: Sketch 48.1 (47250) - http://www.bohemiancoding.com/sketch -->
    <title>flaticon1513113173-svg</title>
    <desc>Created with Sketch.</desc>
    <defs></defs>
    <g id="Getting-Started" stroke="none" stroke-width="1" fill="none" fill-rule="evenodd" transform="translate(-141.000000, -565.000000)">
        <g id="flaticon1513113173-svg" transform="translate(141.000000, 565.000000)" fill-rule="nonzero">
            <path d="M123,10.900554 C123,9.04989537 122.275692,7.31013761 120.960406,6.00179387 L118.225092,3.27994177 C116.909806,1.97135903 115.160897,1.25074223 113.300758,1.25074223 C111.44062,1.25074223 109.691951,1.97135903 108.376425,3.27994177 L95.4871045,16.1035746 L95.4871045,2.4376686 C95.4871045,1.09156121 94.3899519,3.92346085e-08 93.0369493,3.92346085e-08 L2.45015518,3.92346085e-08 C1.0969123,-0.000238971312 0,1.09156121 0,2.4376686 L0,92.5623314 C0,93.9084388 1.0969123,95 2.45015518,95 L93.0367091,95 C94.3897117,95 95.4868642,93.9084388 95.4868642,92.5623314 L95.4859033,41.1449486 L120.960406,15.8000312 C122.275692,14.4914485 123,12.7512127 123,10.900554 Z M90.5865539,90.1244239 L4.90031035,90.1244239 L4.90031035,4.87557618 L90.5865539,4.87557618 L90.5863136,20.9791508 L45.7279819,65.6088731 C45.4589189,65.8765649 45.2564009,66.2030533 45.1360432,66.5618081 L40.5763859,80.1708296 C40.2828189,81.0468033 40.512003,82.0126449 41.1683245,82.6653827 C41.6353411,83.1300192 42.2616333,83.3793072 42.9013787,83.3793072 C43.1605921,83.3793072 43.4219676,83.3384364 43.6758959,83.2543047 L57.3546276,78.7181235 C57.7154604,78.5983793 58.0433809,78.3968934 58.312444,78.1292016 L90.5865539,46.0195687 L90.5865539,90.1244239 Z M55.255936,74.2749175 L46.7746851,77.0873546 L49.6017688,68.6493263 L101.627747,16.8884853 L107.281915,22.5138375 L55.255936,74.2749175 Z M117.495259,12.3523041 L110.747062,19.0663494 L107.919978,16.2536732 L105.093135,13.4409971 L111.841572,6.72695187 C112.231473,6.33903775 112.749419,6.12560134 113.300758,6.12560134 C113.852097,6.12560134 114.370044,6.33903775 114.759945,6.72671286 L117.495499,9.44856497 C117.495499,9.44880398 117.495499,9.44880398 117.495739,9.44880398 C117.8854,9.83671809 118.09993,10.3520248 118.09993,10.900315 C118.09993,11.4490832 117.88516,11.964629 117.495259,12.3523041 Z" id="Shape" fill="#000000"></path>
            <path d="M75.6298718,16 L73.3701281,16 C72.0613173,16 71,17.1194725 71,18.5 C71,19.8805275 72.0610849,21 73.3701281,21 L75.6298718,21 C76.9386827,21 78,19.8805275 78,18.5 C78.0002324,17.1197176 76.9386827,16 75.6298718,16 Z" id="Shape" fill="#DA2315"></path>
            <path d="M64.5270929,16 L19.4726647,16 C18.1069896,16 17,17.1194725 17,18.5 C17,19.8805275 18.1069896,21 19.4726647,21 L64.5273353,21 C65.892768,21 67,19.8805275 67,18.5 C66.9997576,17.1197176 65.8925255,16 64.5270929,16 Z" id="Shape" fill="#DA2315"></path>
            <path d="M61.5604419,30 L19.4393189,30 C18.092061,30 17,31.1194725 17,32.5 C17,33.8805275 18.092061,35 19.4393189,35 L61.5606811,35 C62.9076998,35 64,33.8805275 64,32.5 C64,31.1194725 62.9074607,30 61.5604419,30 Z" id="Shape" fill="#DA2315"></path>
            <path d="M45.6183482,43 L19.3814183,43 C18.0661394,43 17,44.1194725 17,45.5 C17,46.8805275 18.0661394,48 19.3814183,48 L45.6185817,48 C46.9338606,48 48,46.8805275 48,45.5 C48,44.1194725 46.9336271,43 45.6183482,43 Z" id="Shape" fill="#DA2315"></path>
            <path d="M34.5760601,57 L19.4241776,57 C18.0852824,57 17,58.1194725 17,59.5 C17,60.8805275 18.0852824,62 19.4241776,62 L34.5758224,62 C35.9147176,62 37,60.8805275 37,59.5 C37,58.1194725 35.9149553,57 34.5760601,57 Z" id="Shape" fill="#DA2315"></path>
        </g>
    </g>
</svg>