<svg width="31" height="43" viewBox="0 0 31 43" xmlns="http://www.w3.org/2000/svg" xmlns:xlink="http://www.w3.org/1999/xlink"><title>Group 3 Copy 14</title><defs><path d="M20.956 3.516a11.927 11.927 0 0 0-16.912 0C-.164 7.74-.637 15.693 2.934 20.472L12.5 34.34l9.566-13.868c3.572-4.78 3.098-12.732-1.11-16.956zm-8.34 12.333a3.955 3.955 0 0 1-3.947-3.962 3.955 3.955 0 0 1 3.947-3.962 3.955 3.955 0 0 1 3.948 3.962 3.955 3.955 0 0 1-3.948 3.962z" id="b"/><filter x="-50%" y="-50%" width="200%" height="200%" filterUnits="objectBoundingBox" id="a"><feMorphology radius="1.5" operator="dilate" in="SourceAlpha" result="shadowSpreadOuter1"/><feOffset in="shadowSpreadOuter1" result="shadowOffsetOuter1"/><feColorMatrix values="0 0 0 0 1 0 0 0 0 1 0 0 0 0 1 0 0 0 1 0" in="shadowOffsetOuter1"/></filter></defs><g transform="translate(3 3)" fill="none" fill-rule="evenodd"><ellipse fill="#FFF" cx="12.829" cy="11.557" rx="6.25" ry="6.274"/><g fill-rule="nonzero"><use fill="#000" filter="url(#a)" xlink:href="#b"/><use fill="#DA1A32" fill-rule="evenodd" xlink:href="#b"/></g></g></svg>