<?xml version="1.0" encoding="UTF-8"?>
<svg width="160px" height="105px" viewBox="0 0 160 105" version="1.1" xmlns="http://www.w3.org/2000/svg" xmlns:xlink="http://www.w3.org/1999/xlink">
		<!-- Generator: Sketch 45.2 (43514) - http://www.bohemiancoding.com/sketch -->
		<title>Aa</title>
		<desc>Created with Sketch.</desc>
		<defs></defs>
		<g id="Style-Guide-Typography" stroke="none" stroke-width="1" fill="none" fill-rule="evenodd">
				<g id="Getting-Started" transform="translate(-536.000000, -874.000000)" fill="#000000">
						<g id="Group-2" transform="translate(-103.000000, -92.000000)">
								<path d="M710.65,1053.6 L704.05,1033.2 C703,1029.9 702.4,1029.45 697.9,1029.45 L675.25,1029.45 C671.5,1029.45 670.6,1029.9 669.55,1033.05 L664.3,1048.8 C662.05,1055.55 661,1059.6 661,1061.25 C661,1063.05 661.75,1063.95 665.35,1064.25 L670.3,1064.7 C671.35,1065.45 671.35,1067.85 670,1068.45 C666.1,1068.15 661.45,1068.15 654.4,1068 C649.45,1068 644.05,1068.3 640,1068.45 C639.1,1067.85 638.8,1065.45 639.7,1064.7 L644.65,1064.25 C648.25,1063.95 651.55,1062.3 653.65,1056.9 C656.35,1050 660.55,1040.25 666.85,1023.45 L682.15,982.95 C684.25,977.55 685.15,974.7 684.7,972.3 C688.3,971.25 690.85,968.55 692.5,966.6 C693.4,966.6 694.45,966.9 694.75,967.95 C696.7,974.55 699.1,981.45 701.35,988.05 L721.9,1048.35 C726.25,1061.25 728.2,1063.5 734.65,1064.25 L738.7,1064.7 C739.75,1065.45 739.45,1067.85 738.7,1068.45 C732.55,1068.15 727.3,1068 720.55,1068 C713.35,1068 707.65,1068.3 703.3,1068.45 C702.1,1067.85 701.95,1065.45 703,1064.7 L707.35,1064.25 C710.5,1063.95 712.6,1063.05 712.6,1061.55 C712.6,1059.9 711.85,1057.2 710.65,1053.6 Z M683.8,993.75 L674.35,1019.85 C673.15,1023.3 673.3,1023.45 677.5,1023.45 L695.95,1023.45 C700.3,1023.45 700.6,1022.85 699.25,1018.8 L691.15,994.35 C689.95,990.75 688.6,986.7 687.7,984.9 L687.4,984.9 C686.95,985.65 685.45,989.25 683.8,993.75 Z M754.15,1043.4 L772,1036.95 C774.25,1036.2 774.55,1034.85 774.55,1032.6 L774.7,1025.7 C774.85,1020.15 773.05,1012.65 763.75,1012.65 C759.55,1012.65 754.45,1014.75 754.15,1019.4 C754,1021.8 753.85,1023.6 752.65,1024.5 C750.4,1026.3 746.35,1027.35 744.1,1027.35 C742.75,1027.35 742,1026.6 742,1025.25 C742,1017.45 758.95,1006.8 769.9,1006.8 C780.7,1006.8 785.95,1013.1 785.5,1024.35 L784.6,1050.45 C784.3,1057.35 785.65,1063.5 791.5,1063.5 C793,1063.5 794.35,1063.05 795.25,1062.6 C796,1062.15 796.75,1061.55 797.2,1061.55 C797.8,1061.55 798.25,1062.45 798.25,1063.5 C798.25,1064.25 793,1070.1 785.65,1070.1 C782.05,1070.1 778.45,1068.75 775.9,1065.45 C775.3,1064.55 774.4,1063.35 773.5,1063.35 C772.45,1063.35 770.65,1064.7 767.65,1066.35 C764.35,1068.15 761.05,1070.1 756.85,1070.1 C752.5,1070.1 748.9,1068.9 746.35,1066.65 C743.5,1064.1 741.7,1060.35 741.7,1056.15 C741.7,1050.3 744.55,1046.85 754.15,1043.4 Z M753.25,1054.35 C753.25,1056.9 755.05,1063.35 762.7,1063.35 C765.7,1063.35 770.35,1061.1 771.85,1059.6 C773.65,1057.8 773.65,1055.7 773.8,1052.55 L774.1,1043.7 C774.1,1042.05 773.5,1041.75 772.6,1041.75 C771.7,1041.75 769.15,1042.35 766.45,1043.25 C757.6,1046.25 753.25,1048.5 753.25,1054.35 Z" id="Aa"></path>
						</g>
				</g>
		</g>
</svg>