<?xml version="1.0" encoding="UTF-8"?>
<svg width="118px" height="95px" viewBox="0 0 118 95" version="1.1" xmlns="http://www.w3.org/2000/svg" xmlns:xlink="http://www.w3.org/1999/xlink">
    <!-- Generator: Sketch 48.1 (47250) - http://www.bohemiancoding.com/sketch -->
    <title>Group 2</title>
    <desc>Created with Sketch.</desc>
    <defs></defs>
    <g id="Getting-Started" stroke="none" stroke-width="1" fill="none" fill-rule="evenodd" transform="translate(-540.000000, -565.000000)">
        <g id="Group-2" transform="translate(540.000000, 565.000000)">
            <path d="M42.9922056,73.7526415 L40.0532622,64.6686345 C39.585703,63.1991628 39.3185263,62.9987803 37.3147013,62.9987803 L27.2287818,62.9987803 C25.5589276,62.9987803 25.1581626,63.1991628 24.6906034,64.6018404 L22.3528075,71.6152281 C21.350895,74.6209657 20.8833358,76.4244082 20.8833358,77.1591441 C20.8833358,77.9606741 21.2173066,78.3614391 22.8203667,78.4950274 L25.0245742,78.6954099 C25.4921334,79.0293808 25.4921334,80.0980875 24.8909859,80.3652641 C23.1543375,80.2316758 21.0837183,80.2316758 17.9443924,80.1648816 C15.7401848,80.1648816 13.3355947,80.29847 11.5321522,80.3652641 C11.1313872,80.0980875 10.9977988,79.0293808 11.3985639,78.6954099 L13.6027714,78.4950274 C15.2058315,78.3614391 16.6753032,77.6267032 17.6104215,75.2221132 C18.8127166,72.1495814 20.6829533,67.8079605 23.4883084,60.3270136 L30.3013136,42.2925881 C31.2364319,39.887998 31.6371969,38.6189088 31.4368144,37.5502021 C33.0398745,37.0826429 34.1753753,35.8803479 34.9101112,35.0120237 C35.3108762,35.0120237 35.7784354,35.145612 35.9120237,35.6131712 C36.7803479,38.5521146 37.8490546,41.6246464 38.8509671,44.5635898 L48.0017682,71.4148456 C49.9387991,77.1591441 50.8071233,78.1610566 53.6792725,78.4950274 L55.4827151,78.6954099 C55.9502743,79.0293808 55.8166859,80.0980875 55.4827151,80.3652641 C52.7441542,80.2316758 50.4063583,80.1648816 47.4006207,80.1648816 C44.1945006,80.1648816 41.6563222,80.29847 39.7192913,80.3652641 C39.184938,80.0980875 39.1181438,79.0293808 39.585703,78.6954099 L41.5227339,78.4950274 C42.9254114,78.3614391 43.8605298,77.9606741 43.8605298,77.2927324 C43.8605298,76.5579965 43.5265589,75.3557015 42.9922056,73.7526415 Z M31.0360494,47.1017682 L26.8280168,58.7239535 C26.2936634,60.2602194 26.3604576,60.3270136 28.2306943,60.3270136 L36.4463771,60.3270136 C38.3834079,60.3270136 38.5169963,60.0598369 37.9158488,58.2563944 L34.3089637,47.3689449 C33.7746103,45.7658848 33.1734628,43.9624423 32.7726978,43.1609123 L32.6391095,43.1609123 C32.4387269,43.4948831 31.7707853,45.0979432 31.0360494,47.1017682 Z M62.3625145,69.210638 L70.3110205,66.3384888 C71.312933,66.0045179 71.4465214,65.4033704 71.4465214,64.4014579 L71.5133155,61.3289261 C71.5801097,58.8575419 70.7785797,55.5178335 66.6373412,55.5178335 C64.7671045,55.5178335 62.4961028,56.4529518 62.3625145,58.523571 C62.2957203,59.5922777 62.2289261,60.3938078 61.6945728,60.7945728 C60.6926602,61.5961028 58.8892177,62.063662 57.8873052,62.063662 C57.2861576,62.063662 56.9521868,61.7296911 56.9521868,61.1285436 C56.9521868,57.6552468 64.4999278,52.9128609 69.3759021,52.9128609 C74.1850823,52.9128609 76.5228782,55.718216 76.3224957,60.7277786 L75.9217307,72.3499639 C75.7881423,75.4224957 76.3892898,78.1610566 78.9942624,78.1610566 C79.6622041,78.1610566 80.2633516,77.9606741 80.6641166,77.7602916 C80.9980875,77.5599091 81.3320583,77.2927324 81.5324408,77.2927324 C81.7996175,77.2927324 82,77.6934974 82,78.1610566 C82,78.4950274 79.6622041,81.1 76.3892898,81.1 C74.7862298,81.1 73.1831698,80.4988525 72.0476689,79.0293808 C71.7804922,78.6286158 71.3797272,78.0942624 70.9789622,78.0942624 C70.511403,78.0942624 69.709873,78.6954099 68.3739896,79.4301458 C66.9045179,80.2316758 65.4350462,81.1 63.5648095,81.1 C61.6277786,81.1 60.0247186,80.5656467 58.8892177,79.5637341 C57.6201285,78.4282333 56.8185985,76.758379 56.8185985,74.8881423 C56.8185985,72.2831698 58.0876877,70.7469039 62.3625145,69.210638 Z M61.9617494,74.0866123 C61.9617494,75.2221132 62.7632795,78.0942624 66.1697821,78.0942624 C67.5056654,78.0942624 69.5762847,77.0923499 70.2442263,76.4244082 C71.0457564,75.6228782 71.0457564,74.6877598 71.1125505,73.2850823 L71.2461389,69.3442263 C71.2461389,68.6094905 70.9789622,68.4759021 70.5781972,68.4759021 C70.1774322,68.4759021 69.0419313,68.7430788 67.8396363,69.1438438 C63.8987803,70.4797272 61.9617494,71.4816397 61.9617494,74.0866123 Z" id="Aa" fill="#000000"></path>
            <path d="M0,95 L117.081081,95 L117.081081,0 L0,0 L0,95 Z M3.65890325,3.65372684 L113.422417,3.65372684 L113.422417,91.3460345 L3.65890325,91.3460345 L3.65890325,3.65372684 Z" id="Shape" fill="#000000" fill-rule="nonzero"></path>
            <rect id="Rectangle-3" fill="#EC407A" x="77" y="9" width="14" height="14"></rect>
            <rect id="Rectangle-3-Copy" fill="#273593" x="93" y="9" width="14" height="14"></rect>
            <rect id="Rectangle-3-Copy" fill="#81D4FA" x="93" y="25" width="14" height="14"></rect>
            <rect id="Rectangle-3-Copy-2" fill="#FFCDD2" x="77" y="25" width="14" height="14"></rect>
        </g>
    </g>
</svg>