<?xml version="1.0" encoding="UTF-8"?>
<svg width="118px" height="95px" viewBox="0 0 118 95" version="1.1" xmlns="http://www.w3.org/2000/svg" xmlns:xlink="http://www.w3.org/1999/xlink">
    <!-- Generator: Sketch 48.1 (47250) - http://www.bohemiancoding.com/sketch -->
    <title>flaticon1513113232-svg</title>
    <desc>Created with Sketch.</desc>
    <defs></defs>
    <g id="Getting-Started" stroke="none" stroke-width="1" fill="none" fill-rule="evenodd" transform="translate(-940.000000, -565.000000)">
        <g id="flaticon1513113232-svg" transform="translate(940.000000, 565.000000)" fill-rule="nonzero">
            <path d="M0,95 L117.081081,95 L117.081081,0 L0,0 L0,95 Z M3.65890325,3.65372684 L113.422417,3.65372684 L113.422417,91.3460345 L3.65890325,91.3460345 L3.65890325,3.65372684 Z" id="Shape" fill="#000000"></path>
            <rect id="Rectangle-path" fill="#DA2315" x="43.1351351" y="17.972973" width="29.2702703" height="3.59459459" rx="1.7972973"></rect>
            <rect id="Rectangle-path" fill="#DA2315" x="43.1351351" y="25.6756757" width="54.9459459" height="3.59459459" rx="1.7972973"></rect>
            <path d="M16.9459459,32.3513514 L33.8918919,32.3513514 L33.8918919,15.4054054 L16.9459459,15.4054054 L16.9459459,32.3513514 Z M20.5748164,19.0340389 L30.2632584,19.0340389 L30.2632584,28.7224809 L20.5748164,28.7224809 L20.5748164,19.0340389 Z" id="Shape" fill="#000000"></path>
            <rect id="Rectangle-path" fill="#DA2315" x="43.1351351" y="42.1081081" width="29.2702703" height="3.59459459" rx="1.7972973"></rect>
            <rect id="Rectangle-path" fill="#DA2315" x="43.1351351" y="49.8108108" width="54.9459459" height="3.59459459" rx="1.7972973"></rect>
            <path d="M16.9459459,55.972973 L33.8918919,55.972973 L33.8918919,39.027027 L16.9459459,39.027027 L16.9459459,55.972973 Z M20.5748164,42.6558975 L30.2632584,42.6558975 L30.2632584,52.3443395 L20.5748164,52.3443395 L20.5748164,42.6558975 Z" id="Shape" fill="#000000"></path>
            <rect id="Rectangle-path" fill="#DA2315" x="43.1351351" y="66.2432432" width="29.2702703" height="3.59459459" rx="1.7972973"></rect>
            <rect id="Rectangle-path" fill="#DA2315" x="43.1351351" y="73.9459459" width="54.9459459" height="3.59459459" rx="1.7972973"></rect>
            <path d="M16.9459459,80.1081081 L33.8918919,80.1081081 L33.8918919,63.1621622 L16.9459459,63.1621622 L16.9459459,80.1081081 Z M20.5748164,66.7907957 L30.2632584,66.7907957 L30.2632584,76.4792376 L20.5748164,76.4792376 L20.5748164,66.7907957 Z" id="Shape" fill="#000000"></path>
        </g>
    </g>
</svg>