<svg xmlns="http://www.w3.org/2000/svg" xmlns:xlink="http://www.w3.org/1999/xlink"><symbol viewBox="0 0 20 20" id="chevron_left" xmlns="http://www.w3.org/2000/svg"><path d="M12.141 13.418c.268.271.268.709 0 .978s-.701.272-.969 0l-3.83-3.908a.697.697 0 0 1 0-.979l3.83-3.908c.267-.27.701-.27.969 0s.268.709 0 .978L9 10l3.141 3.418z"/></symbol><symbol viewBox="0 0 20 20" id="chevron_right" xmlns="http://www.w3.org/2000/svg"><path d="M11 10L7.859 6.58a.695.695 0 0 1 0-.978.68.68 0 0 1 .969 0l3.83 3.908a.697.697 0 0 1 0 .979l-3.83 3.908c-.267.272-.701.27-.969 0s-.268-.707 0-.978L11 10z"/></symbol><symbol viewBox="0 0 270 163" id="logo" xmlns="http://www.w3.org/2000/svg"><title>Group 3 + Fill 4</title><defs><path id="a" d="M0 .042h269.671v162.945H0"/></defs><g fill-rule="evenodd"><g><mask id="b" fill="#fff"><use xmlns:xlink="http://www.w3.org/1999/xlink" xlink:href="#a"/></mask><path d="M228.07 89.044c-9.33-2.017-45.05-4.977-60.423-4.977l-29.67-.304c-4.112 0-13.72.133-19.702-2.053H37.757c-.276 1.299-.402 2.658-.402 4.082 0 11.022 12.254 25.303 37.738 32.608 14.28 4.028 50.16 7.76 62.118 7.76l45.034.331c2.185 0 10.877 1.687 10.877 7.599 0 5.128-9.323 6.071-11.034 6.071h-56.069c-1.708 0-26.863-.63-29.964-10.89-.312-1.093-1.084-1.697-2.337-1.697h-55.44c-1.233 0-1.702 1.085-1.702 1.85v31.695c0 1.246.47 1.869 1.556 1.869H90.92c1.102 0 2.032-.304 2.344-1.548l.925-9.003c11.035 5.12 29.68 10.55 47.208 10.55h42.074c22.222 0 86.199-4.968 86.199-40.56 0-24.84-32.619-31.215-41.6-33.383" mask="url(#b)"/></g><path d="M259.985.043H4.97C2.338.043 0 .809 0 3.145v23.767c0 1.858 3.117 1.858 4.66 1.858h33.541v43.99l129.538-.06c1.38 0 3.099-1.674 3.099-2.757V48.966c0-2.32-1.076-3.406-3.1-3.406H118.03V27.844h89.924v22.222c0 1.858 1.082 1.548 3.426 1.548h52.02c2.338 0 2.338-2.338 2.338-3.886V5.472c0-4.344-2.021-5.429-5.753-5.429"/></g></symbol><symbol viewBox="0 0 20 20" id="search" xmlns="http://www.w3.org/2000/svg"><title>magnifying-glass</title><path d="M17.545 15.467l-3.779-3.779a6.15 6.15 0 0 0 .898-3.21c0-3.417-2.961-6.377-6.378-6.377S2.1 4.87 2.1 8.287c0 3.416 2.961 6.377 6.377 6.377a6.15 6.15 0 0 0 3.115-.844l3.799 3.801a.953.953 0 0 0 1.346 0l.943-.943c.371-.371.236-.84-.135-1.211zM4.004 8.287c0-2.366 1.917-4.283 4.282-4.283s4.474 2.107 4.474 4.474c0 2.365-1.918 4.283-4.283 4.283s-4.473-2.109-4.473-4.474z"/></symbol></svg>