<svg width="118" height="95" xmlns="http://www.w3.org/2000/svg"><g fill="none"><path d="M0 95h117.081V0H0v95zM3.659 3.654h109.763v87.692H3.66V3.654z" fill="#000"/><rect fill="#DA2315" x="43.135" y="17.973" width="29.27" height="3.595" rx="1.797"/><rect fill="#DA2315" x="43.135" y="25.676" width="54.946" height="3.595" rx="1.797"/><path d="M16.946 32.351h16.946V15.405H16.946v16.946zm3.629-13.317h9.688v9.688h-9.688v-9.688z" fill="#000"/><rect fill="#DA2315" x="43.135" y="42.108" width="29.27" height="3.595" rx="1.797"/><rect fill="#DA2315" x="43.135" y="49.811" width="54.946" height="3.595" rx="1.797"/><path d="M16.946 55.973h16.946V39.027H16.946v16.946zm3.629-13.317h9.688v9.688h-9.688v-9.688z" fill="#000"/><rect fill="#DA2315" x="43.135" y="66.243" width="29.27" height="3.595" rx="1.797"/><rect fill="#DA2315" x="43.135" y="73.946" width="54.946" height="3.595" rx="1.797"/><path d="M16.946 80.108h16.946V63.162H16.946v16.946zm3.629-13.317h9.688v9.688h-9.688v-9.688z" fill="#000"/></g></svg>