<svg width="123" height="95" xmlns="http://www.w3.org/2000/svg"><g fill="none"><path d="M123 10.9a6.86 6.86 0 0 0-2.04-4.898l-2.735-2.722a6.937 6.937 0 0 0-4.924-2.03c-1.86 0-3.609.721-4.925 2.03L95.487 16.104V2.438A2.444 2.444 0 0 0 93.037 0H2.45A2.444 2.444 0 0 0 0 2.438v90.124A2.444 2.444 0 0 0 2.45 95h90.587a2.444 2.444 0 0 0 2.45-2.438l-.001-51.417L120.96 15.8a6.866 6.866 0 0 0 2.04-4.9zM90.587 90.125H4.9V4.876h85.687v16.103L45.727 65.61c-.27.268-.472.594-.592.953l-4.56 13.609a2.428 2.428 0 0 0 .592 2.494 2.457 2.457 0 0 0 2.508.59l13.679-4.537c.36-.12.688-.321.957-.589l32.275-32.11v44.105zm-35.331-15.85l-8.481 2.813 2.827-8.438 52.026-51.76 5.654 5.625-52.026 51.76zm62.24-61.922l-6.749 6.714-2.827-2.812-2.827-2.813 6.749-6.714c.39-.388.907-.601 1.459-.601.551 0 1.069.213 1.459.6l2.735 2.723c.39.388.605.903.605 1.451a2.03 2.03 0 0 1-.605 1.452z" fill="#000"/><path d="M75.63 16h-2.26C72.061 16 71 17.12 71 18.5s1.061 2.5 2.37 2.5h2.26c1.309 0 2.37-1.12 2.37-2.5S76.939 16 75.63 16zm-11.103 0H19.473C18.107 16 17 17.12 17 18.5s1.107 2.5 2.473 2.5h45.054C65.893 21 67 19.88 67 18.5S65.893 16 64.527 16zM61.56 30H19.44C18.091 30 17 31.12 17 32.5s1.092 2.5 2.44 2.5h42.12c1.348 0 2.44-1.12 2.44-2.5S62.907 30 61.56 30zM45.618 43H19.381C18.066 43 17 44.12 17 45.5s1.066 2.5 2.381 2.5H45.62c1.314 0 2.38-1.12 2.38-2.5S46.934 43 45.618 43zM34.576 57H19.424C18.085 57 17 58.12 17 59.5s1.085 2.5 2.424 2.5h15.152C35.915 62 37 60.88 37 59.5S35.915 57 34.576 57z" fill="#DA2315"/></g></svg>