<svg width="46" height="64" xmlns="http://www.w3.org/2000/svg" xmlns:xlink="http://www.w3.org/1999/xlink"><defs><path d="M33.53 5.625c-7.472-7.5-19.587-7.5-27.06 0-6.732 6.758-7.49 19.483-1.776 27.13L20 54.943l15.306-22.188c5.714-7.647 4.956-20.372-1.777-27.13zM20.185 25.358c-3.488 0-6.315-2.838-6.315-6.34 0-3.5 2.827-6.339 6.315-6.339 3.489 0 6.316 2.838 6.316 6.34 0 3.501-2.827 6.34-6.316 6.34z" id="b"/><filter x="-50%" y="-50%" width="200%" height="200%" filterUnits="objectBoundingBox" id="a"><feMorphology radius="1.5" operator="dilate" in="SourceAlpha" result="shadowSpreadOuter1"/><feOffset in="shadowSpreadOuter1" result="shadowOffsetOuter1"/><feColorMatrix values="0 0 0 0 1 0 0 0 0 1 0 0 0 0 1 0 0 0 1 0" in="shadowOffsetOuter1"/></filter></defs><g transform="translate(3 3)" fill="none" fill-rule="evenodd"><ellipse fill="#FFF" cx="20.526" cy="18.491" rx="10" ry="10.038"/><g fill-rule="nonzero"><use fill="#000" filter="url(#a)" xlink:href="#b"/><use fill="#111" fill-rule="evenodd" xlink:href="#b"/></g></g></svg>