<svg width="160" height="105" viewBox="0 0 160 105" xmlns="http://www.w3.org/2000/svg"><title>Aa</title><path d="M71.65 87.6l-6.6-20.4c-1.05-3.3-1.65-3.75-6.15-3.75H36.25c-3.75 0-4.65.45-5.7 3.6L25.3 82.8C23.05 89.55 22 93.6 22 95.25c0 1.8.75 2.7 4.35 3l4.95.45c1.05.75 1.05 3.15-.3 3.75-3.9-.3-8.55-.3-15.6-.45-4.95 0-10.35.3-14.4.45-.9-.6-1.2-3-.3-3.75l4.95-.45c3.6-.3 6.9-1.95 9-7.35 2.7-6.9 6.9-16.65 13.2-33.45l15.3-40.5c2.1-5.4 3-8.25 2.55-10.65 3.6-1.05 6.15-3.75 7.8-5.7.9 0 1.95.3 2.25 1.35 1.95 6.6 4.35 13.5 6.6 20.1l20.55 60.3c4.35 12.9 6.3 15.15 12.75 15.9l4.05.45c1.05.75.75 3.15 0 3.75-6.15-.3-11.4-.45-18.15-.45-7.2 0-12.9.3-17.25.45-1.2-.6-1.35-3-.3-3.75l4.35-.45c3.15-.3 5.25-1.2 5.25-2.7 0-1.65-.75-4.35-1.95-7.95zM44.8 27.75l-9.45 26.1c-1.2 3.45-1.05 3.6 3.15 3.6h18.45c4.35 0 4.65-.6 3.3-4.65l-8.1-24.45c-1.2-3.6-2.55-7.65-3.45-9.45h-.3c-.45.75-1.95 4.35-3.6 8.85zm70.35 49.65L133 70.95c2.25-.75 2.55-2.1 2.55-4.35l.15-6.9c.15-5.55-1.65-13.05-10.95-13.05-4.2 0-9.3 2.1-9.6 6.75-.15 2.4-.3 4.2-1.5 5.1-2.25 1.8-6.3 2.85-8.55 2.85-1.35 0-2.1-.75-2.1-2.1 0-7.8 16.95-18.45 27.9-18.45 10.8 0 16.05 6.3 15.6 17.55l-.9 26.1c-.3 6.9 1.05 13.05 6.9 13.05 1.5 0 2.85-.45 3.75-.9.75-.45 1.5-1.05 1.95-1.05.6 0 1.05.9 1.05 1.95 0 .75-5.25 6.6-12.6 6.6-3.6 0-7.2-1.35-9.75-4.65-.6-.9-1.5-2.1-2.4-2.1-1.05 0-2.85 1.35-5.85 3-3.3 1.8-6.6 3.75-10.8 3.75-4.35 0-7.95-1.2-10.5-3.45-2.85-2.55-4.65-6.3-4.65-10.5 0-5.85 2.85-9.3 12.45-12.75zm-.9 10.95c0 2.55 1.8 9 9.45 9 3 0 7.65-2.25 9.15-3.75 1.8-1.8 1.8-3.9 1.95-7.05l.3-8.85c0-1.65-.6-1.95-1.5-1.95s-3.45.6-6.15 1.5c-8.85 3-13.2 5.25-13.2 11.1z" fill-rule="evenodd"/></svg>