<svg width="118" height="95" xmlns="http://www.w3.org/2000/svg"><g fill="none" fill-rule="evenodd"><path d="M42.992 73.753l-2.939-9.084c-.467-1.47-.734-1.67-2.738-1.67H27.229c-1.67 0-2.07.2-2.538 1.603l-2.338 7.013c-1.002 3.006-1.47 4.81-1.47 5.544 0 .802.334 1.202 1.937 1.336l2.205.2c.467.334.467 1.403-.134 1.67-1.737-.133-3.807-.133-6.947-.2-2.204 0-4.608.133-6.412.2-.4-.267-.534-1.336-.133-1.67l2.204-.2c1.603-.134 3.072-.868 4.007-3.273 1.203-3.072 3.073-7.414 5.878-14.895l6.813-18.034c.935-2.405 1.336-3.674 1.136-4.743 1.603-.467 2.738-1.67 3.473-2.538.4 0 .868.134 1.002.601.868 2.94 1.937 6.012 2.939 8.95l9.15 26.852c1.938 5.744 2.806 6.746 5.678 7.08l1.804.2c.467.334.334 1.403 0 1.67-2.739-.133-5.077-.2-8.082-.2-3.206 0-5.745.133-7.682.2-.534-.267-.6-1.336-.133-1.67l1.937-.2c1.402-.134 2.338-.534 2.338-1.202 0-.735-.334-1.937-.869-3.54zM31.036 47.102l-4.208 11.622c-.534 1.536-.468 1.603 1.403 1.603h8.215c1.937 0 2.071-.267 1.47-2.07l-3.607-10.888c-.534-1.603-1.136-3.407-1.536-4.208h-.134c-.2.334-.868 1.937-1.603 3.94zM62.363 69.21l7.948-2.873c1.002-.333 1.136-.935 1.136-1.937l.066-3.072c.067-2.471-.734-5.811-4.876-5.811-1.87 0-4.14.935-4.274 3.006-.067 1.068-.134 1.87-.668 2.27-1.002.802-2.806 1.27-3.808 1.27-.6 0-.935-.334-.935-.935 0-3.474 7.548-8.216 12.424-8.216 4.81 0 7.147 2.805 6.946 7.815l-.4 11.622c-.134 3.072.467 5.811 3.072 5.811.668 0 1.27-.2 1.67-.4.334-.201.668-.468.868-.468.268 0 .468.4.468.868 0 .334-2.338 2.939-5.61 2.939-1.604 0-3.207-.601-4.342-2.07-.268-.401-.668-.936-1.069-.936-.468 0-1.27.601-2.605 1.336-1.47.802-2.939 1.67-4.81 1.67-1.936 0-3.54-.534-4.675-1.536a6.249 6.249 0 0 1-2.07-4.676c0-2.605 1.269-4.141 5.544-5.677zm-.401 4.876c0 1.135.801 4.007 4.208 4.007 1.336 0 3.406-1.002 4.074-1.67.802-.801.802-1.736.869-3.139l.133-3.94c0-.736-.267-.87-.668-.87-.4 0-1.536.268-2.738.669-3.941 1.336-5.878 2.338-5.878 4.943z" fill="#000"/><path d="M0 95h117.081V0H0v95zM3.659 3.654h109.763v87.692H3.66V3.654z" fill="#000" fill-rule="nonzero"/><path fill="#EC407A" d="M77 9h14v14H77z"/><path fill="#273593" d="M93 9h14v14H93z"/><path fill="#81D4FA" d="M93 25h14v14H93z"/><path fill="#FFCDD2" d="M77 25h14v14H77z"/></g></svg>