<svg width="270" height="163" viewBox="0 0 270 163" xmlns="http://www.w3.org/2000/svg" xmlns:xlink="http://www.w3.org/1999/xlink"><view id="logo" viewBox="0 0 270 163"/><svg width="270" height="163" viewBox="0 0 270 163"><title>Group 3 + Fill 4</title><defs><path id="aa" d="M0 .042h269.671v162.945H0"/></defs><g fill-rule="evenodd"><g><mask id="ab" fill="#fff"><use xlink:href="#aa"/></mask><path d="M228.07 89.044c-9.33-2.017-45.05-4.977-60.423-4.977l-29.67-.304c-4.112 0-13.72.133-19.702-2.053H37.757c-.276 1.299-.402 2.658-.402 4.082 0 11.022 12.254 25.303 37.738 32.608 14.28 4.028 50.16 7.76 62.118 7.76l45.034.331c2.185 0 10.877 1.687 10.877 7.599 0 5.128-9.323 6.071-11.034 6.071h-56.069c-1.708 0-26.863-.63-29.964-10.89-.312-1.093-1.084-1.697-2.337-1.697h-55.44c-1.233 0-1.702 1.085-1.702 1.85v31.695c0 1.246.47 1.869 1.556 1.869H90.92c1.102 0 2.032-.304 2.344-1.548l.925-9.003c11.035 5.12 29.68 10.55 47.208 10.55h42.074c22.222 0 86.199-4.968 86.199-40.56 0-24.84-32.619-31.215-41.6-33.383" mask="url(#ab)"/></g><path d="M259.985.043H4.97C2.338.043 0 .809 0 3.145v23.767c0 1.858 3.117 1.858 4.66 1.858h33.541v43.99l129.538-.06c1.38 0 3.099-1.674 3.099-2.757V48.966c0-2.32-1.076-3.406-3.1-3.406H118.03V27.844h89.924v22.222c0 1.858 1.082 1.548 3.426 1.548h52.02c2.338 0 2.338-2.338 2.338-3.886V5.472c0-4.344-2.021-5.429-5.753-5.429"/></g></svg></svg>