<?xml version="1.0" standalone="no"?><!-- Generator: Adobe Fireworks CS6, Export SVG Extension by Aaron Beall (http://fireworks.abeall.com) . Version: 0.6.1  --><!DOCTYPE svg PUBLIC "-//W3C//DTD SVG 1.1//EN" "http://www.w3.org/Graphics/SVG/1.1/DTD/svg11.dtd"><svg id="icons.src.fw-Page%201" viewBox="0 0 240 16" style="background-color:#ffffff00" version="1.1"	xmlns="http://www.w3.org/2000/svg" xmlns:xlink="http://www.w3.org/1999/xlink" xml:space="preserve"	x="0px" y="0px" width="240px" height="16px">	<g id="Layer%201">		<g>			<path d="M 88 0 C 83.5818 0 80 3.5817 80 8 C 80 12.4184 83.5818 16 88 16 C 92.4182 16 96 12.4184 96 8 C 96 3.5817 92.4182 0 88 0 ZM 88 14 C 84.6916 14 82 11.3086 82 8 C 82 4.6916 84.6916 2 88 2 C 91.3084 2 94 4.6916 94 8 C 94 11.3086 91.3084 14 88 14 Z" fill="#59a8e9"/>			<path d="M 88.1482 3.926 C 85.939 3.926 84.1482 5.7168 84.1482 7.9259 C 84.1482 10.135 85.939 11.9258 88.1482 11.9258 C 90.3572 11.9258 92.148 10.135 92.148 7.9259 C 92.148 5.7168 90.3572 3.926 88.1482 3.926 Z" fill="#59a8e9"/>		</g>		<g>			<path d="M 78.8995 2.6181 L 79.7203 2.2765 C 79.6111 2.0143 79.4724 1.7669 79.3086 1.5391 C 79.3084 1.5391 79.3084 1.5391 79.3084 1.5391 C 79.3064 1.536 79.3045 1.5334 79.3025 1.5308 C 79.3023 1.5308 79.3023 1.5304 79.3023 1.5304 C 79.3003 1.5278 79.2984 1.5252 79.2964 1.5226 C 79.2962 1.5221 79.296 1.5221 79.2958 1.5217 C 79.2941 1.5191 79.2921 1.5165 79.2901 1.5139 C 79.2901 1.5139 79.2899 1.5139 79.2897 1.5135 C 79.2878 1.5108 79.286 1.5082 79.2841 1.5056 C 79.2841 1.5056 79.2839 1.5052 79.2836 1.5052 C 79.2817 1.5026 79.2797 1.5 79.2778 1.497 L 79.2776 1.497 C 79.2613 1.4748 79.2446 1.4527 79.2276 1.431 L 79.2274 1.431 C 79.2257 1.4284 79.2237 1.4262 79.222 1.4236 C 79.2216 1.4232 79.2211 1.4227 79.2207 1.4223 C 79.2192 1.4201 79.2174 1.418 79.2157 1.4158 C 79.2153 1.4149 79.2146 1.4145 79.2142 1.4141 C 79.2127 1.4119 79.2109 1.4097 79.2092 1.4076 C 79.2088 1.4067 79.2081 1.4063 79.2077 1.4054 C 79.2059 1.4036 79.2044 1.4015 79.2029 1.3993 C 79.2023 1.3984 79.2016 1.398 79.201 1.3971 C 79.1994 1.395 79.1979 1.3932 79.1962 1.3911 C 79.1957 1.3906 79.1949 1.3898 79.1944 1.3889 C 79.1927 1.3867 79.1912 1.385 79.1897 1.3828 C 79.189 1.3819 79.1884 1.3815 79.1877 1.3806 C 79.1862 1.3785 79.1847 1.3767 79.1829 1.3746 C 79.1823 1.3737 79.1816 1.3733 79.181 1.3724 C 79.1795 1.3702 79.1779 1.3685 79.1764 1.3663 C 79.1758 1.3655 79.1751 1.365 79.1745 1.3642 C 79.1727 1.362 79.1712 1.3602 79.1697 1.3581 C 79.1691 1.3576 79.1684 1.3568 79.1678 1.3559 C 79.1662 1.3542 79.1645 1.352 79.163 1.3498 C 79.1623 1.3494 79.1617 1.3485 79.1612 1.3481 C 79.1595 1.3459 79.1578 1.3438 79.156 1.3416 C 79.1558 1.3412 79.1554 1.3407 79.1549 1.3403 C 79.1469 1.3307 79.1387 1.3208 79.1304 1.3112 C 79.13 1.3108 79.1296 1.3099 79.1293 1.3095 C 79.1276 1.3077 79.1261 1.306 79.1246 1.3043 C 79.1237 1.303 79.123 1.3025 79.1224 1.3017 C 79.1209 1.2999 79.1194 1.2982 79.1178 1.2964 C 79.117 1.2951 79.1163 1.2943 79.1152 1.2934 C 79.1139 1.2917 79.1126 1.2899 79.1113 1.2886 C 79.1102 1.2873 79.1094 1.2865 79.1083 1.2852 C 79.107 1.2834 79.1057 1.2821 79.1044 1.2804 C 79.1033 1.2795 79.1024 1.2782 79.1013 1.2769 C 79.1 1.2756 79.0985 1.2739 79.0972 1.2721 C 79.0964 1.2713 79.0953 1.27 79.0944 1.2691 C 79.0931 1.2674 79.0916 1.2661 79.0903 1.2643 C 79.0894 1.2635 79.0883 1.2622 79.0872 1.2609 C 79.0859 1.2596 79.0846 1.2578 79.0833 1.2565 C 79.0822 1.2552 79.0812 1.2539 79.0801 1.2526 C 79.0788 1.2513 79.0777 1.25 79.0764 1.2483 C 79.0753 1.2474 79.074 1.2461 79.0729 1.2448 C 79.0718 1.2435 79.0705 1.2418 79.0692 1.2405 C 79.0681 1.2392 79.0671 1.2379 79.0658 1.2366 C 79.0647 1.2353 79.0634 1.2339 79.0621 1.2326 C 79.061 1.2313 79.0599 1.23 79.0586 1.2287 C 79.0575 1.2274 79.0562 1.2257 79.0549 1.2244 C 79.0538 1.2231 79.0525 1.2218 79.0514 1.2205 C 79.0501 1.2192 79.049 1.2179 79.0477 1.2166 C 79.0467 1.2153 79.0454 1.214 79.0441 1.2122 C 79.043 1.2114 79.0419 1.2101 79.0406 1.2088 C 79.0393 1.207 79.0378 1.2057 79.0365 1.204 C 79.0356 1.2031 79.0345 1.2018 79.0334 1.2005 C 79.031 1.1983 79.0286 1.1953 79.0263 1.1931 C 79.0254 1.1918 79.0245 1.191 79.0234 1.1901 C 79.0219 1.1884 79.0204 1.1866 79.0191 1.1849 C 79.018 1.184 79.0169 1.1827 79.0158 1.1819 C 79.0145 1.1801 79.013 1.1788 79.0117 1.1771 C 79.0106 1.1762 79.0096 1.1749 79.0082 1.1736 C 79.0072 1.1723 79.0056 1.1706 79.0043 1.1693 C 79.0033 1.168 79.0022 1.1671 79.0009 1.1658 C 78.9996 1.1645 78.9983 1.1628 78.997 1.1615 C 78.9959 1.1602 78.9948 1.1593 78.9935 1.158 C 78.9922 1.1562 78.9909 1.1549 78.9896 1.1536 C 78.9885 1.1523 78.9874 1.1515 78.9863 1.1502 C 78.985 1.1489 78.9835 1.1471 78.9822 1.1458 C 78.9811 1.1445 78.98 1.1437 78.9787 1.1424 C 78.9774 1.1411 78.9761 1.1398 78.9748 1.138 C 78.9737 1.1372 78.9727 1.1358 78.9714 1.1345 C 78.9701 1.1332 78.9688 1.1315 78.9672 1.1302 C 78.9661 1.1293 78.9651 1.128 78.964 1.1267 C 78.9627 1.1254 78.9612 1.1241 78.9596 1.1224 C 78.9585 1.1215 78.9577 1.1202 78.9566 1.1194 C 78.9551 1.1176 78.9538 1.1163 78.9523 1.1146 C 78.9512 1.1137 78.9501 1.1124 78.949 1.1115 C 78.9475 1.1098 78.9462 1.1085 78.9447 1.1072 C 78.9436 1.1059 78.9425 1.105 78.9414 1.1037 C 78.9399 1.102 78.9386 1.1007 78.9369 1.099 C 78.936 1.0981 78.9349 1.0972 78.934 1.0964 C 78.9323 1.0946 78.9308 1.0929 78.929 1.0911 C 78.9282 1.0903 78.9273 1.0894 78.9264 1.0885 C 78.9245 1.0868 78.9225 1.0846 78.9208 1.0829 C 78.9201 1.082 78.9195 1.0816 78.9188 1.0812 C 78.9138 1.076 78.9086 1.0707 78.9036 1.0655 C 78.9028 1.0651 78.9021 1.0642 78.9013 1.0638 C 78.8995 1.0616 78.8978 1.0599 78.8958 1.0582 C 78.895 1.0573 78.8941 1.0564 78.8932 1.0556 C 78.8915 1.0538 78.8898 1.0521 78.8882 1.0508 C 78.8872 1.0499 78.8863 1.0486 78.8852 1.0477 C 78.8837 1.0464 78.8819 1.0447 78.8806 1.0434 C 78.8793 1.0421 78.8785 1.0412 78.8774 1.0399 C 78.8759 1.0386 78.8744 1.0373 78.8728 1.0356 C 78.8717 1.0347 78.8707 1.0334 78.8696 1.0326 C 78.8681 1.0313 78.8665 1.0295 78.865 1.0282 C 78.8639 1.0273 78.8628 1.026 78.8618 1.0252 C 78.8602 1.0234 78.8587 1.0221 78.8572 1.0208 C 78.8561 1.02 78.855 1.0187 78.854 1.0178 C 78.8524 1.0161 78.8509 1.0148 78.8494 1.0135 C 78.8483 1.0122 78.8472 1.0113 78.8461 1.0104 C 78.8446 1.0087 78.8431 1.0074 78.8416 1.0061 C 78.8405 1.0048 78.8394 1.0039 78.8383 1.003 C 78.8368 1.0013 78.8353 1 78.8338 0.9987 C 78.8327 0.9974 78.8316 0.9965 78.8305 0.9957 C 78.829 0.9939 78.8273 0.9926 78.8257 0.9913 C 78.8249 0.99 78.8238 0.9892 78.8227 0.9883 C 78.821 0.9865 78.8194 0.9852 78.8177 0.9835 C 78.8168 0.9826 78.8158 0.9818 78.8147 0.9809 C 78.8131 0.9792 78.8112 0.9774 78.8097 0.9761 C 78.8086 0.9753 78.8077 0.9744 78.8069 0.9735 C 78.8049 0.9718 78.8029 0.9701 78.801 0.9683 C 78.8003 0.9675 78.7997 0.967 78.799 0.9662 C 78.7936 0.9614 78.7884 0.9566 78.783 0.9518 C 78.7823 0.9514 78.7819 0.951 78.7815 0.9505 C 78.7793 0.9484 78.7771 0.9466 78.775 0.9445 C 78.7741 0.944 78.7732 0.9431 78.7726 0.9423 C 78.7706 0.9405 78.7689 0.9392 78.7669 0.9375 C 78.7661 0.9366 78.765 0.9358 78.7641 0.9349 C 78.7624 0.9332 78.7606 0.9319 78.7589 0.9301 C 78.7578 0.9293 78.7567 0.9284 78.7556 0.9275 C 78.7541 0.9258 78.7526 0.9245 78.7509 0.9232 C 78.7498 0.9223 78.7487 0.921 78.7476 0.9201 C 78.7461 0.9188 78.7444 0.9175 78.7428 0.9162 C 78.7418 0.9149 78.7407 0.9141 78.7394 0.9132 C 78.7378 0.9115 78.7363 0.9102 78.7348 0.9089 C 78.7335 0.908 78.7324 0.9067 78.7313 0.9058 C 78.7298 0.9045 78.7283 0.9032 78.7268 0.9019 C 78.7255 0.901 78.7244 0.8997 78.7231 0.8989 C 78.7216 0.8976 78.7201 0.8963 78.7188 0.895 C 78.7174 0.8937 78.7161 0.8928 78.7148 0.8915 C 78.7133 0.8906 78.712 0.8893 78.7107 0.888 C 78.7092 0.8867 78.7079 0.8859 78.7066 0.8846 C 78.7053 0.8837 78.7038 0.8824 78.7025 0.8811 C 78.7012 0.8798 78.6999 0.8789 78.6986 0.8776 C 78.6973 0.8767 78.6955 0.8754 78.6942 0.8741 C 78.6929 0.8728 78.6916 0.872 78.6901 0.8707 C 78.6888 0.8694 78.6875 0.8685 78.6862 0.8672 C 78.6849 0.8663 78.6834 0.865 78.6821 0.8637 C 78.6806 0.8624 78.6793 0.8616 78.6777 0.8603 C 78.6764 0.8589 78.6751 0.8581 78.6738 0.8568 C 78.6725 0.8559 78.671 0.8546 78.6695 0.8533 C 78.6682 0.852 78.6669 0.8511 78.6656 0.8498 C 78.663 0.8477 78.6602 0.8455 78.6576 0.8433 C 78.6563 0.842 78.6547 0.8412 78.6534 0.8399 C 78.6521 0.839 78.6506 0.8377 78.6493 0.8364 C 78.6478 0.8355 78.6463 0.8342 78.6447 0.8329 C 78.6437 0.832 78.6424 0.8307 78.6411 0.8299 C 78.6395 0.8286 78.638 0.8273 78.6365 0.826 C 78.6352 0.8251 78.6341 0.8242 78.6328 0.8229 C 78.6313 0.8216 78.6296 0.8207 78.628 0.8194 C 78.627 0.8181 78.6256 0.8173 78.6244 0.8164 C 78.6228 0.8151 78.6213 0.8138 78.6198 0.8125 C 78.6185 0.8116 78.6174 0.8108 78.6161 0.8095 C 78.6146 0.8082 78.6131 0.8073 78.6113 0.806 C 78.6102 0.8047 78.6089 0.8038 78.6079 0.8029 C 78.6061 0.8016 78.6046 0.8003 78.6029 0.799 C 78.6018 0.7982 78.6007 0.7973 78.5996 0.7964 C 78.5979 0.7951 78.5961 0.7938 78.5946 0.7925 C 78.5933 0.7917 78.5922 0.7908 78.5911 0.7899 C 78.5894 0.7886 78.5879 0.7873 78.5862 0.786 C 78.5851 0.7847 78.584 0.7843 78.5827 0.783 C 78.5812 0.7817 78.5794 0.7804 78.5777 0.7791 C 78.5766 0.7782 78.5755 0.7773 78.5744 0.7765 C 78.5727 0.7752 78.571 0.7739 78.5692 0.7726 C 78.5684 0.7717 78.5673 0.7708 78.5662 0.7704 C 78.5645 0.7691 78.5625 0.7674 78.5608 0.7661 C 78.5599 0.7652 78.559 0.7648 78.5582 0.7639 C 78.5562 0.7626 78.5543 0.7609 78.5523 0.7595 C 78.5517 0.7591 78.551 0.7587 78.5503 0.7578 C 78.5482 0.7565 78.5458 0.7548 78.5436 0.753 C 78.5302 0.7426 78.5165 0.7326 78.5028 0.7222 C 78.5026 0.7222 78.5024 0.7218 78.502 0.7218 C 78.4996 0.7201 78.4972 0.7183 78.495 0.7166 C 78.4944 0.7161 78.4939 0.7157 78.4935 0.7153 C 78.4911 0.7135 78.4887 0.7118 78.4865 0.7101 C 78.4859 0.7096 78.4855 0.7096 78.4848 0.7092 C 78.4826 0.7075 78.4803 0.7057 78.4781 0.704 C 78.4776 0.7036 78.477 0.7031 78.4763 0.7027 C 78.474 0.701 78.4718 0.6997 78.4694 0.6979 C 78.469 0.6975 78.4683 0.6971 78.4679 0.6966 C 78.4655 0.6949 78.4633 0.6931 78.4609 0.6918 C 78.4605 0.6914 78.4599 0.691 78.4592 0.6905 C 78.457 0.6888 78.4546 0.6871 78.4525 0.6853 C 78.4518 0.6853 78.4512 0.6845 78.4507 0.6845 C 78.4483 0.6827 78.4462 0.681 78.4438 0.6793 C 78.4434 0.6788 78.4427 0.6788 78.4423 0.6784 C 78.4399 0.6767 78.4375 0.6749 78.4349 0.6732 C 78.4347 0.6727 78.4345 0.6727 78.434 0.6723 C 78.4314 0.6706 78.4288 0.6688 78.4262 0.6671 C 78.4262 0.6671 78.426 0.6667 78.4258 0.6667 C 78.27 0.5573 78.105 0.4592 77.9329 0.3746 L 77.5408 1.1723 C 78.1547 1.4744 78.6374 1.9879 78.8995 2.6181 Z" fill="#59a8e9"/>			<path d="M 76.3201 15.1111 L 74.4004 15.1111 L 74.4004 16 L 76.3201 16 C 76.324 16 76.3279 16 76.332 16 C 76.334 16 76.3359 16 76.3379 16 C 76.3398 16 76.3418 16 76.3438 16 C 76.3459 16 76.3479 16 76.35 16 C 76.352 16 76.3537 16 76.3557 16 C 76.3576 16 76.3592 16 76.3611 16 C 76.3633 16 76.3654 16 76.3676 16 C 76.3696 16 76.3715 15.9996 76.3735 15.9996 C 76.3754 15.9996 76.3774 15.9996 76.3793 15.9996 C 76.3817 15.9996 76.3837 15.9996 76.3861 15.9996 C 76.3878 15.9996 76.3895 15.9996 76.3911 15.9996 C 76.3934 15.9996 76.3956 15.9991 76.398 15.9991 C 76.3995 15.9991 76.4013 15.9991 76.403 15.9991 C 76.4056 15.9991 76.408 15.9991 76.4106 15.9991 C 76.4119 15.9991 76.4134 15.9991 76.4147 15.9987 C 76.4173 15.9987 76.4195 15.9987 76.4221 15.9987 C 76.4236 15.9987 76.4251 15.9987 76.4267 15.9987 C 76.429 15.9987 76.4312 15.9983 76.4336 15.9983 C 76.4353 15.9983 76.4369 15.9983 76.4384 15.9983 C 76.4414 15.9983 76.4442 15.9978 76.4471 15.9978 C 76.4481 15.9978 76.4492 15.9978 76.4501 15.9978 C 76.4529 15.9978 76.4555 15.9978 76.4583 15.9974 C 76.4596 15.9974 76.4607 15.9974 76.4618 15.9974 C 76.4648 15.9974 76.4677 15.997 76.4705 15.997 C 76.4716 15.997 76.4727 15.997 76.4735 15.997 C 76.4768 15.997 76.4798 15.9965 76.4829 15.9965 C 76.4837 15.9965 76.4846 15.9965 76.4855 15.9965 C 76.4885 15.9961 76.4918 15.9961 76.4948 15.9961 C 76.4957 15.9961 76.4963 15.9961 76.4972 15.9961 C 76.5002 15.9957 76.5033 15.9957 76.5065 15.9952 C 76.5072 15.9952 76.508 15.9952 76.5089 15.9952 C 76.5122 15.9952 76.5154 15.9948 76.5187 15.9948 C 76.5193 15.9948 76.52 15.9948 76.5206 15.9948 C 76.5239 15.9944 76.5271 15.9944 76.5306 15.9939 C 76.531 15.9939 76.5317 15.9939 76.5321 15.9939 C 76.5356 15.9939 76.5391 15.9935 76.5423 15.9935 C 76.543 15.9935 76.5434 15.9935 76.5438 15.9935 C 76.5473 15.9931 76.5506 15.9931 76.5538 15.9926 C 76.5545 15.9926 76.5551 15.9926 76.5556 15.9926 C 76.559 15.9922 76.5625 15.9922 76.5658 15.9918 C 76.5664 15.9918 76.5668 15.9918 76.5673 15.9918 C 76.5707 15.9918 76.574 15.9913 76.5775 15.9913 C 76.5779 15.9913 76.5783 15.9909 76.579 15.9909 C 76.5822 15.9909 76.5857 15.9905 76.589 15.9905 C 76.5896 15.9905 76.5901 15.9905 76.5907 15.99 C 76.594 15.99 76.5974 15.9896 76.6007 15.9896 C 76.6013 15.9896 76.6018 15.9892 76.6022 15.9892 C 76.6057 15.9892 76.6092 15.9887 76.6126 15.9887 C 76.6131 15.9883 76.6135 15.9883 76.6139 15.9883 C 76.6174 15.9883 76.6207 15.9879 76.6241 15.9874 C 76.6246 15.9874 76.625 15.9874 76.6254 15.9874 C 76.6289 15.987 76.6322 15.987 76.6356 15.9865 C 76.6361 15.9865 76.6367 15.9865 76.6372 15.9865 C 76.6406 15.9861 76.6437 15.9861 76.6471 15.9857 C 76.6478 15.9857 76.6482 15.9857 76.6489 15.9852 C 76.6523 15.9852 76.6558 15.9848 76.6593 15.9844 C 76.6593 15.9844 76.6599 15.9844 76.6604 15.9844 C 76.6638 15.9839 76.6671 15.9839 76.6706 15.9835 C 76.671 15.9835 76.6714 15.9835 76.6719 15.9835 C 76.6753 15.9831 76.6788 15.9826 76.6823 15.9822 C 76.6827 15.9822 76.6832 15.9822 76.6836 15.9822 C 76.6869 15.9818 76.6903 15.9813 76.6936 15.9813 C 76.6942 15.9809 76.6947 15.9809 76.6951 15.9809 C 76.6986 15.9805 76.702 15.9805 76.7055 15.98 C 76.7059 15.98 76.7062 15.98 76.7066 15.9796 C 76.7101 15.9796 76.7135 15.9792 76.717 15.9787 C 76.7174 15.9787 76.7179 15.9787 76.7181 15.9787 C 76.7218 15.9783 76.7253 15.9779 76.729 15.9774 C 76.729 15.9774 76.7294 15.9774 76.7296 15.9774 C 76.7333 15.977 76.737 15.9766 76.7404 15.9761 C 76.7407 15.9761 76.7409 15.9761 76.7411 15.9761 C 76.7448 15.9757 76.7485 15.9753 76.7522 15.9748 L 76.7526 15.9748 C 76.7563 15.9744 76.7598 15.974 76.7635 15.9735 C 76.7637 15.9735 76.7639 15.9731 76.7643 15.9731 C 76.7678 15.9727 76.7708 15.9722 76.7743 15.9722 C 76.775 15.9718 76.7754 15.9718 76.7758 15.9718 C 76.7791 15.9714 76.7823 15.9709 76.7856 15.9705 C 76.7862 15.9705 76.7867 15.9705 76.7873 15.9705 C 76.7906 15.9701 76.7938 15.9696 76.7971 15.9692 C 76.7977 15.9692 76.7982 15.9688 76.7988 15.9688 C 76.8021 15.9683 76.8053 15.9679 76.8086 15.9675 C 76.809 15.9675 76.8097 15.9675 76.8103 15.9675 C 76.8134 15.967 76.8166 15.9666 76.8197 15.9661 C 76.8203 15.9661 76.8212 15.9657 76.8218 15.9657 C 76.8249 15.9653 76.8279 15.9648 76.8309 15.9644 C 76.8318 15.9644 76.8325 15.9644 76.8333 15.9644 C 76.8364 15.9635 76.8394 15.9631 76.8424 15.9627 C 76.8433 15.9627 76.844 15.9627 76.8446 15.9627 C 76.8477 15.9622 76.8507 15.9618 76.8537 15.9614 C 76.8546 15.9609 76.8553 15.9609 76.8561 15.9609 C 76.8592 15.9605 76.862 15.9601 76.865 15.9596 C 76.8659 15.9596 76.8668 15.9592 76.8676 15.9592 C 76.8704 15.9588 76.873 15.9583 76.8759 15.9579 C 76.877 15.9579 76.878 15.9575 76.8791 15.9575 C 76.8817 15.957 76.8846 15.9566 76.8874 15.9562 C 76.8885 15.9562 76.8893 15.9557 76.8904 15.9557 C 76.893 15.9553 76.8958 15.9549 76.8984 15.9544 C 76.8995 15.954 76.9008 15.954 76.9019 15.954 C 76.9045 15.9536 76.9071 15.9531 76.9097 15.9527 C 76.911 15.9523 76.9121 15.9523 76.9134 15.9518 C 76.9158 15.9514 76.9184 15.951 76.9208 15.951 C 76.9221 15.9505 76.9234 15.9505 76.9247 15.9501 C 76.9271 15.9497 76.9295 15.9492 76.9319 15.9488 C 76.9334 15.9488 76.9347 15.9484 76.9362 15.9484 C 76.9384 15.9479 76.9405 15.9475 76.9427 15.9471 C 76.9444 15.9466 76.946 15.9466 76.9477 15.9462 C 76.9497 15.9458 76.9518 15.9453 76.9538 15.9453 C 76.9555 15.9449 76.9572 15.9444 76.959 15.944 C 76.9609 15.944 76.9629 15.9436 76.9646 15.9431 C 76.9666 15.9427 76.9685 15.9427 76.9705 15.9423 C 76.9722 15.9418 76.974 15.9414 76.9757 15.9414 C 76.9779 15.941 76.9798 15.9405 76.982 15.9401 C 76.9835 15.9397 76.985 15.9397 76.9865 15.9392 C 76.9889 15.9388 76.9911 15.9384 76.9933 15.9379 C 76.9948 15.9375 76.9963 15.9375 76.9976 15.9371 C 77 15.9366 77.0024 15.9362 77.0048 15.9358 C 77.0061 15.9358 77.0072 15.9353 77.0087 15.9349 C 77.0111 15.9345 77.0135 15.934 77.0161 15.9336 C 77.0171 15.9336 77.0184 15.9332 77.0195 15.9332 C 77.0221 15.9323 77.0247 15.9318 77.0273 15.9314 C 77.0284 15.9314 77.0293 15.931 77.0304 15.931 C 77.0332 15.9301 77.036 15.9297 77.0388 15.9292 C 77.0395 15.9288 77.0404 15.9288 77.041 15.9288 C 77.0441 15.9279 77.0473 15.9275 77.0503 15.9266 C 77.0508 15.9266 77.0512 15.9266 77.0519 15.9266 C 77.0551 15.9258 77.0584 15.9253 77.0616 15.9245 L 77.0619 15.9245 L 76.8819 15.0538 C 76.6983 15.092 76.5091 15.1111 76.3201 15.1111 Z" fill="#59a8e9"/>			<path d="M 66.1322 14.6385 L 65.6363 15.3763 C 65.6881 15.411 65.7409 15.4444 65.7945 15.477 C 65.8008 15.4805 65.8071 15.4844 65.8134 15.4883 C 65.8136 15.4883 65.8138 15.4883 65.814 15.4887 C 65.8168 15.49 65.8199 15.4917 65.8225 15.4935 C 65.8229 15.4939 65.8231 15.4939 65.8236 15.4939 C 65.8296 15.4978 65.8355 15.5013 65.8416 15.5048 C 65.8422 15.5052 65.8429 15.5056 65.8435 15.5056 C 65.8459 15.5074 65.8483 15.5087 65.8507 15.51 C 65.8513 15.5104 65.852 15.5108 65.8526 15.5113 C 65.8557 15.513 65.8585 15.5143 65.8615 15.5161 C 65.8618 15.5165 65.8618 15.5165 65.862 15.5165 C 65.8648 15.5182 65.8674 15.5195 65.8702 15.5213 C 65.8711 15.5217 65.872 15.5221 65.8728 15.5226 C 65.875 15.5239 65.877 15.5252 65.8791 15.526 C 65.88 15.5269 65.8809 15.5273 65.8819 15.5278 C 65.8846 15.5295 65.8874 15.5308 65.8902 15.5325 C 65.8911 15.533 65.8919 15.5334 65.8928 15.5338 C 65.895 15.5351 65.8967 15.536 65.8987 15.5373 C 65.9 15.5378 65.9013 15.5386 65.9026 15.5395 C 65.9041 15.5404 65.9058 15.5412 65.9076 15.5421 C 65.9086 15.543 65.9099 15.5434 65.9112 15.5443 C 65.9136 15.5456 65.916 15.5469 65.9184 15.5482 C 65.9199 15.549 65.9214 15.5499 65.9232 15.5508 C 65.9245 15.5516 65.9262 15.5525 65.9275 15.5529 C 65.929 15.5538 65.9306 15.5547 65.9321 15.5555 C 65.9334 15.5564 65.9347 15.5568 65.9362 15.5577 C 65.9377 15.5586 65.9392 15.5595 65.9408 15.5603 C 65.9421 15.5608 65.9431 15.5616 65.9442 15.5621 C 65.9473 15.5638 65.9503 15.5655 65.9533 15.5673 C 65.9544 15.5677 65.9553 15.5681 65.9566 15.5686 C 65.9583 15.5699 65.9601 15.5708 65.9618 15.5716 C 65.9629 15.5721 65.9638 15.5725 65.9646 15.5734 C 65.9709 15.5764 65.9774 15.5799 65.9837 15.5833 C 65.9844 15.5833 65.9848 15.5838 65.9855 15.5842 C 65.9876 15.5851 65.9896 15.5864 65.9918 15.5872 C 65.9924 15.5877 65.9928 15.5881 65.9935 15.5881 C 66.0002 15.5916 66.0069 15.5955 66.0139 15.599 C 66.0141 15.599 66.0145 15.599 66.0148 15.5994 C 66.0171 15.6003 66.0193 15.6016 66.0217 15.6029 C 66.0219 15.6029 66.0221 15.6029 66.0224 15.6029 C 66.0295 15.6068 66.0367 15.6102 66.0441 15.6142 L 66.0443 15.6142 C 66.2997 15.7418 66.5716 15.8407 66.8561 15.9067 C 66.867 15.9088 66.878 15.9114 66.8891 15.9141 C 66.8891 15.9141 66.8893 15.9141 66.8895 15.9141 C 66.8978 15.9158 66.9058 15.9175 66.9141 15.9193 L 66.9143 15.9193 C 66.9169 15.9201 66.9197 15.9206 66.9223 15.921 C 66.9225 15.921 66.9227 15.9214 66.923 15.9214 C 66.931 15.9232 66.939 15.9245 66.9473 15.9262 C 66.9473 15.9262 66.9477 15.9262 66.9477 15.9266 C 66.9505 15.9271 66.9531 15.9275 66.9557 15.9279 C 66.9557 15.9279 66.9562 15.9279 66.9564 15.9284 C 66.9644 15.9297 66.9722 15.9314 66.9803 15.9327 C 66.9807 15.9332 66.9811 15.9332 66.9816 15.9332 C 66.9842 15.9336 66.9865 15.934 66.9892 15.9345 C 66.9896 15.9349 66.99 15.9349 66.9904 15.9349 C 66.998 15.9362 67.0059 15.9379 67.0135 15.9392 C 67.0141 15.9392 67.0148 15.9397 67.0154 15.9397 C 67.0178 15.9401 67.0202 15.9405 67.0226 15.941 C 67.0232 15.941 67.0239 15.941 67.0245 15.9414 C 67.0319 15.9427 67.0393 15.944 67.0469 15.9453 C 67.0477 15.9453 67.0486 15.9458 67.0495 15.9458 C 67.0517 15.9462 67.054 15.9466 67.0562 15.9471 C 67.0571 15.9471 67.0579 15.9471 67.0588 15.9475 C 67.0636 15.9479 67.0681 15.9488 67.0729 15.9497 C 67.0733 15.9497 67.0733 15.9497 67.0738 15.9497 C 67.076 15.9501 67.0781 15.9505 67.0803 15.951 C 67.0816 15.951 67.0825 15.9514 67.0838 15.9514 C 67.0857 15.9518 67.0879 15.9523 67.0898 15.9527 C 67.0909 15.9527 67.092 15.9527 67.0931 15.9531 C 67.0972 15.9536 67.1013 15.9544 67.1053 15.9549 C 67.1061 15.9553 67.107 15.9553 67.1079 15.9553 C 67.11 15.9557 67.112 15.9562 67.1142 15.9562 C 67.1154 15.9566 67.1165 15.9566 67.1178 15.957 C 67.1198 15.9575 67.1217 15.9575 67.1239 15.9579 C 67.125 15.9579 67.1263 15.9583 67.1276 15.9583 C 67.1313 15.9592 67.1348 15.9596 67.1387 15.9601 C 67.1398 15.9601 67.1408 15.9605 67.1421 15.9605 C 67.1441 15.9609 67.146 15.9614 67.148 15.9614 C 67.1493 15.9618 67.1508 15.9618 67.1521 15.9622 C 67.1541 15.9622 67.1558 15.9627 67.1578 15.9631 C 67.1593 15.9631 67.1606 15.9631 67.1619 15.9635 C 67.1654 15.964 67.1688 15.9644 67.1723 15.9648 C 67.1736 15.9653 67.1749 15.9653 67.1764 15.9657 C 67.1782 15.9657 67.1801 15.9661 67.1819 15.9661 C 67.1834 15.9666 67.1851 15.9666 67.1866 15.967 C 67.1884 15.967 67.1901 15.9675 67.1918 15.9675 C 67.1938 15.9679 67.1953 15.9683 67.1971 15.9683 C 67.2001 15.9688 67.2029 15.9692 67.2059 15.9696 C 67.2075 15.9696 67.209 15.9701 67.2107 15.9701 C 67.2125 15.9705 67.2144 15.9705 67.2161 15.9709 C 67.2179 15.9709 67.2194 15.9714 67.2211 15.9714 C 67.2227 15.9718 67.2244 15.9718 67.2261 15.9722 C 67.2281 15.9722 67.2303 15.9727 67.2324 15.9727 C 67.2346 15.9731 67.2372 15.9735 67.2394 15.9735 C 67.2415 15.974 67.2435 15.9744 67.2454 15.9744 C 67.247 15.9748 67.2485 15.9748 67.2502 15.9748 C 67.252 15.9753 67.2539 15.9753 67.2559 15.9757 C 67.2574 15.9757 67.2589 15.9761 67.2604 15.9761 C 67.263 15.9766 67.2658 15.977 67.2684 15.977 C 67.2702 15.9774 67.2719 15.9774 67.2739 15.9779 C 67.2758 15.9779 67.2778 15.9783 67.2797 15.9783 C 67.2815 15.9787 67.2832 15.9787 67.2849 15.9787 C 67.2867 15.9792 67.2884 15.9792 67.2901 15.9796 C 67.2917 15.9796 67.2934 15.9796 67.2949 15.98 C 67.2975 15.98 67.2999 15.9805 67.3025 15.9809 C 67.3045 15.9809 67.3066 15.9813 67.3088 15.9813 C 67.3108 15.9818 67.3125 15.9818 67.3145 15.9818 C 67.316 15.9822 67.3177 15.9822 67.3192 15.9826 C 67.3212 15.9826 67.3231 15.9826 67.3251 15.9831 C 67.3266 15.9831 67.3279 15.9835 67.3294 15.9835 C 67.3327 15.9839 67.3357 15.9839 67.339 15.9844 C 67.3403 15.9844 67.3416 15.9844 67.3429 15.9848 C 67.3451 15.9848 67.3472 15.9852 67.3492 15.9852 C 67.3507 15.9852 67.3524 15.9857 67.354 15.9857 C 67.3559 15.9857 67.3581 15.9861 67.36 15.9861 C 67.3613 15.9865 67.3626 15.9865 67.3642 15.9865 C 67.3674 15.987 67.3704 15.987 67.3737 15.9874 C 67.375 15.9874 67.3761 15.9874 67.3774 15.9879 C 67.3798 15.9879 67.3819 15.9883 67.3843 15.9883 C 67.3856 15.9883 67.3869 15.9883 67.3882 15.9887 C 67.3906 15.9887 67.393 15.9892 67.3952 15.9892 C 67.3965 15.9892 67.3976 15.9892 67.3989 15.9896 C 67.4021 15.9896 67.4054 15.99 67.4086 15.99 C 67.4097 15.99 67.4108 15.9905 67.4119 15.9905 C 67.4143 15.9905 67.4167 15.9909 67.4193 15.9909 C 67.4206 15.9909 67.4219 15.9909 67.4232 15.9913 C 67.4258 15.9913 67.4279 15.9913 67.4306 15.9918 C 67.4316 15.9918 67.4325 15.9918 67.4336 15.9918 C 67.4369 15.9922 67.4403 15.9922 67.4436 15.9926 C 67.4447 15.9926 67.4457 15.9926 67.4468 15.9926 C 67.4494 15.9931 67.4518 15.9931 67.4542 15.9931 C 67.4555 15.9935 67.4568 15.9935 67.4579 15.9935 C 67.4605 15.9935 67.4633 15.9939 67.4659 15.9939 C 67.4668 15.9939 67.4674 15.9939 67.4685 15.9939 C 67.4718 15.9944 67.4753 15.9944 67.4787 15.9948 C 67.4798 15.9948 67.4809 15.9948 67.4818 15.9948 C 67.4844 15.9948 67.4868 15.9952 67.4892 15.9952 C 67.4904 15.9952 67.4918 15.9952 67.4931 15.9952 C 67.4959 15.9957 67.4983 15.9957 67.5011 15.9957 C 67.5017 15.9957 67.5026 15.9957 67.5035 15.9961 C 67.5069 15.9961 67.5104 15.9961 67.5139 15.9965 C 67.5148 15.9965 67.5158 15.9965 67.5167 15.9965 C 67.5193 15.9965 67.5221 15.997 67.5247 15.997 C 67.5258 15.997 67.5269 15.997 67.528 15.997 C 67.5308 15.997 67.5339 15.9974 67.5367 15.9974 C 67.5373 15.9974 67.538 15.9974 67.5386 15.9974 C 67.5421 15.9974 67.5456 15.9978 67.549 15.9978 C 67.5501 15.9978 67.551 15.9978 67.5519 15.9978 C 67.5547 15.9978 67.5571 15.9983 67.5599 15.9983 C 67.561 15.9983 67.5621 15.9983 67.5631 15.9983 C 67.5664 15.9983 67.5692 15.9983 67.5723 15.9987 C 67.5727 15.9987 67.5733 15.9987 67.5738 15.9987 C 67.5773 15.9987 67.5807 15.9987 67.5842 15.9987 C 67.5853 15.9987 67.5864 15.9991 67.5875 15.9991 C 67.5901 15.9991 67.5927 15.9991 67.5953 15.9991 C 67.5964 15.9991 67.5974 15.9991 67.5985 15.9991 C 67.6016 15.9991 67.605 15.9996 67.6083 15.9996 L 67.6089 15.9996 C 67.6126 15.9996 67.6161 15.9996 67.6196 15.9996 C 67.6207 15.9996 67.6217 15.9996 67.6226 15.9996 C 67.6254 15.9996 67.6278 15.9996 67.6304 16 C 67.6317 16 67.6328 16 67.6339 16 C 67.6372 16 67.6406 16 67.6441 16 L 67.6445 16 C 67.648 16 67.6515 16 67.6549 16 C 67.656 16 67.6571 16 67.6582 16 C 67.661 16 67.6634 16 67.6662 16 C 67.6671 16 67.6682 16 67.6693 16 C 67.6727 16 67.6762 16 67.6799 16 L 68.1782 16 L 68.1782 15.1111 L 67.6799 15.1111 C 67.1274 15.1111 66.592 14.9479 66.1322 14.6385 Z" fill="#59a8e9"/>			<path d="M 69.9559 16 L 72.6226 16 L 72.6226 15.1111 L 69.9559 15.1111 L 69.9559 16 Z" fill="#59a8e9"/>			<path d="M 79.1111 4.0174 L 79.1111 6.684 L 80 6.684 L 80 4.0174 L 79.1111 4.0174 Z" fill="#59a8e9"/>			<path d="M 79.1111 11.1285 L 80 11.1285 L 80 8.4618 L 79.1111 8.4618 L 79.1111 11.1285 Z" fill="#59a8e9"/>			<path d="M 78.0853 14.4766 L 78.6495 15.1636 C 78.6578 15.1567 78.666 15.1497 78.6743 15.1428 C 78.6745 15.1428 78.6747 15.1428 78.6749 15.1424 C 78.6775 15.1402 78.6799 15.138 78.6825 15.1358 C 78.6829 15.1358 78.6834 15.1354 78.6838 15.135 C 78.6862 15.1328 78.6884 15.1311 78.6905 15.1293 C 78.6914 15.1285 78.6921 15.128 78.6927 15.1276 C 78.6949 15.1259 78.6971 15.1237 78.699 15.122 C 78.6997 15.1215 78.7003 15.1211 78.7012 15.1202 C 78.7031 15.1185 78.7051 15.1167 78.707 15.115 C 78.7079 15.1146 78.7088 15.1137 78.7094 15.1133 C 78.7116 15.1115 78.7133 15.1098 78.7153 15.1081 C 78.7161 15.1072 78.717 15.1068 78.7177 15.1059 C 78.7196 15.1046 78.7214 15.1029 78.7233 15.1011 C 78.7242 15.1003 78.7253 15.0998 78.7261 15.099 C 78.7279 15.0972 78.7298 15.0955 78.7316 15.0942 C 78.7324 15.0933 78.7333 15.0924 78.7342 15.0916 C 78.7361 15.0903 78.7378 15.0885 78.7398 15.0868 C 78.7407 15.0864 78.7413 15.0855 78.7424 15.0846 C 78.7441 15.0829 78.7461 15.0812 78.748 15.0799 C 78.7487 15.079 78.7496 15.0781 78.7504 15.0777 C 78.7524 15.076 78.7541 15.0742 78.7563 15.0725 C 78.7569 15.0716 78.7578 15.0712 78.7585 15.0703 C 78.7608 15.0686 78.763 15.0664 78.7652 15.0642 C 78.7656 15.0642 78.7661 15.0638 78.7665 15.0634 C 78.7719 15.0586 78.7773 15.0534 78.7826 15.0486 C 78.7834 15.0482 78.7843 15.0473 78.7852 15.0464 C 78.7869 15.0447 78.7886 15.0434 78.7904 15.0417 C 78.7917 15.0408 78.793 15.0395 78.7941 15.0382 C 78.7956 15.0369 78.7969 15.0356 78.7982 15.0347 C 78.7995 15.0334 78.8008 15.0321 78.8021 15.0312 C 78.8034 15.0299 78.8047 15.0286 78.8062 15.0273 C 78.8075 15.026 78.8088 15.0247 78.8099 15.0239 C 78.8112 15.0226 78.8127 15.0213 78.814 15.02 C 78.8153 15.0191 78.8166 15.0178 78.8179 15.0165 C 78.8192 15.0152 78.8205 15.0139 78.8218 15.013 C 78.8231 15.0117 78.8244 15.0104 78.826 15.0091 C 78.8273 15.0078 78.8283 15.0069 78.8294 15.0056 C 78.8309 15.0043 78.8322 15.003 78.8335 15.0017 C 78.8349 15.0004 78.8362 14.9996 78.8372 14.9983 C 78.8388 14.997 78.8401 14.9957 78.8416 14.9944 C 78.8427 14.9935 78.8438 14.9922 78.8451 14.9909 C 78.8464 14.9896 78.8479 14.9883 78.8492 14.987 C 78.8503 14.9861 78.8516 14.9848 78.8526 14.9839 C 78.8542 14.9826 78.8557 14.9809 78.8572 14.9796 C 78.8581 14.9787 78.8589 14.9779 78.86 14.977 C 78.8615 14.9753 78.8633 14.974 78.8648 14.9722 C 78.8657 14.9714 78.8665 14.9705 78.8674 14.9696 C 78.8691 14.9679 78.8709 14.9666 78.8726 14.9648 C 78.873 14.9644 78.8735 14.964 78.8741 14.9631 C 78.8809 14.9566 78.8876 14.9501 78.8943 14.9436 C 78.8945 14.9436 78.8945 14.9431 78.8945 14.9431 C 78.8969 14.941 78.8991 14.9388 78.901 14.9371 C 78.9015 14.9366 78.9019 14.9362 78.9023 14.9358 C 78.9043 14.9336 78.9063 14.9319 78.9082 14.9301 C 78.9086 14.9293 78.9093 14.9288 78.9097 14.9284 C 78.9117 14.9262 78.9136 14.9245 78.9156 14.9227 C 78.916 14.9219 78.9167 14.9214 78.9171 14.921 C 78.9191 14.9193 78.921 14.9171 78.9227 14.9154 C 78.9234 14.9145 78.924 14.9141 78.9247 14.9132 C 78.9267 14.9115 78.9284 14.9097 78.9301 14.908 C 78.9308 14.9071 78.9314 14.9067 78.9321 14.9058 C 78.9338 14.9041 78.9358 14.9023 78.9375 14.9006 C 78.9381 14.8997 78.9388 14.8993 78.9397 14.8984 C 78.9414 14.8967 78.9431 14.8945 78.9449 14.8928 C 78.9455 14.8924 78.9462 14.8915 78.9468 14.8911 C 78.9486 14.8893 78.9505 14.8872 78.9523 14.8854 C 78.9529 14.8846 78.9536 14.8841 78.9542 14.8837 C 78.9559 14.8815 78.9579 14.8798 78.9596 14.8776 C 78.9603 14.8772 78.9607 14.8767 78.9612 14.8763 C 78.9631 14.8741 78.9653 14.872 78.9672 14.8702 C 78.9674 14.8698 78.9677 14.8694 78.9679 14.8694 C 78.9868 14.8498 79.0054 14.8299 79.0239 14.8099 C 79.0263 14.8073 79.0284 14.8051 79.0308 14.8025 L 79.031 14.8021 C 79.0332 14.7999 79.0354 14.7973 79.0375 14.7951 C 79.0378 14.7947 79.038 14.7947 79.038 14.7943 C 79.0404 14.7921 79.0425 14.7895 79.0447 14.7873 C 79.0447 14.7869 79.0449 14.7869 79.0449 14.7869 C 79.0471 14.7843 79.0493 14.7821 79.0514 14.7795 C 79.0514 14.7795 79.0517 14.7791 79.0519 14.7791 C 79.054 14.7765 79.0564 14.7743 79.0586 14.7717 C 79.0586 14.7717 79.0586 14.7717 79.0588 14.7717 C 79.3843 14.4084 79.6391 13.9809 79.8012 13.5108 C 79.8012 13.5104 79.8012 13.5104 79.8014 13.51 C 79.8023 13.5074 79.8034 13.5043 79.8043 13.5017 C 79.8045 13.5009 79.8047 13.5004 79.8049 13.4996 C 79.8058 13.497 79.8066 13.4948 79.8075 13.4918 C 79.8077 13.4913 79.8082 13.49 79.8084 13.4896 C 79.8092 13.487 79.8101 13.4848 79.8108 13.4822 C 79.8112 13.4813 79.8116 13.48 79.8119 13.4787 C 79.8127 13.4766 79.8134 13.4744 79.8142 13.4722 C 79.8147 13.4709 79.8151 13.4696 79.8153 13.4688 C 79.8162 13.4666 79.8168 13.464 79.8175 13.4618 C 79.8179 13.4605 79.8184 13.4596 79.8188 13.4583 C 79.8194 13.4562 79.8203 13.454 79.821 13.4518 C 79.8214 13.4505 79.8218 13.4492 79.8221 13.4479 C 79.8229 13.4457 79.8236 13.4436 79.8242 13.4414 C 79.8247 13.4401 79.8251 13.4388 79.8255 13.4375 C 79.8262 13.4353 79.8268 13.4332 79.8275 13.431 C 79.8279 13.4297 79.8283 13.4284 79.8288 13.4271 C 79.8294 13.4249 79.8301 13.4232 79.8307 13.421 C 79.8312 13.4197 79.8316 13.418 79.832 13.4167 C 79.8327 13.4145 79.8333 13.4128 79.834 13.4106 C 79.8346 13.4084 79.8353 13.4067 79.8359 13.4045 C 79.8364 13.4032 79.8368 13.4019 79.8372 13.4002 C 79.8383 13.3967 79.8394 13.3937 79.8405 13.3898 C 79.8407 13.3893 79.8409 13.3885 79.8411 13.3876 C 79.842 13.385 79.8429 13.3819 79.8438 13.3793 C 79.844 13.3785 79.8442 13.3776 79.8446 13.3763 C 79.8453 13.3737 79.8461 13.3715 79.8468 13.3689 C 79.8472 13.3676 79.8474 13.3668 79.8479 13.3655 C 79.8485 13.3629 79.8492 13.3607 79.85 13.3581 C 79.8503 13.3572 79.8507 13.3559 79.8509 13.355 C 79.8516 13.3524 79.8524 13.3498 79.8531 13.3477 C 79.8535 13.3464 79.8537 13.3455 79.8542 13.3442 C 79.8548 13.342 79.8555 13.339 79.8563 13.3368 C 79.8566 13.3359 79.8568 13.3346 79.8572 13.3338 C 79.8579 13.3312 79.8587 13.3286 79.8594 13.326 C 79.8596 13.3251 79.8598 13.3242 79.8602 13.3234 C 79.8609 13.3208 79.8618 13.3177 79.8624 13.3151 C 79.8628 13.3142 79.8628 13.3134 79.8631 13.3125 C 79.8639 13.3099 79.8648 13.3069 79.8657 13.3038 C 79.8659 13.3034 79.8659 13.3025 79.8661 13.3021 C 79.867 13.299 79.8678 13.2956 79.8687 13.2925 C 79.8689 13.2921 79.8689 13.2921 79.8689 13.2917 C 79.9039 13.1649 79.9323 13.0356 79.9533 12.9036 L 79.076 12.7626 C 78.9681 13.4314 78.6163 14.0404 78.0853 14.4766 Z" fill="#59a8e9"/>			<path d="M 64.8889 7.0404 L 64 7.0404 L 64 9.707 L 64.8889 9.707 L 64.8889 7.0404 Z" fill="#59a8e9"/>			<path d="M 64.8889 3.6801 C 64.8889 3.4045 64.9293 3.1328 65.0093 2.8715 L 64.1591 2.6115 C 64.0964 2.8168 64.0512 3.0291 64.0254 3.2474 C 64.0245 3.2552 64.0237 3.2626 64.0228 3.2704 C 64.0228 3.2704 64.0228 3.2704 64.0228 3.2708 C 64.0224 3.2743 64.0219 3.2782 64.0215 3.2817 C 64.0215 3.2821 64.0215 3.2821 64.0215 3.2821 C 64.0206 3.2899 64.02 3.2973 64.0191 3.3051 C 64.0191 3.3051 64.0191 3.3051 64.0191 3.3056 C 64.0187 3.309 64.0182 3.3129 64.018 3.3164 C 64.018 3.3164 64.018 3.3168 64.0178 3.3168 C 64.0171 3.3242 64.0165 3.3316 64.0158 3.339 C 64.0156 3.3398 64.0156 3.3403 64.0156 3.3407 C 64.0152 3.3442 64.015 3.3477 64.0148 3.3511 C 64.0148 3.3516 64.0148 3.3516 64.0148 3.3516 C 64.0143 3.3555 64.0139 3.3589 64.0137 3.3628 C 64.0137 3.3633 64.0137 3.3633 64.0135 3.3637 C 64.0132 3.3668 64.013 3.3702 64.0128 3.3737 C 64.0126 3.3741 64.0126 3.375 64.0126 3.3754 C 64.0122 3.3793 64.0119 3.3828 64.0117 3.3863 C 64.0113 3.3902 64.0111 3.3937 64.0108 3.3976 C 64.0108 3.398 64.0108 3.3984 64.0106 3.3989 C 64.0104 3.4019 64.0102 3.4054 64.01 3.408 C 64.01 3.4089 64.01 3.4097 64.0098 3.4106 C 64.0093 3.4175 64.0089 3.4249 64.0082 3.4319 C 64.0082 3.4327 64.0082 3.4336 64.0082 3.4345 C 64.008 3.4375 64.0078 3.4401 64.0076 3.4431 C 64.0076 3.444 64.0076 3.4444 64.0074 3.4453 C 64.0072 3.4488 64.0069 3.4523 64.0067 3.4562 C 64.0067 3.4562 64.0067 3.4566 64.0067 3.457 C 64.0065 3.4601 64.0063 3.4635 64.0061 3.4666 C 64.0061 3.4674 64.0061 3.4683 64.0061 3.4692 C 64.0059 3.4722 64.0056 3.4753 64.0054 3.4783 C 64.0054 3.4787 64.0054 3.4796 64.0054 3.48 C 64.0052 3.4839 64.005 3.4874 64.0048 3.4909 C 64.0048 3.4913 64.0048 3.4922 64.0048 3.4926 C 64.0046 3.4957 64.0043 3.4987 64.0043 3.5017 C 64.0043 3.5026 64.0041 3.5035 64.0041 3.5043 C 64.0039 3.5074 64.0039 3.5109 64.0037 3.5139 C 64.0037 3.5143 64.0037 3.5148 64.0037 3.5152 C 64.0035 3.5187 64.0035 3.5221 64.0033 3.5256 C 64.0033 3.5265 64.003 3.5274 64.003 3.5282 C 64.003 3.5308 64.0028 3.5339 64.0028 3.5365 C 64.0028 3.5378 64.0026 3.5386 64.0026 3.5395 C 64.0026 3.543 64.0024 3.5464 64.0024 3.5495 C 64.0022 3.5499 64.0022 3.5504 64.0022 3.5508 C 64.0022 3.5538 64.002 3.5573 64.002 3.5608 C 64.002 3.5616 64.002 3.5625 64.0017 3.5638 C 64.0017 3.5664 64.0017 3.569 64.0015 3.5716 C 64.0015 3.5725 64.0015 3.5738 64.0015 3.5747 C 64.0013 3.5781 64.0013 3.5816 64.0013 3.5851 C 64.0013 3.5855 64.0013 3.5859 64.0013 3.5859 C 64.0011 3.5894 64.0011 3.5925 64.0009 3.5959 C 64.0009 3.5968 64.0009 3.5977 64.0009 3.599 C 64.0009 3.6016 64.0009 3.6042 64.0006 3.6072 C 64.0006 3.6081 64.0006 3.6089 64.0006 3.6098 C 64.0006 3.6133 64.0004 3.6168 64.0004 3.6202 C 64.0004 3.6211 64.0004 3.6215 64.0004 3.6224 C 64.0004 3.625 64.0004 3.628 64.0004 3.6311 C 64.0002 3.6319 64.0002 3.6328 64.0002 3.6341 C 64.0002 3.6372 64.0002 3.6402 64.0002 3.6432 C 64.0002 3.6437 64.0002 3.6441 64.0002 3.645 C 64.0002 3.6484 64 3.6519 64 3.6554 C 64 3.6563 64 3.6571 64 3.658 C 64 3.661 64 3.6636 64 3.6662 C 64 3.6671 64 3.6684 64 3.6693 C 64 3.6727 64 3.6762 64 3.6801 L 64 5.2626 L 64.8889 5.2626 L 64.8889 3.6801 Z" fill="#59a8e9"/>			<path d="M 76.3201 0 L 73.6534 0 L 73.6534 0.8889 L 76.3201 0.8889 L 76.3201 0 Z" fill="#59a8e9"/>			<path d="M 71.8756 0 L 69.209 0 L 69.209 0.8889 L 71.8756 0.8889 L 71.8756 0 Z" fill="#59a8e9"/>			<path d="M 67.4913 0.8954 L 67.4314 0.0087 C 67.0119 0.0369 66.6113 0.1363 66.2413 0.2947 C 66.2409 0.2947 66.2404 0.2951 66.24 0.2951 C 66.237 0.2964 66.2342 0.2977 66.2311 0.299 C 66.2307 0.299 66.2303 0.2995 66.2296 0.2995 C 66.227 0.3008 66.2242 0.3021 66.2214 0.3034 C 66.2207 0.3038 66.2201 0.3038 66.2194 0.3043 C 66.2166 0.3056 66.214 0.3064 66.2114 0.3077 C 66.2105 0.3082 66.2099 0.3082 66.2092 0.3086 C 66.2066 0.3099 66.204 0.3108 66.2014 0.3121 C 66.2005 0.3125 66.1999 0.3129 66.199 0.3129 C 66.1964 0.3142 66.1938 0.3155 66.1912 0.3164 C 66.1905 0.3168 66.1897 0.3173 66.189 0.3177 C 66.1862 0.3186 66.1836 0.3199 66.181 0.3212 C 66.1803 0.3216 66.1797 0.3216 66.179 0.3221 C 66.176 0.3234 66.1732 0.3247 66.1701 0.326 C 66.1699 0.3264 66.1695 0.3264 66.1691 0.3264 C 66.1623 0.3294 66.1558 0.3325 66.1493 0.3355 C 66.148 0.3364 66.1467 0.3368 66.1454 0.3372 C 66.1434 0.3381 66.1415 0.339 66.1395 0.3403 C 66.138 0.3407 66.1363 0.3416 66.1348 0.3424 C 66.133 0.3433 66.1315 0.3438 66.1298 0.3446 C 66.1283 0.3455 66.1265 0.3464 66.125 0.3468 C 66.1233 0.3477 66.122 0.3485 66.1202 0.3494 C 66.1185 0.3498 66.1168 0.3507 66.1148 0.3516 C 66.1135 0.3524 66.112 0.3529 66.1105 0.3537 C 66.1087 0.3546 66.107 0.3555 66.1053 0.3563 C 66.1037 0.3568 66.1024 0.3576 66.1009 0.3585 C 66.0992 0.3594 66.0972 0.3602 66.0953 0.3611 C 66.094 0.3615 66.0929 0.3624 66.0914 0.3628 C 66.0894 0.3637 66.0877 0.3646 66.0857 0.3655 C 66.0844 0.3663 66.0831 0.3668 66.0818 0.3676 C 66.0799 0.3685 66.0779 0.3694 66.0757 0.3707 C 66.0749 0.3711 66.0738 0.3715 66.0727 0.372 C 66.0705 0.3733 66.0684 0.3741 66.0662 0.375 C 66.0653 0.3754 66.0645 0.3759 66.0638 0.3763 C 66.0612 0.3776 66.0588 0.3789 66.0564 0.3802 L 66.0558 0.3802 C 66.0282 0.3941 66.0009 0.408 65.9735 0.4223 L 65.9733 0.4223 C 65.6356 0.6007 65.3283 0.8303 65.0623 1.1003 L 65.6953 1.724 C 66.1771 1.2353 66.8149 0.941 67.4913 0.8954 Z" fill="#59a8e9"/>			<path d="M 64.8889 11.4848 L 64 11.4848 L 64 12.3203 C 64 12.3238 64 12.3273 64 12.3307 C 64 12.3316 64 12.3325 64 12.3329 C 64 12.3364 64 12.3398 64 12.3433 C 64 12.3442 64 12.3442 64 12.3451 C 64 12.3481 64.0002 12.3516 64.0002 12.3546 C 64.0002 12.355 64.0002 12.3559 64.0002 12.3563 C 64.0002 12.3598 64.0002 12.3633 64.0002 12.3668 C 64.0002 12.3672 64.0002 12.3681 64.0002 12.3689 C 64.0004 12.372 64.0004 12.3754 64.0004 12.3789 L 64.0004 12.3793 C 64.0004 12.3828 64.0006 12.3863 64.0006 12.3898 C 64.0006 12.3906 64.0006 12.3915 64.0006 12.3924 C 64.0009 12.3958 64.0009 12.3989 64.0009 12.4023 C 64.0009 12.4032 64.0009 12.4036 64.0009 12.4041 C 64.0011 12.4071 64.0011 12.4106 64.0011 12.4136 C 64.0013 12.4141 64.0013 12.4149 64.0013 12.4154 C 64.0013 12.4188 64.0013 12.4223 64.0015 12.4253 C 64.0015 12.4262 64.0015 12.4271 64.0015 12.4279 C 64.0017 12.4314 64.0017 12.434 64.0017 12.4371 C 64.002 12.4375 64.002 12.4384 64.002 12.4388 C 64.002 12.4418 64.0022 12.4453 64.0022 12.4488 C 64.0022 12.4496 64.0024 12.4505 64.0024 12.4514 C 64.0024 12.4549 64.0026 12.4579 64.0026 12.4614 C 64.0026 12.4618 64.0028 12.4627 64.0028 12.4631 C 64.0028 12.4661 64.003 12.4692 64.003 12.4722 C 64.003 12.4727 64.0033 12.4735 64.0033 12.4744 C 64.0033 12.4779 64.0035 12.4809 64.0037 12.4844 C 64.0037 12.4852 64.0037 12.4861 64.0037 12.487 C 64.0039 12.49 64.0041 12.4926 64.0041 12.4957 C 64.0041 12.4965 64.0041 12.497 64.0043 12.4974 C 64.0043 12.5009 64.0046 12.5043 64.0048 12.5078 C 64.0048 12.5082 64.0048 12.5091 64.0048 12.51 C 64.005 12.5134 64.0052 12.5169 64.0054 12.5204 C 64.0054 12.5208 64.0054 12.5213 64.0054 12.5217 C 64.0056 12.5247 64.0059 12.5278 64.0061 12.5308 C 64.0061 12.5317 64.0061 12.5325 64.0061 12.533 C 64.0063 12.5364 64.0065 12.5399 64.0067 12.543 C 64.0067 12.5438 64.0067 12.5447 64.0069 12.5456 C 64.0069 12.5486 64.0072 12.5512 64.0074 12.5538 C 64.0074 12.5547 64.0074 12.5556 64.0076 12.5564 C 64.0078 12.5595 64.008 12.5625 64.0082 12.5655 C 64.0082 12.5668 64.0082 12.5677 64.0085 12.569 C 64.0087 12.5721 64.0089 12.5751 64.0091 12.5786 C 64.0091 12.579 64.0091 12.5799 64.0091 12.5807 C 64.0093 12.5833 64.0096 12.5859 64.0098 12.5885 C 64.0098 12.5898 64.01 12.5907 64.01 12.592 C 64.0102 12.5951 64.0104 12.5981 64.0106 12.6011 C 64.0108 12.602 64.0108 12.6033 64.0108 12.6042 C 64.0111 12.6068 64.0113 12.6094 64.0115 12.6115 C 64.0115 12.6129 64.0117 12.6137 64.0117 12.6146 C 64.0119 12.6176 64.0122 12.6207 64.0126 12.6237 C 64.0126 12.625 64.0126 12.6263 64.0128 12.6272 C 64.013 12.6302 64.0132 12.6332 64.0135 12.6363 C 64.0137 12.6372 64.0137 12.638 64.0139 12.6389 C 64.0141 12.6415 64.0143 12.6441 64.0145 12.6467 C 64.0145 12.648 64.0148 12.6489 64.0148 12.6502 C 64.015 12.6532 64.0154 12.6563 64.0156 12.6593 C 64.0156 12.6602 64.0158 12.6615 64.0158 12.6628 C 64.0161 12.6649 64.0163 12.6671 64.0165 12.6697 C 64.0167 12.6706 64.0167 12.6719 64.0169 12.6727 C 64.0171 12.6758 64.0174 12.6788 64.0178 12.6819 C 64.0178 12.6832 64.018 12.684 64.0182 12.6853 C 64.0184 12.6884 64.0187 12.691 64.0189 12.6936 C 64.0191 12.6949 64.0191 12.6957 64.0193 12.6966 C 64.0195 12.6992 64.0197 12.7018 64.02 12.7044 C 64.0202 12.7057 64.0204 12.707 64.0204 12.7079 C 64.0208 12.7109 64.021 12.714 64.0215 12.717 C 64.0215 12.7183 64.0217 12.7192 64.0217 12.7205 C 64.0221 12.7227 64.0224 12.7253 64.0226 12.7274 C 64.0226 12.7283 64.0228 12.7296 64.023 12.7309 C 64.0232 12.7339 64.0237 12.7365 64.0239 12.7396 C 64.0241 12.7409 64.0243 12.7422 64.0243 12.7435 C 64.0247 12.7457 64.025 12.7478 64.0252 12.7504 C 64.0254 12.7522 64.0256 12.7535 64.0258 12.7552 C 64.026 12.7574 64.0263 12.7595 64.0265 12.7617 C 64.0267 12.7635 64.0269 12.7648 64.0271 12.7661 C 64.0273 12.7691 64.0278 12.7717 64.028 12.7743 C 64.0282 12.776 64.0284 12.7773 64.0286 12.7786 C 64.0289 12.7808 64.0291 12.7821 64.0293 12.7843 C 64.0295 12.7856 64.0297 12.7873 64.0299 12.7886 C 64.0302 12.7912 64.0306 12.7938 64.0308 12.7964 C 64.0313 12.7982 64.0313 12.7999 64.0317 12.8016 C 64.0319 12.8034 64.0321 12.8051 64.0323 12.8069 C 64.0326 12.809 64.0328 12.8112 64.0332 12.8134 C 64.0334 12.8151 64.0336 12.8173 64.0339 12.819 C 64.0341 12.8207 64.0343 12.822 64.0345 12.8238 C 64.0349 12.826 64.0352 12.8281 64.0354 12.8299 C 64.0358 12.832 64.036 12.8342 64.0365 12.8364 C 64.0367 12.8381 64.0369 12.8394 64.0371 12.8411 C 64.0373 12.8433 64.0375 12.845 64.038 12.8472 C 64.0382 12.8494 64.0386 12.8516 64.0388 12.8537 C 64.0391 12.8555 64.0393 12.8572 64.0397 12.8589 C 64.0399 12.8602 64.0401 12.862 64.0404 12.8633 C 64.0406 12.8659 64.041 12.8685 64.0415 12.8715 C 64.0417 12.8728 64.0419 12.8746 64.0421 12.8759 C 64.0425 12.8776 64.0428 12.8793 64.043 12.8811 C 64.0432 12.8828 64.0434 12.8841 64.0436 12.8858 C 64.0441 12.8884 64.0445 12.8915 64.0449 12.8941 C 64.0451 12.8954 64.0454 12.8967 64.0456 12.898 C 64.0462 12.9015 64.0467 12.9045 64.0473 12.908 C 64.0473 12.9088 64.0475 12.9097 64.0477 12.9106 C 64.048 12.9123 64.0482 12.9145 64.0486 12.9162 C 64.0488 12.9175 64.049 12.9184 64.049 12.9197 C 64.0497 12.9232 64.0503 12.9262 64.0508 12.9297 C 64.051 12.9306 64.0512 12.9314 64.0512 12.9323 C 64.0517 12.9345 64.0519 12.9362 64.0523 12.9384 C 64.0525 12.9392 64.0525 12.9401 64.0527 12.941 C 64.0534 12.9445 64.054 12.9479 64.0545 12.9514 C 64.0547 12.9523 64.0549 12.9536 64.0551 12.9544 C 64.0562 12.9605 64.0573 12.967 64.0584 12.9731 C 64.0586 12.974 64.0588 12.9753 64.059 12.9757 C 64.0597 12.98 64.0603 12.9839 64.0612 12.9879 C 64.0612 12.9883 64.0612 12.9883 64.0612 12.9887 C 64.0616 12.9909 64.0621 12.9931 64.0625 12.9952 C 64.0625 12.9957 64.0627 12.9961 64.0627 12.9965 C 64.0636 13.0004 64.0642 13.0048 64.0651 13.0087 C 64.0651 13.0091 64.0653 13.01 64.0653 13.0104 C 64.0666 13.0169 64.0679 13.0239 64.0692 13.0304 L 64.0694 13.0313 C 64.0707 13.0382 64.0723 13.0451 64.0736 13.0521 C 64.0744 13.0564 64.0755 13.0612 64.0764 13.0655 C 64.0764 13.066 64.0764 13.066 64.0766 13.0664 C 64.0779 13.0729 64.0794 13.0799 64.0809 13.0868 L 64.0809 13.0872 C 64.1519 13.4188 64.268 13.7344 64.4223 14.0265 C 64.4256 14.0325 64.4288 14.0391 64.4321 14.0451 L 64.4323 14.0451 C 64.4342 14.049 64.4364 14.0529 64.4386 14.0569 C 64.4386 14.0573 64.4388 14.0573 64.4388 14.0577 C 64.4399 14.0595 64.441 14.0616 64.4421 14.0634 C 64.4421 14.0638 64.4423 14.0638 64.4425 14.0642 C 64.4442 14.0677 64.4462 14.0712 64.4481 14.0747 C 64.4483 14.0751 64.4486 14.0755 64.4488 14.076 L 65.2285 13.6493 C 65.0063 13.243 64.8889 12.7834 64.8889 12.3203 L 64.8889 11.4848 Z" fill="#59a8e9"/>			<path d="M 75.9672 4.3724 C 75.8071 4.2138 75.5462 4.2146 75.3869 4.3739 L 70.8288 8.9431 C 70.6695 9.1026 70.4086 9.1026 70.2494 8.9436 L 68.5859 7.2841 C 68.4267 7.1246 68.1656 7.1246 68.0061 7.2841 L 66.982 8.3084 C 66.8227 8.4677 66.8223 8.7289 66.9811 8.8885 L 69.5842 11.5037 C 69.7435 11.6634 70.0577 11.7943 70.2832 11.7943 L 70.7608 11.7943 C 70.9861 11.7943 71.3008 11.6636 71.4596 11.5041 L 76.9876 5.9633 C 77.1467 5.8036 77.146 5.5434 76.9863 5.3846 L 75.9672 4.3724 Z" fill="#59a8e9"/>		</g>		<g>			<path d="M 13.359 2.6432 L 2.6855 2.6432 L 2.6855 5.3729 L 13.359 5.3729 L 13.359 2.6432 Z" fill="#59a8e9"/>			<path d="M 5.4085 6.8484 L 2.6855 6.8484 L 2.6855 13.3329 L 5.4085 13.3329 L 5.4085 6.8484 Z" fill="#59a8e9"/>			<path d="M 7.1015 13.3329 L 13.3596 13.3329 L 13.3596 6.8484 L 7.1015 6.8484 L 7.1015 13.3329 Z" fill="#59a8e9"/>			<path d="M 0 0 L 0 16 L 16 16 L 16 0 L 0 0 ZM 15.1118 15.1105 L 0.8882 15.1105 L 0.8882 0.8895 L 15.1118 0.8895 L 15.1118 15.1105 Z" fill="#59a8e9"/>		</g>		<g>			<path d="M 16 2 L 16 14 L 32 14 L 32 2 L 16 2 ZM 25.8219 3.3333 L 25.8219 12.6667 L 22.1595 12.6667 L 22.1595 3.3333 L 25.8219 3.3333 ZM 17.3318 3.3333 L 20.8277 3.3333 L 20.8277 12.6667 L 17.3318 12.6667 L 17.3318 3.3333 ZM 30.6682 12.6667 L 27.1536 12.6667 L 27.1536 3.3333 L 30.6682 3.3333 L 30.6682 12.6667 Z" fill="#59a8e9"/>		</g>		<g>			<path d="M 40.277 4 L 40.277 5.2206 L 48 5.2206 L 48 4 L 40.277 4 Z" fill="#59a8e9"/>			<path d="M 40.277 8.6103 L 48 8.6103 L 48 7.3898 L 40.277 7.3898 L 40.277 8.6103 Z" fill="#59a8e9"/>			<path d="M 40.277 12 L 48 12 L 48 10.7796 L 40.277 10.7796 L 40.277 12 Z" fill="#59a8e9"/>			<path d="M 32 12 L 38.3255 12 L 38.3255 4 L 32 4 L 32 12 Z" fill="#59a8e9"/>		</g>		<g>			<path d="M 54.7537 3 L 54.7537 4.2068 L 64 4.2068 L 64 3 L 54.7537 3 Z" fill="#59a8e9"/>			<path d="M 54.7537 7.002 L 64 7.002 L 64 5.7952 L 54.7537 5.7952 L 54.7537 7.002 Z" fill="#59a8e9"/>			<path d="M 54.7537 10.2044 L 64 10.2044 L 64 8.9978 L 54.7537 8.9978 L 54.7537 10.2044 Z" fill="#59a8e9"/>			<path d="M 54.7537 13 L 63.9998 13 L 63.9998 11.7937 L 54.7537 11.7937 L 54.7537 13 Z" fill="#59a8e9"/>			<path d="M 48 7.002 L 52.9157 7.002 L 52.9157 3 L 48 3 L 48 7.002 Z" fill="#59a8e9"/>			<path d="M 48 12.9996 L 52.9157 12.9996 L 52.9157 8.9978 L 48 8.9978 L 48 12.9996 Z" fill="#59a8e9"/>		</g>		<g>			<path d="M 100.6667 13 L 112 13 L 109.4902 11.1341 L 100.6667 11.1341 L 100.2422 11.1341 L 99.8958 10.8765 L 98.0855 9.5306 L 96 9.5306 L 100.6667 13 Z" fill="#59a8e9"/>			<path d="M 112 9.7347 L 109.4902 7.8688 L 100.6667 7.8688 L 100.2422 7.8688 L 99.8961 7.6112 L 98.0855 6.2653 L 96 6.2653 L 100.6667 9.7347 L 112 9.7347 Z" fill="#59a8e9"/>			<path d="M 112 6.4694 L 107.3333 3 L 96 3 L 100.6667 6.4694 L 112 6.4694 Z" fill="#59a8e9"/>		</g>		<g>			<path d="M 127.9965 8.9992 L 124.9976 1.0063 L 121.6459 1.0063 L 122.9646 2.8269 L 124.0043 2.8273 L 125.9983 8.9999 L 122.2211 8.9999 L 121.2063 10.823 L 118.7153 10.823 L 117.7835 9.0025 L 114.0026 9.0025 L 115.9991 2.8238 L 117.0425 2.8243 L 118.3578 1.0063 L 115.0033 1.0063 L 112 9.0027 L 112 15 L 128 14.9965 L 127.9965 8.9992 Z" fill="#59a8e9"/>			<path d="M 120.0015 1 L 116.0677 5.5502 L 119.0189 5.5502 L 119.0189 9.7127 L 120.9842 9.7127 L 120.9842 5.5502 L 123.9353 5.5502 L 120.0015 1 Z" fill="#59a8e9"/>		</g>		<path d="M 141.9963 11.488 C 141.03 11.0579 139.5961 9.95 137.4731 9.5693 C 138.016 8.9874 138.427 8.0773 138.8497 6.9992 C 139.0947 6.3744 139.0526 5.8419 139.0526 5.0835 C 139.0526 4.5234 139.158 3.6244 139.0191 3.1303 C 138.5509 1.4607 137.3676 1 135.9812 1 C 134.5938 1 133.4092 1.4628 132.9418 3.1353 C 132.804 3.6279 132.9097 4.5249 132.9097 5.0835 C 132.9097 5.8436 132.8685 6.3779 133.1141 7.0037 C 133.5401 8.0873 133.945 8.9961 134.4859 9.5756 C 132.3798 9.9632 130.9568 11.0629 129.9966 11.4917 C 128.0098 12.3788 128 13.3501 128 13.3501 L 128 15 L 144 14.998 L 144 13.3501 C 144 13.3501 143.9907 12.3756 141.9963 11.488 Z" fill="#59a8e9"/>		<g>			<path d="M 157.3503 2.2141 L 157.3503 1.3535 C 157.3503 0.5061 156.8074 0 155.8978 0 C 154.9884 0 154.4453 0.5061 154.4453 1.3535 L 154.4453 2.2141 L 153.4613 2.2141 L 153.4613 1.3535 C 153.4613 0.5061 152.9184 0 152.0091 0 C 151.0995 0 150.5566 0.5061 150.5566 1.3535 L 150.5566 2.2141 L 149.5726 2.2141 L 149.5726 1.3535 C 149.5726 0.5061 149.0297 0 148.1201 0 C 147.2108 0 146.6676 0.5061 146.6676 1.3535 L 146.6676 2.2141 L 145 2.2141 L 145 16 L 159 16 L 159 2.2141 L 157.3503 2.2141 ZM 155.2232 1.3535 C 155.2232 0.9352 155.4178 0.7658 155.8978 0.7658 C 156.378 0.7658 156.5726 0.9352 156.5726 1.3535 L 156.5726 3.6555 C 156.5726 4.0735 156.378 4.2432 155.8978 4.2432 C 155.4178 4.2432 155.2232 4.0735 155.2232 3.6555 L 155.2232 1.3535 ZM 151.3343 1.3535 C 151.3343 0.9352 151.5289 0.7658 152.0091 0.7658 C 152.489 0.7658 152.6836 0.9352 152.6836 1.3535 L 152.6836 3.6555 C 152.6836 4.0735 152.489 4.2432 152.0091 4.2432 C 151.5289 4.2432 151.3343 4.0735 151.3343 3.6555 L 151.3343 1.3535 ZM 147.4453 1.3535 C 147.4453 0.9352 147.6399 0.7658 148.1201 0.7658 C 148.6001 0.7658 148.7946 0.9352 148.7946 1.3535 L 148.7946 3.6555 C 148.7946 4.0735 148.6001 4.2432 148.1201 4.2432 C 147.6399 4.2432 147.4453 4.0735 147.4453 3.6555 L 147.4453 1.3535 ZM 157.8333 14.8512 L 146.1667 14.8512 L 146.1667 5.2776 L 157.8333 5.2776 L 157.8333 14.8512 Z" fill="#59a8e9"/>			<path d="M 152.0329 11.1665 C 152.0329 10.4362 151.5328 10.0321 150.6582 9.7856 L 150.6582 9.768 C 151.4438 9.5044 151.8721 9.0821 151.8721 8.4228 C 151.8721 7.7544 151.2024 7.2268 150.0508 7.2268 C 149.5061 7.2268 148.9345 7.297 148.4523 7.5171 L 148.5859 8.4841 C 148.9524 8.3082 149.3453 8.1942 149.7473 8.1942 C 150.3721 8.1942 150.5418 8.4052 150.5418 8.7214 C 150.5418 9.1791 150.0952 9.3813 149.3362 9.4337 L 149.3362 10.4012 C 150.4347 10.4627 150.7918 10.6913 150.7918 11.2453 C 150.7918 11.6498 150.3989 11.9576 149.7919 11.9576 C 149.2914 11.9576 148.8987 11.8873 148.4256 11.7112 L 148.2915 12.6786 C 148.6754 12.8282 149.1843 12.9248 149.6669 12.9248 C 150.9972 12.9248 152.0329 12.318 152.0329 11.1665 Z" fill="#59a8e9"/>			<path d="M 154.0767 8.7482 L 154.0767 12.8369 L 155.2734 12.8369 L 155.2734 7.3151 L 154.675 7.3151 L 152.9604 8.1501 L 153.0942 9.1173 L 154.0767 8.7482 Z" fill="#59a8e9"/>		</g>		<g>			<path d="M 162.3851 0 L 162.3851 1.0282 L 161.8466 1.0282 C 161.3164 1.0282 161 1.3668 161 1.9335 C 161 2.5 161.3164 2.8386 161.8466 2.8386 L 162.3851 2.8386 L 162.3851 3.4522 L 161.8466 3.4522 C 161.3164 3.4522 161 3.7904 161 4.3572 C 161 4.9242 161.3164 5.2625 161.8466 5.2625 L 162.3851 5.2625 L 162.3851 5.8761 L 161.8466 5.8761 C 161.3164 5.8761 161 6.2143 161 6.781 C 161 7.3476 161.3164 7.6863 161.8466 7.6863 L 162.3851 7.6863 L 162.3851 7.9039 L 162.3851 8.0961 L 162.3851 8.3138 L 161.8466 8.3138 C 161.3164 8.3138 161 8.6524 161 9.2191 C 161 9.7857 161.3164 10.1243 161.8466 10.1243 L 162.3851 10.1243 L 162.3851 10.7377 L 161.8466 10.7377 C 161.3164 10.7377 161 11.0759 161 11.6428 C 161 12.2099 161.3164 12.5481 161.8466 12.5481 L 162.3851 12.5481 L 162.3851 13.1616 L 161.8466 13.1616 C 161.3164 13.1616 161 13.5 161 14.0665 C 161 14.6334 161.3164 14.9718 161.8466 14.9718 L 162.3851 14.9718 L 162.3851 16 L 175 16 L 175 8.0961 L 175 7.9039 L 175 0 L 162.3851 0 ZM 163.2864 14.487 L 161.8466 14.487 C 161.5849 14.487 161.4791 14.3656 161.4791 14.0665 C 161.4791 13.7672 161.5849 13.6462 161.8466 13.6462 L 163.2864 13.6462 C 163.5479 13.6462 163.6541 13.7672 163.6541 14.0665 C 163.6541 14.3656 163.5479 14.487 163.2864 14.487 ZM 163.2864 12.0635 L 161.8466 12.0635 C 161.5849 12.0635 161.4791 11.9418 161.4791 11.6428 C 161.4791 11.3435 161.5849 11.2221 161.8466 11.2221 L 163.2864 11.2221 C 163.5479 11.2221 163.6541 11.3435 163.6541 11.6428 C 163.6541 11.9418 163.5479 12.0635 163.2864 12.0635 ZM 163.2864 9.6396 L 161.8466 9.6396 C 161.5849 9.6396 161.4791 9.5181 161.4791 9.2191 C 161.4791 8.9197 161.5849 8.7985 161.8466 8.7985 L 163.2864 8.7985 C 163.5479 8.7985 163.6541 8.9197 163.6541 9.2191 C 163.6541 9.5181 163.5479 9.6396 163.2864 9.6396 ZM 163.2864 7.2015 L 161.8466 7.2015 C 161.5849 7.2015 161.4791 7.0805 161.4791 6.781 C 161.4791 6.4819 161.5849 6.3605 161.8466 6.3605 L 163.2864 6.3605 C 163.5479 6.3605 163.6541 6.4819 163.6541 6.781 C 163.6541 7.0805 163.5479 7.2015 163.2864 7.2015 ZM 163.2864 4.778 L 161.8466 4.778 C 161.5849 4.778 161.4791 4.6566 161.4791 4.3572 C 161.4791 4.0582 161.5849 3.9368 161.8466 3.9368 L 163.2864 3.9368 C 163.5479 3.9368 163.6541 4.0582 163.6541 4.3572 C 163.6541 4.6566 163.5479 4.778 163.2864 4.778 ZM 163.2864 2.3538 L 161.8466 2.3538 C 161.5849 2.3538 161.4791 2.2328 161.4791 1.9335 C 161.4791 1.6347 161.5849 1.5128 161.8466 1.5128 L 163.2864 1.5128 C 163.5479 1.5128 163.6541 1.6347 163.6541 1.9335 C 163.6541 2.2328 163.5479 2.3538 163.2864 2.3538 ZM 172.7449 11.401 L 165.1753 11.4019 L 165.1753 10.6132 C 165.1753 10.6132 165.1801 10.1489 166.12 9.7249 C 166.5742 9.5197 167.2473 8.994 168.2439 8.8087 C 167.9879 8.5316 167.7964 8.0972 167.5948 7.5792 C 167.4787 7.2799 167.498 7.0247 167.498 6.6613 C 167.498 6.3942 167.4482 5.9654 167.5133 5.7299 C 167.7344 4.9305 168.2948 4.7091 168.9512 4.7091 C 169.6072 4.7091 170.1668 4.9294 170.3885 5.7276 C 170.4542 5.9636 170.4042 6.3935 170.4042 6.6613 C 170.4042 7.024 170.4241 7.2784 170.3082 7.577 C 170.1084 8.0924 169.9137 8.5275 169.657 8.8057 C 170.6615 8.9877 171.3396 9.5175 171.7968 9.723 C 172.7404 10.1473 172.7449 10.6132 172.7449 10.6132 L 172.7449 11.401 Z" fill="#59a8e9"/>		</g>		<g>			<path d="M 191.9452 13.2746 C 191.9781 13.1672 192 13.0543 192 12.9352 L 192 3.0648 C 192 2.9517 191.9796 2.8446 191.9498 2.742 L 186.7307 7.7071 L 191.9452 13.2746 Z" fill="#59a8e9"/>			<path d="M 183.9996 8.9045 L 185.3743 7.6618 L 186.07 7.0329 L 191.3111 2.0484 C 191.225 2.02 191.1358 2 191.0418 2 L 176.9582 2 C 176.864 2 176.7745 2.02 176.6883 2.0486 L 181.9325 7.0358 L 182.6284 7.665 L 183.9996 8.9045 Z" fill="#59a8e9"/>			<path d="M 191.0418 14 C 191.1319 14 191.2176 13.9815 191.3004 13.9552 L 186.035 8.3357 L 183.9996 10.176 L 181.9675 8.3386 L 176.6999 13.9555 C 176.7827 13.9815 176.8682 14 176.9582 14 L 191.0418 14 Z" fill="#59a8e9"/>			<path d="M 176.0501 2.742 C 176.0204 2.8446 176 2.9517 176 3.0648 L 176 12.9352 C 176 13.0546 176.0219 13.1675 176.0548 13.2746 L 181.2717 7.7095 L 176.0501 2.742 Z" fill="#59a8e9"/>		</g>		<g>			<path d="M 200 0 C 195.5818 0 192 3.5816 192 8 C 192 12.4182 195.5818 16 200 16 C 204.4182 16 208 12.4182 208 8 C 208 3.5816 204.4182 0 200 0 ZM 205.2971 5.6636 C 205.3841 5.6584 205.4227 5.5786 205.4998 5.5556 C 205.6443 5.5128 205.5938 5.6029 205.6645 5.6738 C 205.725 5.6738 205.5894 5.7159 205.5805 5.7159 C 205.5202 5.7385 205.5241 5.7266 205.4755 5.7266 C 205.4564 5.7515 205.5054 5.8631 205.5174 5.8631 C 205.5608 5.9275 205.5842 5.8856 205.5792 5.9822 C 205.5749 6.069 205.6461 5.9889 205.6751 5.9889 C 205.6751 6.0419 205.753 6.0849 205.7587 6.1465 C 205.7246 6.1506 205.6469 6.1358 205.6328 6.1465 C 205.638 6.2075 205.6751 6.2075 205.6751 6.2617 C 205.7404 6.2617 205.6243 6.4297 205.7383 6.4297 C 205.7112 6.5356 205.5313 6.4998 205.5069 6.3985 C 205.3301 6.3587 205.424 6.234 205.4182 6.1365 C 205.4104 6.0059 205.2971 5.9631 205.2971 5.8631 C 205.2042 5.8631 205.2971 5.6814 205.2971 5.6636 ZM 205.2361 11.7485 C 205.2444 11.6378 205.2257 11.4484 205.276 11.4484 C 205.276 11.3637 205.3229 11.2483 205.3286 11.1439 C 205.3461 11.1439 205.3637 11.1439 205.3811 11.1439 C 205.3811 11.1222 205.3759 11.0469 205.4123 11.0287 C 205.4123 10.9722 205.5579 10.9468 205.4755 10.8711 C 205.4405 10.8594 205.4123 10.7044 205.4123 10.6504 C 205.3674 10.696 205.4355 10.8292 205.3286 10.8292 C 205.3286 10.7018 205.1864 10.9026 205.3077 10.9026 C 205.3077 11.0178 205.1593 10.9655 205.1081 10.934 C 205.0825 10.9976 205.064 11.0239 205.1395 11.0391 C 205.1092 11.1298 205.0773 11.0708 205.0347 11.0391 C 204.9924 11.1652 204.8963 11.8967 205.1749 11.8357 C 203.9996 13.4175 202.1176 14.4444 200 14.4444 C 196.4466 14.4444 193.5556 11.5534 193.5556 8 C 193.5556 7.0167 193.7778 6.0846 194.1732 5.25 C 194.1734 5.2513 194.1749 5.2526 194.1749 5.2539 C 194.3611 5.403 194.3642 5.6526 194.3642 5.8524 C 194.3392 5.9659 194.3954 6.1005 194.3954 6.2094 C 194.4477 6.2355 194.5421 6.3985 194.5421 6.451 C 194.5443 6.451 194.6619 6.6165 194.6684 6.6291 C 194.8084 6.6291 194.8785 6.6903 194.8785 6.8186 C 194.8709 6.8186 194.9627 7.0139 194.9937 7.0386 C 194.9937 7.0942 195.0773 7.2958 195.1302 7.3223 C 195.1302 7.4922 195.5434 7.7661 195.3071 7.365 C 195.2854 7.3288 195.1769 7.1231 195.1513 7.1231 C 195.1513 7.0558 195.0128 6.9779 195.0293 6.9201 C 195.0549 6.8307 195.2142 7.0354 195.2142 7.0807 C 195.2374 7.0807 195.2984 7.2159 195.2984 7.2279 C 195.337 7.2279 195.4874 7.3401 195.4874 7.4065 C 195.5964 7.4065 195.6589 7.6788 195.6623 7.7563 C 195.6649 7.8205 195.7005 7.9942 195.7919 7.9942 C 195.832 8.0744 196.0061 8.0452 196.0438 8.1202 C 196.156 8.1202 196.2789 8.2042 196.4006 8.2042 C 196.5063 8.2042 196.528 8.3303 196.6213 8.3303 C 196.6358 8.3596 196.6842 8.349 196.6842 8.3722 C 196.7758 8.3722 197.0297 8.5163 196.9887 8.6242 C 197.0332 8.6463 197.1584 8.7728 197.1461 8.8342 C 197.1632 8.9596 197.3615 8.9527 197.4403 8.9918 C 197.5139 8.7702 197.6081 8.9794 197.6081 9.0864 C 197.6005 9.1209 197.6081 9.2689 197.6081 9.3383 C 197.704 9.3383 197.5818 9.4955 197.5558 9.3909 C 197.5189 9.4065 197.498 9.4345 197.4926 9.4746 C 197.4414 9.4746 197.3229 9.7925 197.4403 9.8318 C 197.4267 9.9553 197.2839 10.061 197.4191 10.1361 C 197.4191 10.1281 197.6751 10.5035 197.6395 10.5035 C 197.6395 10.5627 197.6773 10.6341 197.6923 10.6823 C 197.6923 10.7908 197.8001 11.0391 197.9544 11.0391 C 197.9531 11.036 198.1139 11.207 198.0909 11.207 C 198.1385 11.4905 198.0703 11.668 198.0703 11.9735 C 197.9792 11.9735 198.0651 12.5849 197.944 12.6456 C 197.9221 12.7439 197.8498 12.8242 197.8811 12.8869 C 197.8913 12.987 197.8811 13.0868 197.8811 13.1704 C 197.8563 13.1704 197.8286 13.3062 197.8286 13.3383 C 197.7591 13.3383 197.7548 13.8592 197.7624 14.0432 C 197.9295 14.1053 198.1003 14.1595 198.2737 14.2077 C 198.2535 14.1773 198.2381 14.1445 198.2381 14.1048 C 198.1678 14.1048 198.2368 13.9158 198.3114 13.9158 C 198.3372 13.8251 198.3837 13.8236 198.4271 13.7583 C 198.4789 13.7583 198.3956 13.6743 198.3956 13.7268 C 198.3837 13.7268 198.383 13.7602 198.3535 13.7685 C 198.3442 13.7431 198.3566 13.7164 198.3433 13.7164 C 198.3433 13.6569 198.3746 13.6 198.3746 13.5378 C 198.3943 13.5378 198.4203 13.462 198.4481 13.4434 C 198.5063 13.3754 198.5636 13.3676 198.5636 13.2752 C 198.5762 13.2752 198.5453 13.1704 198.5215 13.1704 C 198.5827 13.117 198.658 13.2138 198.658 13.1072 C 198.6771 13.1072 198.6895 13.0419 198.6895 13.0232 C 198.7789 12.9638 198.7621 12.9497 198.8993 12.9497 C 198.9167 12.916 199.0163 12.8752 199.0569 12.8765 C 199.0569 12.8618 199.0697 12.7188 199.0569 12.7188 C 199.0569 12.6419 199.1934 12.6333 199.1934 12.6035 C 199.2678 12.5504 199.2908 12.4881 199.2949 12.4011 C 199.2982 12.3305 199.4023 12.2463 199.4612 12.2463 C 199.5538 12.2463 199.4915 12.2046 199.5506 12.2046 C 199.5336 12.1543 199.5727 12.1578 199.5994 12.1252 C 199.6395 12.076 199.6261 11.9011 199.6343 11.8264 C 199.6148 11.8264 199.7216 11.7255 199.7287 11.711 C 199.7789 11.711 199.8155 11.6691 199.8654 11.6691 C 199.8917 11.6166 200.0645 11.538 200.128 11.4905 C 200.1556 11.3789 200.2328 11.357 200.2328 11.2385 C 200.2635 11.2385 200.2956 11.007 200.2956 10.9655 C 200.3019 10.9655 200.3066 10.7554 200.3066 10.7346 C 200.311 10.7346 200.4638 10.5651 200.4638 10.5454 C 200.6042 10.4408 200.5829 10.132 200.4475 10.0117 C 200.3687 9.9416 200.3192 9.9026 200.2014 9.8631 C 200.1829 9.9184 200.1337 9.8828 200.0842 9.8817 C 199.9993 9.8793 199.99 9.9366 199.9073 9.9366 C 199.9173 9.8863 199.9438 9.7372 199.8444 9.7268 C 199.8444 9.8268 199.7433 9.7789 199.7708 9.7159 C 199.7235 9.7159 199.6799 9.643 199.6135 9.6322 C 199.6135 9.7398 199.4523 9.653 199.4978 9.653 C 199.4978 9.6395 199.4709 9.4955 199.5085 9.4955 C 199.4961 9.4338 199.4813 9.3268 199.4347 9.296 C 199.3941 9.2097 199.4583 9.2407 199.3613 9.1597 C 199.3446 9.1257 199.3364 9.1515 199.3197 9.1178 C 199.2878 9.1178 199.2235 9.0323 199.2042 9.107 C 199.1426 9.1029 199.0898 9.0738 199.0323 9.0562 C 198.929 9.0245 199.02 9.0152 198.952 8.9811 C 198.952 8.951 198.8576 8.9427 198.8576 8.8971 C 198.8383 8.8468 198.8004 8.8418 198.7945 8.824 C 198.7849 8.8264 198.778 8.8229 198.7734 8.8136 C 198.7526 8.8145 198.7567 8.7732 198.7096 8.7732 C 198.7047 8.7578 198.6597 8.7214 198.6476 8.7294 C 198.5985 8.7633 198.467 8.7474 198.4102 8.7433 C 198.2682 8.7331 198.293 8.5708 198.2172 8.561 C 198.1675 8.5957 198.1096 8.6278 198.0521 8.6285 C 198.0393 8.6085 198.0367 8.6133 198.0067 8.5957 C 197.9998 8.5957 197.9614 8.6181 197.9505 8.6252 C 197.916 8.6467 197.883 8.7131 197.8398 8.6901 C 197.8194 8.6676 197.8051 8.6736 197.7969 8.7081 C 197.7086 8.7081 197.8409 8.9182 197.6293 8.9182 C 197.6376 8.844 197.6298 8.7713 197.5239 8.7713 C 197.5239 8.8618 197.3733 8.844 197.3036 8.8342 C 197.3212 8.765 197.2869 8.7146 197.23 8.6769 C 197.23 8.6222 197.1884 8.5541 197.1884 8.4666 C 197.1146 8.4666 197.2259 8.2359 197.1042 8.2359 C 197.1118 8.2485 197.1152 8.2628 197.1146 8.2778 C 197.0306 8.2784 196.9464 8.2932 196.8626 8.2778 C 196.8835 8.2018 196.8179 8.1934 196.8381 8.1126 C 196.8542 8.0471 196.8809 7.9883 196.8943 7.9208 C 196.9256 7.9208 196.9212 7.8262 196.9781 7.8262 C 197.0362 7.7926 196.9572 7.6995 196.9572 7.7843 C 196.9575 7.7843 196.8533 7.8214 196.8416 7.8262 C 196.8416 7.8327 196.7368 7.9325 196.7368 7.8577 C 196.6836 7.8785 196.602 7.9844 196.6842 8.0046 C 196.6756 8.0482 196.6107 8.0827 196.6107 8.0888 C 196.492 8.0901 196.5347 8.0812 196.5269 8.0256 C 196.4575 8.0256 196.3776 7.8683 196.3062 7.8683 C 196.3062 7.8008 196.2328 7.7366 196.2328 7.6476 C 196.2153 7.6476 196.2153 7.3327 196.2328 7.3327 C 196.2328 7.173 196.3448 7.0393 196.5056 7.023 C 196.6061 7.013 196.595 7.0842 196.6864 7.097 C 196.7394 7.1046 196.7691 7.0812 196.8207 7.0599 C 196.8175 7.0165 196.7891 7.0044 196.7789 6.9653 C 196.8411 6.9653 197.0152 6.9768 197.041 7.0285 C 197.1016 7.0536 197.1784 6.9864 197.2196 7.0445 C 197.2509 7.0879 197.3036 7.2266 197.3036 7.27 C 197.291 7.27 197.36 7.3744 197.3668 7.3854 C 197.4659 7.3837 197.4412 7.3069 197.4256 7.2327 C 197.4132 7.1725 197.3974 6.9868 197.3561 6.9445 C 197.3561 6.7671 197.4774 6.7854 197.5451 6.6504 C 197.6554 6.6504 197.6795 6.4731 197.7446 6.4297 C 197.7446 6.408 197.7867 6.2672 197.7969 6.2617 C 197.8114 6.1775 197.8477 6.1795 197.8811 6.1254 C 197.8683 6.1254 198.0176 6.0141 198.0176 6.031 C 198.074 5.9935 198.1222 5.8757 198.1437 5.8106 C 198.1721 5.8106 198.2361 5.7515 198.2485 5.7266 C 198.3225 5.7266 198.367 5.6845 198.4588 5.6845 C 198.4438 5.7142 198.459 5.7073 198.4692 5.758 C 198.472 5.7574 198.4112 5.7708 198.405 5.7561 C 198.3937 5.7971 198.3103 5.8084 198.4794 5.7895 C 198.4902 5.7674 198.5458 5.7465 198.5742 5.737 C 198.5742 5.6834 198.653 5.7212 198.6686 5.6738 C 198.6068 5.6704 198.559 5.6467 198.5172 5.579 C 198.4735 5.5085 198.3826 5.4115 198.5321 5.4115 C 198.5321 5.3902 198.5113 5.4015 198.5113 5.38 C 198.4342 5.4015 198.4175 5.4534 198.3325 5.4534 C 198.2281 5.4885 198.1767 5.5914 198.0595 5.5901 C 198.0699 5.484 198.2563 5.2706 198.3529 5.2396 C 198.536 5.1812 198.839 5.3435 198.8893 5.1176 C 198.9262 5.122 199.0883 5.1797 199.0883 5.1072 C 199.127 5.1072 199.0553 5.0334 199.1306 5.0334 C 199.1202 4.982 199.0345 4.9182 199.0048 4.9182 C 199.0048 4.8028 198.9418 4.9286 198.9099 4.9286 C 198.9099 4.8529 198.8828 4.8598 198.8576 4.834 C 198.8576 4.7787 198.7374 4.6934 198.6999 4.6345 C 198.6487 4.6345 198.5746 4.3761 198.5321 4.4037 C 198.5321 4.467 198.4844 4.5506 198.4167 4.5506 C 198.4167 4.5929 198.3103 4.5734 198.2906 4.5714 C 198.2906 4.51 198.3114 4.5632 198.3114 4.5295 C 198.2765 4.5295 198.2802 4.4846 198.2802 4.4772 C 198.26 4.4772 198.1016 4.3214 198.1016 4.2882 C 197.9612 4.3349 198.0686 4.2763 197.9336 4.2144 C 197.8863 4.3386 197.752 4.2359 197.6712 4.2359 C 197.6712 4.2526 197.6026 4.2259 197.5766 4.2359 C 197.5775 4.3095 197.6382 4.467 197.5558 4.4879 C 197.5714 4.5432 197.61 4.5063 197.6411 4.5432 C 197.6892 4.6011 197.6695 4.7044 197.6395 4.7713 C 197.7613 4.8179 197.5451 4.9149 197.5451 4.8553 C 197.4789 4.8737 197.4688 4.9581 197.5345 5.002 C 197.5345 5.0447 197.5128 5.1176 197.5766 5.1176 C 197.5592 5.1879 197.454 5.1947 197.3876 5.1704 C 197.3809 5.1493 197.3876 5.1419 197.4084 5.1493 C 197.398 5.1092 197.3481 4.9915 197.3665 4.9915 C 197.3533 4.9514 197.2196 4.7398 197.2196 4.8553 C 197.1441 4.8553 197.0623 4.8713 197.0623 4.7813 C 197.0347 4.7724 196.9896 4.7518 196.9781 4.7292 C 196.8405 4.7092 196.7847 4.6932 196.6315 4.666 C 196.638 4.6024 196.5002 4.4863 196.4323 4.4455 C 196.4323 4.2893 196.388 4.1443 196.5582 4.12 C 196.5582 4.1437 196.7096 4.0732 196.7261 4.0677 C 196.7691 3.9811 196.8542 4.1148 196.8908 3.9861 C 196.913 3.9084 197.0052 3.86 197.0831 3.8893 C 197.0705 3.9863 197.0421 4.0886 196.9572 4.0886 C 197.018 4.1402 197.1829 4.0677 197.2511 4.0677 C 197.2511 4.0747 197.3589 4.0886 197.3876 4.0886 C 197.3403 4.0254 197.0393 3.9718 197.1775 3.8683 C 197.1775 3.8388 197.2993 3.8379 197.3151 3.7737 C 197.3277 3.7233 197.3418 3.5803 197.3142 3.5703 C 197.2741 3.5562 197.2324 3.5766 197.1673 3.5638 C 197.1673 3.5419 197.1664 3.5217 197.1461 3.5217 C 197.1461 3.587 197.0875 3.5252 197.041 3.5425 C 197.041 3.5586 197.0807 3.6057 197.0517 3.6057 C 197.0517 3.7031 197.0406 3.7975 196.9151 3.816 C 196.9136 3.7478 196.8793 3.6183 196.8101 3.5951 C 196.8101 3.7971 196.617 3.5111 196.5792 3.4796 C 196.564 3.4191 196.5217 3.3932 196.4742 3.375 C 196.4425 3.4568 196.3854 3.383 196.3372 3.4683 C 196.2973 3.538 196.3411 3.5291 196.2958 3.6057 C 196.2365 3.6057 196.0911 3.5655 196.0857 3.627 C 196.1478 3.628 196.1736 3.6424 196.1595 3.7003 C 196.2613 3.7003 196.1172 3.7648 196.1172 3.7737 C 196.0582 3.7737 196.0184 3.7971 195.9494 3.7862 C 195.8644 3.773 195.7756 3.7574 195.6947 3.7303 C 195.625 3.7068 195.6378 3.6688 195.6133 3.6688 C 195.5197 3.5132 195.75 3.6057 195.75 3.6161 C 195.8262 3.6161 195.9171 3.7157 195.8969 3.553 C 195.9243 3.5601 195.9525 3.5634 195.9807 3.5638 C 195.9625 3.4909 195.8804 3.5278 195.8231 3.5319 C 195.8244 3.4876 195.7621 3.3852 195.75 3.3852 C 195.724 3.3075 195.7394 3.3036 195.7394 3.2381 C 195.7214 3.2426 195.6159 3.3143 195.6063 3.2917 C 196.7585 2.2159 198.3032 1.5556 200 1.5556 C 201.9748 1.5556 203.7433 2.4503 204.9262 3.8535 C 204.888 3.9577 204.7947 3.8724 204.7509 3.9523 C 204.7392 3.9523 204.7072 4.0467 204.7719 4.0467 C 204.7509 4.1309 204.6669 4.1189 204.6669 4.0467 C 204.6078 4.0467 204.5742 4.1113 204.4887 4.1098 C 204.4991 4.0562 204.3917 3.8995 204.3309 3.8995 C 204.35 3.8615 204.3309 3.8965 204.3309 3.8576 C 204.5056 3.8576 204.6905 3.8262 204.8246 3.8262 C 204.8246 3.73 204.5388 3.6085 204.4696 3.6461 C 204.429 3.668 204.3038 3.6057 204.2474 3.6057 C 204.2474 3.5645 203.8932 3.5655 203.8377 3.5638 C 203.8377 3.4933 203.2743 3.6491 203.2233 3.6528 C 203.1031 3.6619 203.0523 3.7331 202.9555 3.816 C 202.9555 3.8149 202.6667 4.0569 202.8088 4.0569 C 202.7904 4.2233 202.3574 4.2049 202.3574 4.3095 C 202.3372 4.3147 202.2096 4.2826 202.273 4.3928 C 202.2621 4.3928 202.3715 4.5156 202.3783 4.5295 C 202.4692 4.5295 202.5469 4.5714 202.6615 4.5714 C 202.674 4.5471 202.7246 4.5341 202.7561 4.5295 C 202.7615 4.5942 202.8125 4.7292 202.8509 4.7292 C 202.8509 4.7889 202.8811 4.8839 202.7665 4.8236 C 202.7507 4.8117 202.7467 4.7257 202.7424 4.6947 C 202.7303 4.6139 202.6443 4.7316 202.5673 4.7188 C 202.5673 4.7776 202.5553 4.9386 202.6196 4.9599 C 202.5905 5.0478 202.472 4.9874 202.4203 5.0651 C 202.3767 5.0651 202.3049 5.1945 202.3049 5.1072 C 202.2372 5.1523 202.3114 5.2732 202.1788 5.2014 C 202.1743 5.2305 202.1762 5.27 202.1684 5.3171 C 202.252 5.3171 202.1521 5.38 202.1263 5.38 C 202.1263 5.4718 202.0325 5.375 202.0108 5.3592 C 202.0091 5.3641 202.0054 5.3676 202.0002 5.3694 C 202.079 5.5028 201.8791 5.4401 201.8246 5.4097 C 201.7602 5.3733 201.8513 5.4703 201.8952 5.485 C 201.8952 5.5506 202.1152 5.6689 201.9898 5.7999 C 201.9898 5.8383 201.9935 5.842 202.0319 5.842 C 202.0319 5.9342 201.9188 5.9175 201.8533 5.9052 C 201.8817 5.8509 201.8609 5.8229 201.7904 5.821 C 201.7904 5.9019 201.6215 5.8572 201.549 5.8841 C 201.5358 5.857 201.5308 5.8488 201.5069 5.842 C 201.487 5.8902 201.4549 6.2201 201.4648 6.2201 C 201.4648 6.3496 201.5673 6.4325 201.6851 6.472 C 201.6851 6.4393 201.959 6.4603 201.9703 6.4156 C 201.9931 6.3264 202.0686 6.3245 202.0842 6.2303 C 202.0918 6.1864 202.2276 5.8535 202.2316 5.8524 C 202.2316 5.8405 202.4811 5.9204 202.5252 5.8316 C 202.5473 5.8316 202.6046 5.811 202.6196 5.7895 C 202.7007 5.7999 202.719 5.9471 202.7665 5.9471 C 202.8244 6.0336 202.9618 6.0113 203.0082 6.1044 C 203.0764 6.1044 203.0816 6.2806 203.0816 6.3459 C 203.1599 6.2867 203.1699 6.235 203.1519 6.1745 C 203.1211 6.0703 203.2346 6.1945 203.2706 6.1465 C 203.2211 6.1465 203.2324 6.0499 203.1341 6.0731 C 203.1274 6.0456 203.1239 6.0174 203.1237 5.9889 C 202.9907 6.0113 203.0013 5.8099 202.8928 5.8316 C 202.8802 5.7819 202.8179 5.7669 202.852 5.7055 C 202.9054 5.6096 203.0801 5.8943 203.1554 5.8943 C 203.173 5.9297 203.2917 5.941 203.2917 5.9679 C 203.3535 5.9885 203.3231 6.0903 203.3231 6.1465 C 203.3817 6.1465 203.3615 6.1782 203.3863 6.2201 C 203.47 6.262 203.4227 6.4204 203.5645 6.451 C 203.5645 6.3978 203.7012 6.2934 203.6172 6.2934 C 203.6243 6.25 203.5256 6.0597 203.6625 6.0866 C 203.7112 6.0964 203.7908 6.0998 203.8058 6.1584 C 203.8349 6.2743 203.8105 6.3375 203.9008 6.4193 C 203.9575 6.5332 204.1565 6.4063 204.1838 6.4614 C 204.2029 6.4614 204.3309 6.5146 204.3309 6.472 C 204.3882 6.4529 204.4054 6.4406 204.4779 6.4406 C 204.4779 6.5135 204.4518 6.607 204.4388 6.668 C 204.4284 6.7179 204.3783 6.7645 204.3941 6.829 C 204.3464 6.829 204.3535 6.8917 204.4045 6.8917 C 204.4045 6.989 204.2906 6.9735 204.2155 6.9653 C 204.2363 7.0382 204.3629 7.1932 204.4149 7.2279 C 204.4364 7.2917 204.4896 7.4039 204.541 7.4379 C 204.5493 7.4861 204.5981 7.6183 204.6358 7.6372 C 204.6358 7.7097 204.8846 8.1728 204.8246 8.1728 C 204.8474 8.2116 204.8739 8.2285 204.8665 8.2674 C 204.9605 8.2674 204.9234 8.4983 205.1185 8.4983 C 205.1326 8.4699 205.2897 8.4143 205.3286 8.4143 C 205.3639 8.3435 205.5571 8.2882 205.612 8.2882 C 205.5931 8.2313 205.9058 8.0955 205.9058 8.0677 C 205.9453 8.0534 205.9794 7.9722 205.9794 7.9262 C 205.9794 7.8548 206.0321 7.8496 206.0321 7.7949 C 206.1161 7.739 206.1361 7.5964 206.0213 7.564 C 206.0414 7.6842 205.9373 7.6211 205.9523 7.5885 C 205.9748 7.5401 205.9408 7.5208 205.9058 7.4798 C 205.8661 7.4601 205.9145 7.4152 205.8746 7.3854 C 205.8216 7.5163 205.7194 7.5744 205.612 7.5744 C 205.582 7.4874 205.6773 7.5994 205.5996 7.4803 C 205.5768 7.4451 205.5701 7.4067 205.5805 7.3644 C 205.5673 7.3644 205.5692 7.3609 205.5597 7.3537 C 205.541 7.4653 205.5527 7.4798 205.4755 7.4798 C 205.4616 7.4418 205.5367 7.4225 205.4757 7.3631 C 205.4516 7.3399 205.4336 7.2774 205.4336 7.2489 C 205.3995 7.2261 205.3177 7.0938 205.3379 7.0573 C 205.4123 6.9227 205.5872 7.2287 205.5699 7.2804 C 205.5801 7.2767 205.5838 7.2804 205.5805 7.2906 C 205.7904 7.2272 205.9683 7.4275 206.1788 7.4275 C 206.2166 7.4431 206.3325 7.467 206.4195 7.4618 C 206.4345 7.6395 206.4444 7.8186 206.4444 8 C 206.4444 9.3976 205.9952 10.6914 205.2361 11.7485 ZM 203.9321 5.9996 C 203.9162 5.8262 204.0211 5.7337 204.0896 5.5794 C 204.2086 5.5675 204.2511 5.5972 204.2474 5.7055 C 204.3318 5.7055 204.2639 5.8034 204.3759 5.7604 C 204.4032 5.7218 204.441 5.7105 204.4887 5.7266 C 204.5623 5.7266 204.5818 5.7685 204.6358 5.7685 C 204.6879 5.8735 204.852 5.8418 204.8455 6.031 C 204.9655 6.031 204.7407 6.1523 204.7407 6.1254 C 204.6066 6.1641 204.5766 6.031 204.5202 6.031 C 204.5202 6.1547 204.4499 6.01 204.436 6.01 C 204.436 6.0521 204.0308 6.0766 203.9635 6.0731 C 203.9735 6.0226 203.9824 6.0113 203.9321 5.9996 Z" fill="#59a8e9"/>			<path d="M 201.1081 3.9421 C 201.0579 3.9657 201.0723 4.0098 201.0026 3.9837 C 201.0026 3.849 200.9679 3.9332 200.8409 3.951 C 200.8175 3.9538 200.6563 4.0091 200.6563 3.9837 C 200.6545 3.9837 200.6615 3.9295 200.6563 3.9102 C 200.6224 3.901 200.6461 3.9102 200.6461 3.8893 C 200.6296 3.8893 200.5093 3.9421 200.5093 3.9421 C 200.6122 3.9421 200.4987 4.0267 200.4987 4.0569 C 200.5783 4.0662 200.6313 4.099 200.6981 4.099 C 200.6981 4.1209 200.8796 4.0886 200.9034 4.0886 C 200.9811 4.0886 201.031 4.0749 201.0922 4.0356 C 201.1591 3.9935 201.1081 3.9968 201.1081 3.9421 Z" fill="#59a8e9"/>			<path d="M 201.7483 4.8444 C 201.8526 4.8444 201.8785 4.8785 201.8848 4.9915 C 202.0085 5.0326 201.8012 5.023 201.7904 5.023 C 201.7886 5.0757 201.7135 5.1816 201.8097 5.1523 C 201.8798 5.1311 201.8947 5.1359 201.8952 5.212 C 201.9881 5.212 202.1185 5.2162 202.1684 5.1176 C 202.2183 5.1176 202.2224 5.0695 202.1684 5.0545 C 202.1684 5.1098 202.171 5.1072 202.1157 5.1072 C 202.1358 4.9937 202.1215 4.8972 202.0213 4.8972 C 202.0375 4.8488 201.9957 4.8112 201.9551 4.7791 C 201.8785 4.719 201.9568 4.7051 201.9688 4.6345 C 201.9121 4.6487 201.9106 4.6969 201.8322 4.6977 C 201.8322 4.681 201.8492 4.63 201.8351 4.6243 C 201.8537 4.6241 201.9279 4.5612 201.8429 4.5612 C 201.806 4.6973 201.6905 4.5638 201.7088 4.6886 C 201.7216 4.773 201.7483 4.7672 201.7483 4.8444 Z" fill="#59a8e9"/>			<path d="M 201.4438 5.1385 C 201.6007 5.1361 201.6408 5.0451 201.6842 4.9206 C 201.727 4.7978 201.6434 4.8611 201.6013 4.8657 C 201.5653 4.8837 201.5395 4.8043 201.5239 4.8405 C 201.5104 4.8713 201.5347 4.9076 201.5697 4.9076 C 201.5605 4.934 201.3509 4.9649 201.4544 4.9915 C 201.4414 5.0521 201.3874 5.0818 201.4438 5.1385 Z" fill="#59a8e9"/>			<path d="M 201.7483 5.2539 C 201.7585 5.2901 201.8112 5.2695 201.8112 5.2435 C 201.7938 5.2435 201.7763 5.2435 201.7585 5.2435 C 201.7621 5.2539 201.7585 5.2574 201.7483 5.2539 Z" fill="#59a8e9"/>			<path d="M 198.7107 5.6636 C 198.7687 5.66 198.7945 5.6452 198.7945 5.5901 C 198.7413 5.6213 198.7233 5.6122 198.7107 5.6636 Z" fill="#59a8e9"/>			<path d="M 202.6406 5.9052 C 202.6476 5.9401 202.6267 5.9471 202.5777 5.926 C 202.5974 5.9768 202.5875 5.9883 202.6196 6.0206 C 202.6322 5.972 202.7044 5.926 202.6406 5.9052 Z" fill="#59a8e9"/>			<path d="M 202.6302 6.0521 C 202.6302 6.1172 202.6174 6.1474 202.599 6.0731 C 202.5367 6.0731 202.5673 6.1615 202.5673 6.2094 C 202.6847 6.245 202.6725 6.0521 202.6302 6.0521 Z" fill="#59a8e9"/>			<path d="M 203.0504 6.3355 C 202.9907 6.3629 203.0184 6.3904 202.9382 6.3642 C 202.9034 6.3531 202.8668 6.3045 202.8509 6.367 C 202.9527 6.377 203.0504 6.5065 203.0504 6.3355 Z" fill="#59a8e9"/>			<path d="M 205.1183 8.7177 C 205.0065 8.7099 205.0925 8.6927 205.087 8.6558 C 205.0017 8.6558 204.8455 8.3526 204.8455 8.2778 C 204.8142 8.2619 204.7875 8.1517 204.793 8.1517 C 204.7684 8.0775 204.6697 8.0163 204.709 7.9416 C 204.6165 7.8863 204.5184 7.6957 204.4887 7.6057 C 204.4334 7.5647 204.3941 7.4486 204.3941 7.3854 C 204.3307 7.3854 204.2454 7.1955 204.2576 7.1231 C 204.1981 7.1231 204.1823 7.0176 204.1209 7.0176 C 204.151 6.9288 203.7303 6.9206 203.6593 6.9128 C 203.6712 6.8411 203.6161 6.7973 203.554 6.7973 C 203.554 6.9084 203.3164 6.9206 203.2359 6.9164 C 203.1779 6.9136 203.0504 6.8971 203.0504 6.829 C 203.0102 6.8188 202.9536 6.829 202.8928 6.829 C 202.9069 6.758 202.7619 6.4382 202.6827 6.4193 C 202.6827 6.4297 202.6827 6.4406 202.6827 6.451 C 202.6237 6.4605 202.2522 6.3685 202.2522 6.4406 C 202.2075 6.4406 202.0191 6.5074 201.9898 6.5666 C 201.9718 6.5666 201.8006 6.6504 201.8006 6.5875 C 201.7574 6.5875 201.7057 6.6098 201.6851 6.6504 C 201.6382 6.6504 201.589 6.7333 201.5592 6.7658 C 201.4781 6.7563 201.536 6.7042 201.4544 6.8186 C 201.4544 6.8559 201.3926 7.0176 201.3811 7.0176 C 201.4071 7.0436 201.4063 7.0577 201.3811 7.0914 C 201.3231 7.1376 201.2901 7.2313 201.2339 7.2593 C 201.1749 7.3574 201.1621 7.2526 201.1181 7.3626 C 201.094 7.4241 201.061 7.4701 201.0354 7.5193 C 200.954 7.6753 200.9503 7.7431 200.9503 7.8893 C 200.9503 7.9416 200.895 7.9898 200.9075 8.0339 C 200.9249 8.0931 200.9603 8.2172 200.9503 8.2567 C 200.9102 8.2567 200.8878 8.3984 200.9612 8.4351 C 200.9612 8.5282 201.0966 8.8093 201.1812 8.8657 C 201.1812 8.9425 201.3349 9.107 201.4121 9.107 C 201.4421 9.1664 201.7585 9.2552 201.7585 9.1808 C 201.8874 9.1808 202.342 9.0972 202.4097 9.2333 C 202.5243 9.2333 202.5664 9.214 202.6723 9.2648 C 202.6864 9.3431 202.6645 9.5801 202.6094 9.6428 C 202.6094 9.7483 202.6404 9.8594 202.7246 9.9156 C 202.7309 9.9412 202.791 10.0415 202.8088 10.0415 C 202.8416 10.1741 202.878 10.2889 202.8535 10.4766 C 202.8312 10.6476 202.7773 10.7489 202.7773 10.9026 C 202.7452 10.9026 202.8088 11.1964 202.8401 11.1964 C 202.8401 11.3299 202.9453 11.4503 202.9453 11.5955 C 202.9516 11.5955 202.9874 11.7322 202.9874 11.7737 C 202.9551 11.7737 203.1554 12.1756 203.1554 12.2046 C 203.1912 12.2046 203.1962 12.341 203.2285 12.341 C 203.2342 12.4317 203.2706 12.5156 203.2706 12.5825 C 203.3127 12.6465 203.4861 12.5929 203.554 12.5929 C 203.554 12.5686 203.8704 12.5089 203.911 12.5089 C 203.9321 12.4807 204.0686 12.2884 204.0686 12.2884 C 204.0686 12.1914 204.2645 12.0041 204.3416 11.9523 C 204.3416 11.9366 204.4373 11.7003 204.4256 11.7003 C 204.4256 11.535 204.4677 11.4264 204.4677 11.2806 C 204.4985 11.2806 204.5293 11.1439 204.5935 11.1439 C 204.6115 11.1081 204.663 11.0944 204.6986 11.0701 C 204.6986 10.9796 204.7719 10.9108 204.7719 10.7978 C 204.8197 10.7978 204.7407 10.446 204.7407 10.4089 C 204.6482 10.4089 204.7196 9.9898 204.7196 9.9366 C 204.6602 9.9366 204.9147 9.6528 204.9102 9.6704 C 204.9279 9.5964 205.0649 9.4948 205.11 9.4369 C 205.1502 9.3843 205.2867 9.2837 205.2867 9.2227 C 205.3455 9.1929 205.3529 9.1376 205.4019 9.107 C 205.4019 9.0803 205.3685 9.0024 205.444 9.0024 C 205.4249 8.8678 205.5386 8.7912 205.5386 8.6558 C 205.449 8.6851 205.3253 8.6979 205.2339 8.6979 C 205.2339 8.7162 205.1335 8.7188 205.1183 8.7177 Z" fill="#59a8e9"/>			<path d="M 197.1775 7.6476 C 197.1673 7.6445 197.1565 7.6406 197.1461 7.6372 C 197.11 7.7368 197.2511 7.719 197.2511 7.6584 C 197.2194 7.6738 197.1912 7.6999 197.1775 7.6476 Z" fill="#59a8e9"/>			<path d="M 197.4926 7.6372 C 197.4599 7.6925 197.4082 7.6712 197.3561 7.6688 C 197.3878 7.7166 197.4918 7.7635 197.5451 7.7635 C 197.5801 7.8329 197.6853 7.8785 197.7687 7.8702 C 197.8789 7.8594 197.7645 7.7782 197.7446 7.7426 C 197.6376 7.7426 197.6257 7.6508 197.4926 7.6372 Z" fill="#59a8e9"/>			<path d="M 198.133 7.9102 C 198.1118 7.9733 198.133 7.9143 198.133 7.9629 C 198.0551 7.9644 197.9907 7.9208 197.9336 7.9208 C 197.9516 7.9525 197.9755 7.9757 197.9755 8.0046 C 197.9217 8.0261 197.8809 8.0046 197.8286 8.0046 C 197.8481 8.0432 197.99 8.0488 198.0072 8.0156 C 198.1283 8.0156 198.1335 8.013 198.2485 8.0256 C 198.2448 7.9937 198.166 7.9184 198.133 7.9102 Z" fill="#59a8e9"/>			<path d="M 197.5558 7.9942 C 197.5263 8.0742 197.5903 8.0573 197.6293 8.0573 C 197.6319 8.0224 197.6074 8.0011 197.5558 7.9942 Z" fill="#59a8e9"/>			<path d="M 197.6395 8.0573 C 197.6606 8.0538 197.6816 8.0506 197.7025 8.0469 C 197.6914 7.9547 197.6456 8.0089 197.6395 8.0573 Z" fill="#59a8e9"/>			<path d="M 198.4058 7.9942 C 198.3856 8.0558 198.4267 8.0256 198.4588 8.0256 C 198.4588 8.0037 198.4301 7.9942 198.4058 7.9942 Z" fill="#59a8e9"/>			<path d="M 198.3535 8.0046 C 198.3535 8.0156 198.3535 8.0256 198.3535 8.0365 C 198.3665 8.0323 198.3722 8.0256 198.385 8.0256 C 198.385 8.0122 198.367 8.0046 198.3535 8.0046 Z" fill="#59a8e9"/>			<path d="M 198.0493 8.5402 C 198.084 8.5402 198.0827 8.5382 198.0909 8.5087 C 198.0805 8.505 198.0703 8.5015 198.0595 8.4983 C 198.056 8.5122 198.0527 8.5261 198.0493 8.5402 Z" fill="#59a8e9"/>			<path d="M 205.3388 10.745 C 205.3915 10.7624 205.3813 10.7472 205.3704 10.6925 C 205.3455 10.7116 205.3388 10.707 205.3388 10.745 Z" fill="#59a8e9"/>		</g>		<path d="M 223.8402 12.839 L 220.3244 10.7668 C 220.1417 10.6734 219.8737 10.716 219.7286 10.8611 L 218.6941 11.8958 C 218.5494 12.0407 218.2629 12.1613 218.0578 12.1637 C 218.0578 12.1637 216.736 12.1789 214.2783 9.7202 C 211.8204 7.2617 211.8321 5.9353 211.8321 5.9353 C 211.8341 5.7302 211.9542 5.4436 212.0991 5.2989 L 212.9809 4.417 C 213.126 4.2716 213.1746 4.0007 213.089 3.814 L 211.1497 0.1654 C 211.0641 -0.0211 210.8753 -0.055 210.7305 0.0897 L 208.3254 2.4898 C 208.1803 2.6342 208.0393 2.9193 208.0121 3.1227 C 208.0121 3.1227 207.5429 6.6295 212.4553 11.5434 C 217.3679 16.4572 220.8735 15.9879 220.8735 15.9879 C 221.0767 15.9606 221.3617 15.8198 221.5065 15.6748 L 223.9087 13.272 C 224.0535 13.1271 224.0227 12.932 223.8402 12.839 Z" fill="#59a8e9"/>		<path d="M 227.5409 15 C 229.0366 15 230.3129 13.8928 230.8318 12.33 C 231.1539 12.2444 231.5474 12.1777 231.9988 12.1777 C 232.4454 12.1777 232.8403 12.2429 233.1673 12.3271 C 233.6856 13.8915 234.9625 15 236.4591 15 C 238.4147 15 240 13.11 240 10.7786 C 240 10.2638 239.9188 9.7727 239.7772 9.3166 L 239.7814 9.3155 L 239.7464 9.216 C 239.73 9.1667 239.713 9.1178 239.695 9.0692 L 238.4111 5.4102 L 238.4094 5.4105 C 238.1638 4.5374 237.6261 3.8263 236.9342 3.4386 L 236.801 2.6824 C 236.5993 1.538 235.6575 0.8053 234.6978 1.0456 C 233.7379 1.286 233.1231 2.4085 233.3248 3.5529 L 233.4852 4.4633 C 233.1306 5.0251 232.918 5.7217 232.918 6.4789 L 232.918 6.6348 C 232.6453 6.718 232.3376 6.7756 232.0023 6.7756 C 231.6624 6.7756 231.3536 6.7164 231.0818 6.6311 L 231.0818 6.4789 C 231.0818 5.6958 230.8553 4.9771 230.4786 4.4056 L 230.6288 3.5529 C 230.8305 2.4085 230.2157 1.286 229.2558 1.0456 C 228.2963 0.8061 227.3542 1.538 227.1526 2.6824 L 227.0142 3.4684 C 226.3471 3.862 225.83 4.5591 225.5906 5.4105 L 225.5889 5.4102 L 224.305 9.0692 C 224.287 9.1178 224.27 9.1667 224.2536 9.216 L 224.2186 9.3155 L 224.2228 9.3166 C 224.0812 9.7727 224 10.2638 224 10.7786 C 224 13.11 225.5853 15 227.5409 15 ZM 238.89 10.7786 C 238.89 12.3767 237.7995 13.6767 236.4591 13.6767 C 235.1186 13.6767 234.0281 12.3767 234.0281 10.7786 C 234.0281 9.1809 235.1186 7.8807 236.4591 7.8807 C 237.7995 7.8807 238.89 9.1809 238.89 10.7786 ZM 229.9718 10.7786 C 229.9718 12.3767 228.8813 13.6767 227.5409 13.6767 C 226.2005 13.6767 225.11 12.3767 225.11 10.7786 C 225.11 9.1809 226.2005 7.8807 227.5409 7.8807 C 228.8813 7.8807 229.9718 9.1809 229.9718 10.7786 Z" fill="#59a8e9"/>	</g></svg>